<?xml version="1.0" standalone="no"?>
<!DOCTYPE svg PUBLIC "-//W3C//DTD SVG 20010904//EN"
 "http://www.w3.org/TR/2001/REC-SVG-20010904/DTD/svg10.dtd">
<svg version="1.0" xmlns="http://www.w3.org/2000/svg"
 width="832.000000pt" height="832.000000pt" viewBox="0 0 832.000000 832.000000"
 preserveAspectRatio="xMidYMid meet">
<metadata>
Created by potrace 1.14, written by Peter Selinger 2001-2017
</metadata>
<g transform="translate(0.000000,832.000000) scale(0.100000,-0.100000)"
fill="#000000" stroke="none">
<path d="M2526 8153 c-3 -10 -28 -99 -56 -197 -27 -99 -52 -181 -55 -184 -3
-3 -16 0 -30 6 -14 7 -36 12 -49 12 -12 0 -26 3 -30 7 -6 6 -107 36 -163 48
-12 3 -35 10 -50 16 -16 6 -29 10 -30 10 -2 0 -10 2 -19 6 -29 11 -44 -20 -79
-172 -3 -11 -18 -65 -35 -120 -16 -55 -26 -103 -22 -106 10 -8 365 -108 387
-109 8 0 47 122 72 225 22 93 52 169 64 166 8 -1 39 -10 69 -18 56 -15 75 -20
109 -27 10 -2 41 -12 67 -21 27 -9 57 -17 67 -18 9 -1 17 -4 17 -7 0 -3 16 -6
35 -7 27 -2 35 1 35 13 0 9 9 48 21 87 11 38 22 77 24 86 3 9 16 58 30 109 15
52 25 96 22 98 -3 4 -146 47 -170 52 -19 4 -95 25 -117 33 -14 5 -35 11 -48
14 -13 2 -32 7 -42 10 -12 4 -20 0 -24 -12z"/>
<path d="M4119 7638 c-1 -26 -52 -208 -73 -268 -8 -19 -16 -51 -20 -72 -4 -20
-12 -38 -19 -41 -6 -2 -37 4 -67 13 -86 27 -314 90 -326 90 -6 0 -11 -6 -11
-12 0 -7 -17 -71 -37 -143 -21 -71 -39 -138 -41 -148 -3 -14 -25 -82 -30 -94
-1 -2 -35 7 -76 18 -41 11 -82 22 -92 24 -9 2 -21 6 -25 9 -5 3 -19 7 -33 10
-13 3 -49 12 -79 21 -98 28 -99 28 -106 -2 -3 -16 -12 -46 -19 -68 -7 -22 -27
-95 -45 -161 -18 -67 -36 -127 -40 -134 -5 -8 -23 -6 -70 9 -35 12 -71 21 -80
21 -9 0 -21 5 -28 12 -7 7 -12 9 -12 5 0 -3 -18 0 -40 8 -22 8 -40 11 -40 8 0
-4 -5 -2 -12 5 -7 7 -21 12 -32 12 -11 0 -34 5 -53 12 -37 13 -40 12 -46 -22
-3 -14 -12 -47 -21 -75 -12 -41 -29 -101 -42 -147 -1 -5 -2 -9 -4 -10 -1 -2
-3 -10 -5 -18 -1 -8 -15 -58 -30 -110 -67 -239 -77 -276 -80 -293 -2 -9 -6
-21 -9 -25 -5 -9 -17 -59 -18 -79 -1 -7 -4 -13 -8 -13 -3 0 -94 24 -200 54
-143 40 -198 52 -207 44 -8 -6 -12 -13 -9 -15 2 -2 -6 -39 -19 -81 -12 -42
-35 -122 -50 -177 -15 -55 -30 -107 -33 -115 -3 -8 -6 -19 -7 -25 -2 -5 -17
-59 -34 -120 -18 -60 -35 -121 -37 -134 -3 -14 -7 -29 -10 -33 -3 -5 -8 -24
-11 -41 -5 -39 -29 -60 -53 -47 -10 5 -35 14 -56 19 -22 5 -86 23 -144 40
-172 51 -163 52 -183 -21 -10 -35 -19 -70 -22 -78 -15 -61 -129 -464 -140
-497 -8 -24 -17 -57 -20 -74 -3 -18 -10 -40 -16 -50 -5 -11 -8 -19 -5 -19 2 0
-5 -28 -16 -62 -11 -35 -21 -70 -23 -79 -2 -9 -22 -81 -45 -160 -48 -165 -44
-152 -55 -202 -4 -20 -11 -40 -16 -43 -5 -3 -7 -9 -4 -14 3 -5 1 -18 -4 -28
-6 -11 -12 -30 -15 -43 -3 -13 -16 -61 -29 -106 -18 -60 -21 -85 -13 -91 9 -8
83 -31 151 -48 11 -3 25 -6 30 -8 21 -5 132 -37 168 -48 20 -6 37 -15 37 -19
0 -4 -18 -71 -41 -150 -22 -78 -42 -150 -44 -161 -2 -10 -6 -22 -9 -26 -3 -5
-7 -19 -10 -33 -2 -13 -22 -87 -45 -164 -49 -172 -63 -225 -68 -247 -3 -18 24
-28 232 -84 40 -11 160 -47 162 -48 2 -2 -29 -119 -68 -256 -44 -155 -44 -149
-12 -156 16 -3 37 -9 48 -12 11 -3 23 -7 28 -8 4 -1 8 -2 10 -4 1 -1 9 -3 18
-5 9 -1 90 -24 180 -50 90 -26 171 -49 179 -51 25 -6 151 -42 225 -63 39 -12
75 -19 81 -17 6 2 -11 -73 -38 -167 -27 -95 -50 -180 -53 -190 -2 -10 -7 -27
-10 -36 -5 -15 9 -22 87 -45 51 -15 100 -29 108 -30 63 -15 187 -51 193 -57 5
-4 -1 -40 -13 -80 -11 -41 -23 -83 -25 -94 -3 -11 -12 -43 -20 -70 -9 -28 -19
-63 -22 -80 -3 -16 -9 -38 -14 -47 -5 -9 -9 -21 -9 -26 0 -8 55 -28 104 -38
12 -2 57 -15 101 -28 78 -23 435 -124 465 -131 8 -2 71 -20 140 -40 68 -20
131 -37 140 -39 8 -2 22 -5 30 -8 15 -6 64 -20 210 -59 41 -12 89 -25 105 -29
115 -33 151 -43 160 -45 6 -1 17 -5 25 -8 8 -3 41 -13 73 -21 43 -11 59 -11
62 -3 4 13 6 21 61 217 48 176 46 172 91 164 21 -4 43 -10 48 -14 6 -3 37 -13
70 -20 33 -7 66 -18 73 -23 7 -5 15 -7 19 -4 3 4 12 2 20 -4 7 -6 13 -8 13 -4
0 4 7 2 15 -5 8 -7 15 -10 15 -7 0 4 18 0 40 -8 22 -8 40 -12 40 -8 0 3 7 0
15 -7 8 -7 15 -9 15 -6 0 4 8 2 18 -3 9 -5 31 -12 47 -15 17 -3 62 -15 100
-26 39 -12 78 -23 88 -26 9 -2 25 -6 35 -8 9 -3 33 -10 52 -15 19 -6 37 -7 41
-3 5 6 27 78 44 142 14 56 69 246 71 249 2 3 45 -9 141 -40 18 -5 40 -12 50
-14 10 -1 60 -15 111 -30 52 -15 95 -25 98 -22 4 3 48 151 60 197 2 8 8 31 13
50 28 103 40 143 44 147 3 2 26 -3 51 -11 25 -8 55 -17 68 -20 13 -2 42 -11
66 -20 23 -8 45 -15 47 -15 11 1 71 -14 80 -19 6 -4 15 -7 20 -8 6 -1 22 -5
37 -9 24 -6 29 -3 39 21 7 16 14 36 15 44 2 8 24 87 50 175 25 88 50 178 55
200 5 22 11 45 13 50 2 6 5 15 6 20 2 6 11 33 20 60 9 28 17 52 17 55 0 3 10
44 23 91 l24 85 45 -13 c25 -7 78 -21 116 -32 39 -11 103 -29 143 -40 40 -11
77 -23 82 -26 8 -5 27 19 29 38 1 4 1 8 2 10 0 1 2 9 4 17 2 8 22 80 45 160
23 80 44 153 45 163 2 9 6 21 9 25 3 5 7 19 10 33 3 13 23 89 46 169 23 80 43
152 45 160 2 8 18 62 35 120 17 58 33 114 35 125 2 11 16 61 30 110 15 50 27
95 28 100 2 6 6 16 10 23 5 6 6 12 2 12 -3 0 1 16 9 35 9 20 15 36 14 38 -4 7
26 114 35 125 5 6 7 12 4 12 -3 0 3 28 14 63 10 34 19 63 19 64 0 5 -60 33
-67 33 -9 -2 -144 35 -227 61 -33 11 -65 19 -71 19 -18 0 -38 27 -32 42 2 7 5
15 5 18 0 3 5 17 11 33 6 15 13 38 15 50 3 12 21 78 41 147 20 69 38 134 40
145 3 11 9 31 14 45 5 14 14 43 20 65 6 22 21 78 35 125 34 120 40 150 27 151
-14 2 -23 4 -41 12 -8 4 -24 8 -35 10 -11 2 -27 7 -35 10 -14 5 -60 17 -87 23
-7 1 -41 11 -75 22 -35 11 -75 22 -90 26 l-26 6 15 52 c8 29 25 91 38 138 13
47 31 112 40 145 10 33 18 65 20 70 1 6 5 17 8 25 4 8 9 26 12 40 2 14 18 72
35 130 17 58 33 115 36 127 2 12 9 34 14 49 6 15 9 28 8 30 -3 2 -113 35 -163
48 -5 1 -30 8 -55 15 -25 7 -52 14 -60 16 -8 2 -28 8 -43 14 -15 6 -40 12 -56
13 -24 2 -27 5 -23 27 3 15 8 31 12 36 5 6 11 24 14 40 3 17 12 55 21 85 24
80 47 163 49 175 1 6 5 16 10 23 13 21 -3 30 -100 57 -49 14 -114 33 -144 41
-30 9 -62 19 -70 22 -8 3 -23 6 -32 7 -10 2 -21 4 -25 5 -5 1 -11 2 -15 1 -12
-2 -10 22 7 75 21 68 95 331 95 338 0 3 -10 6 -23 6 -13 0 -27 3 -31 7 -3 4
-17 9 -29 11 -26 4 -36 7 -57 14 -56 20 -222 64 -253 67 -12 1 -4 40 43 201
23 80 43 152 45 160 2 8 4 20 5 25 5 23 -1 35 -16 35 -9 0 -48 9 -87 21 -38
11 -77 22 -86 24 -9 2 -72 20 -141 39 -69 20 -143 41 -165 47 -22 6 -51 15
-65 20 -14 5 -43 13 -65 18 -39 9 -295 80 -365 102 -19 5 -42 12 -50 13 -8 2
-22 6 -30 9 -8 3 -26 8 -40 12 -14 3 -50 13 -80 21 -30 9 -59 17 -65 18 -5 2
-17 5 -25 8 -22 8 -202 58 -225 63 -11 2 -36 9 -55 14 -45 14 -50 14 -51 -1z"/>
<path d="M1495 7579 c-4 -5 -8 -17 -10 -26 -2 -10 -17 -67 -35 -128 -17 -60
-56 -197 -86 -304 -30 -106 -62 -219 -71 -250 -19 -62 -20 -66 -22 -82 0 -5
-5 -7 -11 -4 -5 3 -18 8 -27 10 -36 9 -91 24 -226 63 l-138 39 -11 -26 c-5
-14 -11 -35 -13 -46 -2 -11 -18 -69 -35 -130 -39 -138 -41 -147 -42 -162 -1
-7 -5 -13 -10 -13 -5 0 -7 -4 -4 -9 3 -5 -1 -28 -9 -51 -8 -24 -17 -52 -19
-64 -4 -17 -61 -220 -81 -286 -6 -19 14 -27 180 -74 240 -68 219 -67 233 -9 7
26 14 55 16 64 3 9 11 38 20 63 9 26 16 53 16 60 0 7 9 39 19 72 11 32 22 70
25 84 14 67 109 396 117 404 5 6 37 0 81 -13 74 -23 169 -49 197 -55 9 -2 23
-6 31 -9 70 -26 84 -27 94 -10 6 10 11 23 12 28 7 31 35 132 41 145 3 8 7 20
8 25 1 6 15 55 30 110 15 55 28 105 29 110 2 6 9 30 16 55 7 25 15 51 17 58 7
26 10 38 15 52 25 67 54 197 46 206 -4 7 -23 14 -41 18 -17 3 -54 13 -82 21
-242 71 -263 76 -270 64z"/>
<path d="M7276 2258 c-20 -60 -116 -401 -121 -427 -2 -9 -4 -16 -5 -16 -1 0
-3 -7 -5 -15 -4 -15 -15 -53 -34 -120 -5 -19 -18 -66 -29 -105 -11 -38 -22
-77 -26 -85 -10 -24 5 -35 74 -54 36 -10 79 -21 95 -26 132 -38 226 -63 228
-59 2 2 14 42 27 89 12 47 32 117 42 155 11 39 21 75 22 80 1 6 12 42 23 80
12 39 33 115 48 170 15 55 28 106 31 113 2 7 4 16 5 20 2 4 8 26 15 49 7 23
10 44 6 46 -4 3 -41 14 -82 26 -41 11 -115 33 -165 47 -49 14 -98 27 -108 29
-9 2 -22 7 -27 10 -6 3 -12 0 -14 -7z"/>
<path d="M6585 1358 c-33 -117 -60 -215 -60 -218 -1 -3 -9 -32 -19 -65 -10
-33 -20 -67 -21 -75 -2 -8 -17 -62 -34 -120 -17 -57 -27 -108 -23 -112 5 -5
18 -10 30 -13 12 -2 26 -6 30 -9 5 -3 22 -8 38 -11 16 -3 89 -23 162 -44 l132
-39 17 57 c9 31 18 61 19 66 1 6 14 51 28 101 15 50 29 100 31 110 5 21 118
416 129 451 6 19 2 23 -36 33 -24 6 -56 15 -73 20 -125 38 -203 60 -222 63
-12 2 -26 6 -29 10 -4 4 -14 7 -23 7 -12 0 -30 -50 -76 -212z"/>
<path d="M6009 854 c-6 -16 -13 -38 -15 -49 -2 -11 -12 -50 -23 -88 -11 -37
-21 -71 -22 -75 -2 -10 -5 -21 -24 -84 -10 -31 -15 -64 -12 -72 5 -12 44 -28
102 -42 6 -1 44 -12 85 -24 130 -38 200 -54 206 -47 4 3 12 30 20 59 11 46 75
274 90 320 3 12 -4 18 -28 24 -18 4 -36 9 -40 10 -5 1 -9 2 -10 4 -2 1 -10 3
-18 5 -8 2 -49 14 -90 25 -41 12 -97 27 -125 35 -27 7 -58 17 -67 20 -13 5
-21 0 -29 -21z"/>
<path d="M5490 555 c-6 -18 -12 -41 -15 -51 -7 -32 -45 -168 -52 -184 -3 -8
-6 -18 -5 -22 1 -4 -3 -19 -8 -33 -15 -38 -21 -85 -13 -86 17 -1 41 -8 128
-33 50 -15 99 -28 110 -30 11 -1 30 -8 43 -15 12 -6 22 -10 22 -7 0 3 20 -1
45 -8 25 -8 46 -10 46 -5 2 12 5 21 12 39 6 15 45 155 52 188 8 36 44 152 50
162 3 5 -1 11 -9 11 -24 2 -113 24 -146 36 -8 4 -22 8 -30 9 -8 2 -61 17 -117
32 l-102 29 -11 -32z"/>
</g>
</svg>
