<svg width="16" height="27" viewBox="0 0 16 27" fill="none" xmlns="http://www.w3.org/2000/svg">
<path d="M3.69719 18.6923C3.22741 18.6923 2.81826 18.3288 2.74249 17.839L0.0147655 1.18387C-0.0306966 0.915245 0.0299194 0.646612 0.181459 0.425385C0.332999 0.204159 0.56031 0.0619424 0.817927 0.0145371C1.34832 -0.0802738 1.8484 0.29897 1.93933 0.852037L4.6519 17.5071C4.69737 17.7758 4.63673 18.0444 4.48519 18.2656C4.33367 18.4868 4.10633 18.6291 3.84873 18.6765C3.80327 18.6923 3.74265 18.6923 3.69719 18.6923Z" fill="#92A573"/>
<path d="M8.34849 11.0769C6.79996 11.0769 5.34252 11.5656 4.128 12.3855L4.462 14.4035C5.50954 13.4575 6.86069 12.8899 8.34849 12.8899C11.6125 12.8899 14.2693 15.6489 14.2693 19.0385C14.2693 22.428 11.6125 25.187 8.34849 25.187C5.08445 25.187 2.42769 22.428 2.42769 19.0385C2.42769 18.5813 2.47323 18.1399 2.56432 17.7142L2.03297 14.5138C1.1828 15.8066 0.666626 17.3516 0.666626 19.0385C0.666626 23.437 4.11285 27 8.33329 27C12.5538 27 16 23.4213 16 19.0385C16 14.6557 12.5841 11.0769 8.34849 11.0769Z" fill="#92A573"/>
<path d="M7.66663 23.5385C8.21889 23.5385 8.66663 23.0735 8.66663 22.5C8.66663 21.9265 8.21889 21.4615 7.66663 21.4615C7.11436 21.4615 6.66663 21.9265 6.66663 22.5C6.66663 23.0735 7.11436 23.5385 7.66663 23.5385Z" fill="#92A573"/>
<path d="M11 22.1539C11.5523 22.1539 12 21.6889 12 21.1154C12 20.5419 11.5523 20.0769 11 20.0769C10.4477 20.0769 10 20.5419 10 21.1154C10 21.6889 10.4477 22.1539 11 22.1539Z" fill="#92A573"/>
<path d="M8.33337 20.0769C8.88571 20.0769 9.33337 19.612 9.33337 19.0385C9.33337 18.465 8.88571 18 8.33337 18C7.78111 18 7.33337 18.465 7.33337 19.0385C7.33337 19.612 7.78111 20.0769 8.33337 20.0769Z" fill="#92A573"/>
<path d="M4.99998 21.4615C5.55227 21.4615 6 20.9966 6 20.4231C6 19.8496 5.55227 19.3846 4.99998 19.3846C4.44769 19.3846 4 19.8496 4 20.4231C4 20.9966 4.44769 21.4615 4.99998 21.4615Z" fill="#92A573"/>
<path d="M11.6666 18.6923C12.2189 18.6923 12.6666 18.2274 12.6666 17.6538C12.6666 17.0803 12.2189 16.6154 11.6666 16.6154C11.1143 16.6154 10.6666 17.0803 10.6666 17.6538C10.6666 18.2274 11.1143 18.6923 11.6666 18.6923Z" fill="#92A573"/>
<path d="M9 16.6154C9.55227 16.6154 10 16.1504 10 15.5769C10 15.0034 9.55227 14.5385 9 14.5385C8.44773 14.5385 8 15.0034 8 15.5769C8 16.1504 8.44773 16.6154 9 16.6154Z" fill="#92A573"/>
<path d="M5.66665 18C6.21894 18 6.66663 17.535 6.66663 16.9615C6.66663 16.388 6.21894 15.9231 5.66665 15.9231C5.11435 15.9231 4.66663 16.388 4.66663 16.9615C4.66663 17.535 5.11435 18 5.66665 18Z" fill="#92A573"/>
</svg>
