<svg width="12" height="12" viewBox="0 0 12 12" fill="none" xmlns="http://www.w3.org/2000/svg">
<g clip-path="url(#clip0_68_101)">
<path fill-rule="evenodd" clip-rule="evenodd" d="M9.77 0C10.448 0 11 0.552 11 1.236V12L9.71 10.86L8.984 10.188L8.216 9.474L8.534 10.584H1.73C1.052 10.584 0.5 10.032 0.5 9.348V1.236C0.5 0.552 1.052 0 1.73 0H9.77V0ZM7.454 7.836C8.78 7.794 9.29 6.924 9.29 6.924C9.29 4.992 8.426 3.426 8.426 3.426C7.562 2.778 6.74 2.796 6.74 2.796L6.656 2.892C7.676 3.204 8.15 3.654 8.15 3.654C7.526 3.312 6.914 3.144 6.344 3.078C5.912 3.03 5.498 3.042 5.132 3.09L5.03 3.102C4.82 3.12 4.31 3.198 3.668 3.48C3.446 3.582 3.314 3.654 3.314 3.654C3.314 3.654 3.812 3.18 4.892 2.868L4.832 2.796C4.832 2.796 4.01 2.778 3.146 3.426C3.146 3.426 2.282 4.992 2.282 6.924C2.282 6.924 2.786 7.794 4.112 7.836C4.112 7.836 4.334 7.566 4.514 7.338C3.752 7.11 3.464 6.63 3.464 6.63L3.632 6.732L3.656 6.75L3.6795 6.7635L3.6865 6.7665L3.71 6.78C3.86 6.864 4.01 6.93 4.148 6.984C4.394 7.08 4.688 7.176 5.03 7.242C5.48 7.326 6.008 7.356 6.584 7.248C6.866 7.2 7.154 7.116 7.454 6.99C7.664 6.912 7.898 6.798 8.144 6.636C8.144 6.636 7.844 7.128 7.058 7.35C7.238 7.578 7.454 7.836 7.454 7.836ZM4.664 5.034C4.322 5.034 4.052 5.334 4.052 5.7C4.052 6.066 4.328 6.366 4.664 6.366C5.006 6.366 5.276 6.066 5.276 5.7C5.282 5.334 5.006 5.034 4.664 5.034ZM6.854 5.034C6.512 5.034 6.242 5.334 6.242 5.7C6.242 6.066 6.518 6.366 6.854 6.366C7.196 6.366 7.466 6.066 7.466 5.7C7.466 5.334 7.196 5.034 6.854 5.034Z" fill="#92A573"/>
</g>
<defs>
<clipPath id="clip0_68_101">
<rect width="12" height="12" fill="white"/>
</clipPath>
</defs>
</svg>
