<svg width="112" height="29" viewBox="0 0 112 29" fill="none" xmlns="http://www.w3.org/2000/svg">
<path d="M1 18.4191L21.7213 16.9702L37.5256 15.865L54.0324 14.7107L70.188 13.581L91.6117 12.0829L111.279 10.7076" stroke="#E9F263" stroke-width="20"/>
<path d="M2.74658 22.1287C2.67988 22.0707 2.62794 21.9999 2.59077 21.9164C2.56139 21.8323 2.49414 21.7665 2.38901 21.719C2.36525 21.6032 2.3326 21.4724 2.29108 21.3265C2.2568 21.1722 2.21862 21.0183 2.17655 20.8646C2.14172 20.7025 2.11107 20.5441 2.08458 20.3894C2.06534 20.2262 2.06278 20.0776 2.0769 19.9435C2.08758 19.8723 2.10633 19.8044 2.13314 19.7399C2.16775 19.6748 2.19873 19.6139 2.22609 19.5571C2.2607 19.4921 2.28362 19.4278 2.29484 19.3644C2.31386 19.3004 2.3134 19.2378 2.29345 19.1765C2.33967 19.1655 2.36531 19.1402 2.37038 19.1007C2.3827 19.0528 2.42058 19.0345 2.48401 19.0457C2.52658 18.8704 2.57386 18.7066 2.62585 18.5542C2.67784 18.4017 2.73401 18.2529 2.79434 18.1077C2.85467 17.9625 2.915 17.8174 2.97533 17.6722C3.04291 17.5186 3.10161 17.3501 3.15142 17.1665C3.01021 17.051 2.90353 16.9254 2.83137 16.7894C2.76647 16.6452 2.71325 16.5001 2.67172 16.3542C2.63019 16.2083 2.59646 16.0619 2.57051 15.9149C2.54403 15.7601 2.50195 15.6064 2.44429 15.4538C2.52801 15.307 2.63311 15.1861 2.7596 15.0911C2.88555 14.9883 3.02455 14.9042 3.17661 14.8387C3.33591 14.7649 3.508 14.7059 3.69286 14.6617C3.87718 14.6096 4.07291 14.5528 4.28007 14.4914C4.64598 14.3483 4.97483 14.2353 5.26662 14.1522C5.55787 14.0613 5.84241 13.9866 6.12025 13.928C6.39755 13.8617 6.68708 13.8023 6.98884 13.7498C7.29007 13.6896 7.63696 13.6105 8.02952 13.5126C8.03895 13.5354 8.05145 13.5463 8.06704 13.5452C8.09042 13.5436 8.1177 13.5417 8.14887 13.5395C8.17607 13.5924 8.22084 13.6167 8.28319 13.6123C8.28155 13.5889 8.27629 13.5697 8.26741 13.5547C8.26578 13.5313 8.26441 13.5118 8.26332 13.4962C8.27891 13.4952 8.29867 13.4977 8.32259 13.5038C8.35431 13.5095 8.37824 13.5156 8.39437 13.5223C8.41829 13.5285 8.43778 13.5271 8.45282 13.5182C8.46732 13.5016 8.4693 13.474 8.45879 13.4356C8.56375 13.5927 8.69409 13.7207 8.84979 13.8194C9.00495 13.9104 9.17488 13.9885 9.35958 14.0539C9.37228 14.1235 9.37582 14.1742 9.37021 14.2059C9.37239 14.2371 9.37067 14.2685 9.36506 14.3003C9.3589 14.3242 9.35719 14.3556 9.35991 14.3946C9.36209 14.4258 9.37315 14.472 9.3931 14.5332C9.28312 14.7524 9.15038 14.9261 8.9949 15.0545C8.8472 15.1823 8.68591 15.2836 8.51102 15.3585C8.33613 15.4334 8.14846 15.4935 7.94801 15.5388C7.75535 15.5836 7.55517 15.6329 7.34747 15.6866C7.14702 15.7319 6.94377 15.7931 6.7377 15.8702C6.53164 15.9472 6.33165 16.0552 6.13774 16.1941C6.07376 16.175 6.01476 16.1713 5.96075 16.1829C5.91399 16.1862 5.86388 16.1975 5.81042 16.2169C5.75695 16.2364 5.69569 16.2563 5.62664 16.2768C5.56538 16.2967 5.48745 16.3022 5.39284 16.2931C5.33431 16.3521 5.26299 16.3962 5.1789 16.4256C5.1026 16.4544 5.0224 16.4835 4.93831 16.5129C4.98327 16.5959 5.00485 16.6805 5.00305 16.7668C5.00905 16.8525 5.02592 16.9257 5.05366 16.9865C5.38316 16.9947 5.74556 16.9694 6.14085 16.9104C6.53559 16.8437 6.92335 16.7891 7.30414 16.7469C7.31466 16.7853 7.31267 16.8128 7.29818 16.8295C7.28368 16.8462 7.27779 16.874 7.28052 16.913C7.35393 16.9548 7.42426 17.0086 7.49151 17.0744C7.55877 17.1402 7.62602 17.206 7.69327 17.2718C7.76777 17.3292 7.84173 17.3789 7.91514 17.4207C7.988 17.4548 8.07093 17.4646 8.1639 17.4503C8.20832 17.5255 8.24132 17.6054 8.2629 17.6901C8.28448 17.7747 8.27906 17.8652 8.24663 17.9614C8.09785 18.0736 7.95323 18.1895 7.81278 18.3089C7.67179 18.4206 7.52246 18.525 7.3648 18.6222C7.21492 18.7188 7.04837 18.801 6.86514 18.8686C6.68191 18.9362 6.48092 18.9738 6.26216 18.9812C6.22319 18.984 6.18812 18.9864 6.15694 18.9886C6.13356 18.9902 6.1013 18.9768 6.06015 18.9484C5.98494 18.9928 5.88082 19.0157 5.74779 19.0172C5.622 19.0103 5.51761 19.0294 5.4346 19.0743C5.32277 19.043 5.19282 19.0325 5.04474 19.0429C4.90446 19.0527 4.7784 19.0419 4.66657 19.0106C4.54045 19.223 4.42295 19.4466 4.31406 19.6813C4.20462 19.9083 4.11186 20.1497 4.03578 20.4056C4.35858 20.43 4.62492 20.431 4.8348 20.4085C5.04468 20.386 5.24232 20.3565 5.42773 20.32C5.61314 20.2836 5.80245 20.2469 5.99565 20.2098C6.19664 20.1723 6.44159 20.1473 6.7305 20.135C6.91879 20.0278 7.13655 19.9499 7.38376 19.9013C7.63822 19.8444 7.8721 19.7732 8.08542 19.6878C8.16499 19.7057 8.2345 19.7479 8.29396 19.8142C8.35287 19.8727 8.40816 19.9354 8.45983 20.0023C8.51874 20.0608 8.57711 20.1116 8.63494 20.1545C8.69276 20.1975 8.76399 20.2081 8.84863 20.1866C8.89032 20.2228 8.91697 20.2679 8.92858 20.3219C8.94798 20.3754 8.96321 20.4252 8.97428 20.4715C8.99313 20.5171 9.01534 20.5547 9.0409 20.5843C9.06592 20.606 9.10933 20.6108 9.17113 20.5987C9.04431 20.913 8.8931 21.1585 8.7175 21.3352C8.54969 21.5114 8.35216 21.6545 8.12489 21.7643C7.90488 21.8659 7.65233 21.9501 7.36724 22.017C7.0894 22.0756 6.7773 22.1483 6.43096 22.2352C6.34632 22.2568 6.27228 22.262 6.20884 22.2507C6.15265 22.2312 6.09339 22.2236 6.03104 22.2279C5.81555 22.2821 5.55719 22.3394 5.25597 22.3996C4.96254 22.4593 4.66358 22.4958 4.35909 22.5093C4.0546 22.5228 3.75962 22.5042 3.47415 22.4537C3.18868 22.4032 2.94616 22.2948 2.74658 22.1287ZM9.42097 15.4358C9.40882 15.374 9.38942 15.3206 9.36277 15.2754C9.34337 15.222 9.3198 15.1649 9.29206 15.1042C9.24655 15.0134 9.20439 14.9145 9.16559 14.8076C9.12679 14.7007 9.10221 14.5732 9.09185 14.4251C9.10199 14.3461 9.11766 14.2901 9.13886 14.2573C9.15951 14.2167 9.18072 14.1839 9.20246 14.1589L9.23451 13.9452L9.40986 13.933C9.47275 13.9364 9.53537 13.9359 9.59772 13.9316C9.66786 13.9267 9.73411 13.922 9.79645 13.9177C10.0926 13.897 10.3957 13.864 10.7058 13.8188C11.0159 13.7737 11.3336 13.724 11.6587 13.67C12.0139 13.5981 12.3973 13.5361 12.8087 13.4838C12.8417 13.3954 12.8612 13.3392 12.8674 13.3153C12.8813 13.2908 12.895 13.2624 12.9084 13.2302L13.0321 13.151C13.2108 13.1307 13.3371 13.1454 13.4111 13.195C13.4845 13.2369 13.5423 13.2798 13.5846 13.3239C13.7861 13.2941 13.9913 13.2602 14.2001 13.2221C14.4083 13.1762 14.6243 13.1298 14.8482 13.0828C15.1572 13.022 15.4701 12.961 15.7869 12.8997C16.1037 12.8383 16.4141 12.7971 16.718 12.7758C16.8505 12.7665 16.9755 12.7617 17.0929 12.7613C17.2104 12.761 17.3242 12.7648 17.4344 12.7727L17.5821 12.8681C17.617 12.9205 17.6595 12.9684 17.7096 13.0119C17.7596 13.0554 17.8174 13.0983 17.8831 13.1407C18.0065 13.2261 18.1277 13.3351 18.2466 13.4677C18.3733 13.5999 18.4306 13.8034 18.4185 14.0783L18.3682 14.1993C18.3392 14.2327 18.3025 14.2666 18.2579 14.301L18.1516 14.4612L18.023 14.4702C17.9451 14.4756 17.8872 14.4875 17.8493 14.5058C17.8109 14.5163 17.7652 14.5352 17.7123 14.5624C17.6822 14.5801 17.6482 14.5982 17.6103 14.6165C17.5719 14.627 17.5299 14.6417 17.4842 14.6606C17.3979 14.6588 17.3314 14.6595 17.2846 14.6628C17.2379 14.666 17.1833 14.6698 17.121 14.6742C16.8872 14.6906 16.635 14.7239 16.3644 14.7741C16.0938 14.8243 15.8313 14.8779 15.5768 14.9349C15.3914 14.9714 15.2138 15.0073 15.044 15.0426C14.8736 15.0702 14.7188 15.0967 14.5796 15.1221C14.5159 15.3302 14.4583 15.5143 14.4068 15.6746C14.3554 15.8348 14.3 15.9953 14.2408 16.1561C14.1815 16.3168 14.1265 16.4812 14.0756 16.6493C14.0241 16.8095 13.9779 16.9889 13.937 17.1876C13.8533 17.3344 13.7849 17.4762 13.7318 17.6131C13.6782 17.7421 13.6376 17.8899 13.6101 18.0563C13.5024 18.1969 13.4268 18.3471 13.3831 18.5068C13.3473 18.6659 13.3137 18.8014 13.2823 18.9132L13.2478 19.0919C13.1971 19.1502 13.165 19.1955 13.1516 19.2278C13.146 19.2595 13.129 19.296 13.1005 19.3371C13.0842 19.4401 13.0599 19.5397 13.0274 19.6359C13.0146 19.676 13.002 19.7199 12.9897 19.7678C12.9768 19.8078 12.9751 19.8393 12.9845 19.8621C12.9749 19.9489 12.9562 20.0168 12.9283 20.0657C12.9315 20.1125 12.9309 20.1595 12.9264 20.2068C12.9219 20.2542 12.9173 20.3015 12.9128 20.3488C12.901 20.4044 12.8929 20.4559 12.8884 20.5032C12.8833 20.5427 12.8899 20.5814 12.9082 20.6193C12.9338 20.6488 12.9594 20.6784 12.9849 20.7079C13.0105 20.7374 13.0327 20.775 13.0515 20.8207C13.0682 20.8352 13.0885 20.8455 13.1124 20.8517C13.1364 20.8578 13.1567 20.8682 13.1733 20.8827C13.2395 20.9329 13.3001 20.96 13.3552 20.9639L13.482 21.096C13.5483 21.3733 13.5207 21.5945 13.3991 21.7597C13.2714 21.9487 13.0439 22.0547 12.7165 22.0776L12.552 22.0774C12.4937 22.0266 12.4601 21.9937 12.4512 21.9787C12.3788 21.9524 12.3185 21.9292 12.2701 21.9091C12.2222 21.8968 12.1769 21.8647 12.1341 21.8129C12.1175 21.7984 12.0974 21.792 12.0741 21.7936C12.0501 21.7874 12.0298 21.7771 12.0132 21.7626C11.9336 21.7447 11.8693 21.7218 11.8204 21.6939L11.6869 21.6327C11.6892 21.5542 11.6893 21.4994 11.6871 21.4682C11.6188 21.3869 11.5616 21.2969 11.5155 21.1983C11.4773 21.0992 11.4427 20.9959 11.4116 20.8884C11.3823 20.8043 11.3534 20.728 11.3252 20.6595C11.3047 20.5904 11.273 20.53 11.2302 20.4782C11.1765 19.9337 11.1953 19.4743 11.2866 19.0998C11.3773 18.7175 11.4806 18.3461 11.5963 17.9856C11.6612 17.7931 11.7219 17.597 11.7784 17.3973C11.8349 17.1975 11.8834 16.9944 11.9237 16.788L12.0433 16.6504C12.0946 16.5998 12.1278 16.5701 12.1428 16.5612C12.1357 16.4599 12.1484 16.3611 12.1808 16.2649C12.2127 16.1608 12.2485 16.0565 12.2882 15.9519C12.315 15.8874 12.3379 15.8232 12.3569 15.7592C12.3837 15.6946 12.3994 15.6387 12.4039 15.5914C12.3494 15.5952 12.299 15.6027 12.2528 15.6137C12.2138 15.6165 12.1712 15.6234 12.125 15.6344C12.0253 15.6649 11.9287 15.6834 11.8352 15.6899C11.7651 15.6948 11.7141 15.6945 11.6824 15.6889C11.6222 15.7244 11.5652 15.748 11.5111 15.7596C11.4566 15.7634 11.402 15.7672 11.3475 15.771L11.2072 15.7808L11.0669 15.7906C10.9734 15.7972 10.9002 15.814 10.8473 15.8412C10.7382 15.8489 10.668 15.8538 10.6368 15.856C10.6057 15.8581 10.5706 15.8606 10.5316 15.8633L10.3913 15.8731L10.2511 15.8829C10.1887 15.8873 10.1183 15.8883 10.0398 15.886C9.96079 15.8758 9.87678 15.8504 9.78778 15.8096L9.69941 15.7218C9.64666 15.6393 9.60052 15.5956 9.56101 15.5905L9.42997 15.5644L9.42097 15.4358ZM17.0437 21.1289C17.0209 21.1383 17.0047 21.1316 16.9953 21.1088C16.9859 21.086 16.9803 21.0629 16.9787 21.0395C16.9849 21.0156 16.9952 20.9953 17.0097 20.9786C17.032 20.9614 17.0593 20.9594 17.0915 20.9729C16.9815 20.8552 16.9073 20.7469 16.8691 20.6477C16.8386 20.5481 16.7792 20.4269 16.691 20.2843C16.7127 20.2593 16.7261 20.227 16.7312 20.1875C16.7357 20.1402 16.7444 20.0965 16.7573 20.0564C16.7623 20.0169 16.7721 19.9888 16.7866 19.9722C16.8083 19.9471 16.8359 19.9491 16.8693 19.9781C16.8477 19.8935 16.8428 19.8233 16.8545 19.7677C16.8663 19.7121 16.8784 19.6603 16.8907 19.6125C16.9108 19.5641 16.9231 19.5162 16.9276 19.4689C16.9321 19.4216 16.9166 19.3679 16.8811 19.3077C17.015 19.0947 17.0972 18.8697 17.1276 18.6326C17.1575 18.3877 17.1695 18.1676 17.1636 17.9722C17.2289 17.8972 17.2808 17.7996 17.3194 17.6794C17.3658 17.5587 17.3963 17.4352 17.4109 17.3088C17.4256 17.1825 17.4288 17.0609 17.4207 16.944C17.4119 16.8193 17.3895 16.723 17.3535 16.655C17.3591 16.6233 17.3736 16.6066 17.397 16.605C17.4276 16.595 17.4627 16.5925 17.5022 16.5976C17.5349 16.2821 17.5457 15.9328 17.5346 15.5498C17.5313 15.1663 17.5447 14.7973 17.5747 14.4428C17.612 14.0799 17.6876 13.7614 17.8015 13.4871C17.915 13.2051 18.1131 13.015 18.396 12.9169C18.4642 13.1079 18.5463 13.2745 18.6424 13.4166C18.7463 13.5581 18.8538 13.6955 18.9649 13.8287C19.0838 13.9613 19.2028 14.094 19.3217 14.2266C19.4406 14.3593 19.5528 14.5081 19.6583 14.673C19.6631 14.8528 19.658 15.0607 19.6432 15.2967C19.6362 15.5321 19.6177 15.7722 19.5878 16.0171C19.5658 16.2614 19.5393 16.4982 19.5083 16.7275C19.4851 16.9563 19.4595 17.1499 19.4315 17.3085C19.442 17.3469 19.4712 17.3723 19.519 17.3846C19.5663 17.3891 19.5771 17.4315 19.5514 17.5116C19.7736 17.4412 20.0038 17.3742 20.2422 17.3106C20.4877 17.2386 20.7258 17.171 20.9563 17.1079C21.1941 17.0365 21.4236 16.9578 21.6447 16.8718C21.8736 16.7853 22.0858 16.6843 22.2813 16.5689C22.3019 16.1915 22.3345 15.8172 22.379 15.446C22.4236 15.0748 22.4055 14.7041 22.3248 14.3338C22.3688 14.2916 22.4045 14.2421 22.4318 14.1854C22.4592 14.1286 22.5035 14.0903 22.5648 14.0703C22.5055 13.8944 22.4729 13.7087 22.4671 13.5133C22.4607 13.3101 22.4788 13.1209 22.5214 12.9456C22.5717 12.7698 22.651 12.6155 22.7592 12.4826C22.8668 12.3419 23.005 12.2461 23.1737 12.1952C23.2854 12.3362 23.3862 12.4897 23.4761 12.6557C23.566 12.8217 23.6562 12.9916 23.7467 13.1654C23.8366 13.3314 23.9299 13.4893 24.0265 13.6392C24.131 13.7885 24.2571 13.9128 24.405 14.0121C24.4475 14.2833 24.4866 14.5625 24.5223 14.8497C24.5576 15.1292 24.5897 15.4207 24.6187 15.7241C24.5731 16.0797 24.5153 16.4283 24.4452 16.77C24.3823 17.1033 24.3445 17.4583 24.3317 17.8352C24.2743 17.9097 24.2296 17.9989 24.1977 18.103C24.1653 18.1992 24.1331 18.2994 24.1012 18.4034C24.0766 18.4991 24.0442 18.5954 24.004 18.6921C23.9637 18.7889 23.9107 18.871 23.845 18.9382C23.8838 19.0451 23.895 19.1501 23.8787 19.253C23.8697 19.3476 23.9048 19.4587 23.9843 19.5863C24.0167 19.8268 23.9997 20.0316 23.9332 20.2007C23.874 20.3615 23.7822 20.505 23.6579 20.6312C23.5408 20.749 23.399 20.849 23.2325 20.9311C23.0732 21.0049 22.9136 21.0748 22.7538 21.1408C22.6725 21.0995 22.5952 21.0579 22.5218 21.016C22.4557 20.9658 22.375 20.9323 22.2799 20.9155L22.3309 20.8062C22.1642 20.6612 22.0163 20.5071 21.8875 20.3438C21.7658 20.1722 21.701 19.9731 21.693 19.7465C21.6924 19.7387 21.6967 19.6875 21.7057 19.5929C21.7142 19.4905 21.7225 19.3842 21.7304 19.274C21.7462 19.1633 21.7586 19.0606 21.7676 18.966C21.7839 18.863 21.7918 18.8077 21.7912 18.7999C21.5747 18.8385 21.3522 18.905 21.1238 18.9993C20.8955 19.0935 20.6718 19.1993 20.4529 19.3164C20.2412 19.4252 20.0418 19.5409 19.8546 19.6636C19.6746 19.778 19.5287 19.8744 19.4167 19.9527C19.4183 19.9761 19.4034 20.0437 19.3721 20.1555C19.3408 20.2674 19.3022 20.3875 19.2563 20.516C19.21 20.6368 19.155 20.7463 19.0914 20.8448C19.0356 20.9426 18.9723 20.9901 18.9016 20.9872C18.9199 21.0251 18.9377 21.0552 18.9549 21.0775C18.9716 21.092 18.9741 21.1271 18.9623 21.1827C18.8325 21.2309 18.7153 21.29 18.6105 21.36C18.5136 21.4295 18.4119 21.4875 18.3055 21.5341C18.1997 21.5885 18.0802 21.6164 17.9472 21.6179C17.8225 21.6266 17.6673 21.5904 17.4815 21.5095C17.4777 21.4549 17.451 21.4098 17.4015 21.3741C17.3515 21.3306 17.2981 21.2952 17.2414 21.2678C17.1924 21.2399 17.1477 21.2156 17.1071 21.195C17.0665 21.1743 17.0453 21.1523 17.0437 21.1289ZM26.2356 19.8635C25.9976 19.7079 25.7956 19.5066 25.6295 19.2598C25.4713 19.0124 25.3392 18.7476 25.2333 18.4652C25.1352 18.1823 25.0599 17.89 25.0075 17.5882C24.9623 17.2781 24.9338 16.9825 24.922 16.7014C24.9774 16.486 25.0498 16.2891 25.1391 16.1106C25.2279 15.9242 25.3292 15.7488 25.443 15.5842C25.5563 15.4118 25.6742 15.2508 25.7969 15.1013C25.9268 14.9434 26.0529 14.7858 26.175 14.6285C26.2218 14.6252 26.2654 14.6339 26.306 14.6545C26.3312 14.5666 26.3728 14.4893 26.4308 14.4226C26.4888 14.3559 26.5512 14.2967 26.6181 14.2451C26.6844 14.1856 26.751 14.13 26.8179 14.0784C26.8842 14.0189 26.9383 13.9525 26.9802 13.8791C27.1717 13.8187 27.3385 13.7404 27.4806 13.6444C27.6305 13.5477 27.772 13.4439 27.9052 13.3327C28.0384 13.2216 28.1761 13.118 28.3182 13.0219C28.4602 12.9258 28.6271 12.8476 28.8186 12.7872C28.8833 12.7044 28.9644 12.6321 29.0619 12.5705C29.1672 12.5083 29.2689 12.4503 29.3669 12.3965C29.4728 12.3421 29.5705 12.2843 29.6602 12.2232C29.7577 12.1616 29.8344 12.0818 29.8902 11.9839C29.9413 12.043 30.0092 12.0618 30.0938 12.0402C30.1779 12.0108 30.2542 11.982 30.3227 11.9537C30.369 11.9426 30.4085 11.9477 30.4413 11.9689C30.4741 11.9901 30.5033 12.0155 30.5288 12.045C30.5616 12.0662 30.5861 12.0802 30.6022 12.0869C30.6262 12.093 30.6479 12.068 30.6675 12.0118C30.7304 12.0153 30.7479 12.0414 30.72 12.0904C30.6998 12.1388 30.6864 12.171 30.6797 12.1872C30.7566 12.1661 30.82 12.1774 30.8701 12.2209C30.9273 12.256 31.0111 12.2776 31.1213 12.2855C31.163 12.3218 31.1768 12.3521 31.1629 12.3766C31.1489 12.4011 31.14 12.4409 31.136 12.4959C31.4225 12.5621 31.6113 12.6859 31.7023 12.8675C31.7928 13.0413 31.814 13.2317 31.7658 13.4387C31.7171 13.6379 31.613 13.8292 31.4535 14.0127C31.3013 14.1878 31.1258 14.3097 30.9269 14.3784C30.6897 14.4576 30.4681 14.5358 30.262 14.6129C30.0637 14.6894 29.8699 14.7734 29.6805 14.865C29.4989 14.956 29.3262 15.062 29.1624 15.1831C29.0058 15.2959 28.8701 15.4268 28.7552 15.5758C28.5413 15.6534 28.3486 15.753 28.177 15.8747C28.0131 15.9958 27.8579 16.128 27.7113 16.2714C27.5725 16.4142 27.4381 16.5646 27.3082 16.7225C27.1777 16.8726 27.0473 17.0227 26.9168 17.1728C26.926 17.3052 26.9098 17.4082 26.8679 17.4816C26.826 17.555 26.7803 17.6287 26.7306 17.7027C26.7566 17.8496 26.7967 17.9761 26.8511 18.0819C26.9128 18.1794 26.9747 18.2808 27.0369 18.3861C27.6734 18.5295 28.3402 18.6004 29.037 18.5986C29.7412 18.5886 30.4364 18.5634 31.1228 18.5233C31.1995 18.6119 31.2837 18.6961 31.3754 18.7758C31.4744 18.8472 31.5619 18.9233 31.6381 19.0041C31.722 19.0844 31.7875 19.1816 31.8347 19.2958C31.8891 19.4016 31.91 19.5333 31.8975 19.6908C31.7743 19.8326 31.6391 19.9712 31.492 20.1068C31.3443 20.2346 31.1966 20.3624 31.0489 20.4902C30.9793 20.5029 30.8936 20.5089 30.7917 20.5082C30.6976 20.507 30.5961 20.5102 30.4869 20.5178C30.3856 20.5249 30.281 20.54 30.1729 20.5632C30.0722 20.5781 29.9764 20.6083 29.8856 20.6538C29.3935 20.6726 28.8867 20.6493 28.3653 20.5839C27.8433 20.5108 27.3589 20.4154 26.9121 20.2979C26.8193 20.2026 26.7231 20.1153 26.6236 20.0361C26.5236 19.9491 26.3942 19.8916 26.2356 19.8635ZM33.3199 19.3682C33.0819 19.2125 32.8799 19.0113 32.7138 18.7644C32.5555 18.5171 32.4235 18.2522 32.3176 17.9698C32.2195 17.6869 32.1442 17.3946 32.0918 17.0928C32.0466 16.7827 32.0181 16.4871 32.0063 16.206C32.0617 15.9907 32.1341 15.7937 32.2234 15.6152C32.3122 15.4289 32.4135 15.2534 32.5273 15.0888C32.6405 14.9164 32.7585 14.7555 32.8812 14.6059C33.0111 14.448 33.1371 14.2904 33.2593 14.1331C33.306 14.1298 33.3497 14.1385 33.3903 14.1592C33.4155 14.0712 33.4571 13.9939 33.5151 13.9272C33.573 13.8605 33.6355 13.8013 33.7023 13.7497C33.7687 13.6902 33.8353 13.6346 33.9021 13.583C33.9685 13.5235 34.0226 13.4571 34.0644 13.3837C34.256 13.3233 34.4228 13.2451 34.5649 13.149C34.7148 13.0523 34.8563 12.9485 34.9895 12.8373C35.1227 12.7262 35.2603 12.6226 35.4024 12.5265C35.5445 12.4305 35.7113 12.3522 35.9029 12.2918C35.9676 12.209 36.0487 12.1368 36.1462 12.0751C36.2515 12.0129 36.3531 11.9549 36.4512 11.9011C36.557 11.8467 36.6548 11.7889 36.7445 11.7278C36.842 11.6662 36.9187 11.5864 36.9745 11.4886C37.0256 11.5476 37.0935 11.5664 37.1781 11.5448C37.2622 11.5154 37.3385 11.4866 37.407 11.4583C37.4532 11.4473 37.4927 11.4523 37.5255 11.4735C37.5583 11.4947 37.5875 11.5201 37.6131 11.5496C37.6459 11.5708 37.6704 11.5848 37.6865 11.5915C37.7104 11.5977 37.7322 11.5726 37.7517 11.5164C37.8146 11.5199 37.8321 11.5461 37.8042 11.595C37.7841 11.6434 37.7707 11.6757 37.764 11.6918C37.8408 11.6708 37.9043 11.682 37.9543 11.7255C38.0116 11.7606 38.0953 11.7822 38.2055 11.7901C38.2472 11.8264 38.2611 11.8567 38.2471 11.8812C38.2332 11.9057 38.2242 11.9455 38.2202 12.0006C38.5068 12.0667 38.6956 12.1905 38.7866 12.3721C38.8771 12.5459 38.8982 12.7363 38.85 12.9433C38.8013 13.1425 38.6972 13.3338 38.5378 13.5173C38.3855 13.6924 38.21 13.8143 38.0112 13.883C37.774 13.9623 37.5523 14.0404 37.3463 14.1175C37.148 14.194 36.9542 14.278 36.7648 14.3696C36.5832 14.4606 36.4105 14.5667 36.2466 14.6878C36.0901 14.8005 35.9543 14.9314 35.8394 15.0804C35.6256 15.158 35.4328 15.2576 35.2612 15.3793C35.0974 15.5004 34.9422 15.6326 34.7956 15.776C34.6568 15.9188 34.5224 16.0692 34.3925 16.2271C34.262 16.3772 34.1315 16.5273 34.001 16.6774C34.0103 16.8099 33.994 16.9128 33.9522 16.9862C33.9103 17.0596 33.8646 17.1333 33.8149 17.2073C33.8408 17.3543 33.881 17.4807 33.9354 17.5865C33.997 17.684 34.059 17.7854 34.1211 17.8907C34.7577 18.0341 35.4244 18.105 36.1213 18.1033C36.8254 18.0932 37.5207 18.0681 38.2071 18.0279C38.2837 18.1165 38.3679 18.2007 38.4597 18.2804C38.5586 18.3518 38.6462 18.4279 38.7223 18.5087C38.8063 18.589 38.8718 18.6862 38.9189 18.8004C38.9733 18.9063 38.9943 19.0379 38.9818 19.1954C38.8586 19.3372 38.7234 19.4759 38.5762 19.6115C38.4285 19.7393 38.2809 19.8671 38.1332 19.9949C38.0636 20.0076 37.9778 20.0136 37.876 20.0129C37.7819 20.0116 37.6803 20.0148 37.5712 20.0224C37.4699 20.0295 37.3652 20.0447 37.2572 20.0679C37.1564 20.0827 37.0607 20.1129 36.9699 20.1584C36.4778 20.1772 35.971 20.1539 35.4496 20.0885C34.9276 20.0154 34.4432 19.9201 33.9964 19.8025C33.9036 19.7072 33.8074 19.6199 33.7079 19.5407C33.6078 19.4538 33.4785 19.3962 33.3199 19.3682ZM44.5229 19.9827C44.6659 20.0119 44.7593 20.0602 44.8032 20.1276C44.8471 20.195 44.8642 20.2721 44.8546 20.3589C44.845 20.4457 44.812 20.5342 44.7557 20.6243C44.7077 20.7216 44.6627 20.807 44.6209 20.8804C44.5419 20.8703 44.4728 20.8908 44.4137 20.9419C44.3624 20.9925 44.3156 21.0505 44.2732 21.1162C44.0528 21.1003 43.8382 21.1113 43.6294 21.1494C43.4206 21.1875 43.2274 21.2245 43.0498 21.2605C43.0186 21.2626 43.0042 21.2793 43.0063 21.3105C43.0168 21.3489 43.0107 21.3728 42.9879 21.3823C42.7486 21.3207 42.5087 21.3061 42.2682 21.3386C42.0283 21.3789 41.7855 21.435 41.5399 21.507C41.2943 21.579 41.0412 21.6554 40.7806 21.7363C40.5205 21.825 40.2583 21.8825 39.9939 21.9088C39.8876 21.8457 39.7995 21.7618 39.7296 21.6571C39.6601 21.5601 39.6016 21.4507 39.5539 21.3287C39.4989 21.2151 39.4552 21.0928 39.4225 20.962C39.3826 20.8395 39.343 20.7208 39.3036 20.6061C39.2977 20.5204 39.3122 20.4489 39.3474 20.3916C39.3753 20.3427 39.4074 20.2973 39.4436 20.2557C39.5211 19.796 39.622 19.3347 39.7462 18.8718C39.8778 18.4005 39.9828 17.9429 40.0614 17.4988C40.136 17.1098 40.2086 16.7484 40.2793 16.4146C40.3571 16.0724 40.4283 15.7463 40.4928 15.4364C40.5567 15.1186 40.6209 14.8048 40.6854 14.4948C40.7499 14.1849 40.8096 13.8635 40.8647 13.5308C40.9163 13.2609 40.9648 13.003 41.0103 12.757C41.0635 12.5105 41.109 12.2645 41.1466 12.0191C41.1921 11.7732 41.2331 11.5197 41.2697 11.2587C41.3135 10.9894 41.3515 10.693 41.3837 10.3697C41.361 10.2694 41.3481 10.196 41.3448 10.1492C41.3488 10.0941 41.345 10.0395 41.3334 9.98553C41.3007 9.85468 41.251 9.76026 41.1843 9.70227C41.2456 9.68232 41.2849 9.62867 41.3023 9.5413C41.3275 9.4534 41.327 9.39078 41.3009 9.35344C41.4229 9.30576 41.5537 9.27311 41.6935 9.25551C41.8405 9.22957 41.9838 9.2078 42.1236 9.19019C42.2627 9.1648 42.3941 9.13994 42.5178 9.11564C42.6408 9.08354 42.7472 9.03694 42.8369 8.97585C43.2255 8.93301 43.6297 8.88909 44.0494 8.84407C44.4686 8.79126 44.8569 8.74453 45.2143 8.70387C45.3496 8.73358 45.5071 8.74606 45.6869 8.74132C45.8661 8.72878 46.0423 8.72821 46.2154 8.7396C46.3885 8.75099 46.5479 8.79075 46.6936 8.85888C46.8388 8.91921 46.9452 9.04099 47.0128 9.22422C47.1308 9.23163 47.2148 9.25708 47.2649 9.30057C47.3222 9.33572 47.361 9.38783 47.3815 9.45688C47.4093 9.51759 47.422 9.58719 47.4196 9.66567C47.4167 9.73635 47.418 9.81066 47.4235 9.8886C47.2981 9.99918 47.136 10.0888 46.9371 10.1576C46.7461 10.2257 46.5348 10.2836 46.3032 10.3311C46.0715 10.3786 45.8277 10.4192 45.5716 10.4527C45.3155 10.4863 45.0669 10.5154 44.8259 10.5401C44.5921 10.5565 44.3702 10.5759 44.1603 10.5984C43.9583 10.6204 43.7876 10.6441 43.6484 10.6695C43.5404 10.6927 43.4363 10.7156 43.3361 10.7383C43.2431 10.7526 43.1543 10.7706 43.0696 10.7922C43.0162 11.1483 42.9567 11.5284 42.8909 11.9324C42.8247 12.3286 42.7548 12.729 42.6812 13.1336C42.615 13.5298 42.5481 13.9182 42.4808 14.2988C42.4134 14.6794 42.3517 15.0283 42.2955 15.3455C42.2389 15.6549 42.195 15.9243 42.1641 16.1535C42.1326 16.375 42.1159 16.5289 42.1141 16.6152C42.0228 16.9897 41.9436 17.3124 41.8764 17.5833C41.8164 17.846 41.7596 18.0967 41.7058 18.3354C41.6592 18.5657 41.6088 18.7964 41.5545 19.0273C41.5079 19.2577 41.4446 19.5284 41.3646 19.8394C41.4954 19.8067 41.6808 19.7703 41.9208 19.73C42.1223 19.7003 42.3862 19.6661 42.7124 19.6277C43.0465 19.5886 43.4707 19.5511 43.985 19.5152C44.0061 19.592 44.045 19.6441 44.1017 19.6715C44.159 19.7066 44.2157 19.734 44.2719 19.7536C44.3359 19.7726 44.3923 19.796 44.4413 19.824C44.4902 19.8519 44.5174 19.9048 44.5229 19.9827ZM51.0901 11.2533C51.1412 11.3124 51.1934 11.3871 51.2467 11.4773C51.3 11.5676 51.3099 11.653 51.2764 11.7337C51.4265 11.8642 51.5476 12.028 51.6397 12.2252C51.7396 12.4218 51.7473 12.6445 51.6629 12.8932C51.488 12.968 51.3318 13.0299 51.1942 13.0786C51.0639 13.1191 50.9225 13.1681 50.7699 13.2258C50.4748 13.2621 50.2886 13.2869 50.2112 13.3001C50.1416 13.3128 50.0876 13.3244 50.0492 13.3349C50.0107 13.3454 49.9495 13.3654 49.8654 13.3948C49.7886 13.4158 49.6151 13.4553 49.3451 13.5134C49.3429 13.4822 49.3376 13.463 49.3293 13.4557C49.3287 13.448 49.3209 13.4485 49.3059 13.4574C49.2987 13.4657 49.2875 13.4743 49.2725 13.4832C49.2652 13.4916 49.2496 13.4926 49.2257 13.4865C49.0737 13.5519 48.9208 13.6057 48.7671 13.6478C48.6129 13.6821 48.4586 13.7163 48.3044 13.7506C48.1502 13.7849 47.9965 13.827 47.8433 13.8768C47.6896 13.9189 47.5337 13.9846 47.3755 14.074C47.3938 14.1119 47.4193 14.1414 47.4521 14.1626C47.4844 14.176 47.5169 14.1933 47.5498 14.2145C47.5898 14.2274 47.6262 14.2444 47.6591 14.2656C47.6919 14.2868 47.7174 14.3164 47.7357 14.3543C47.9578 14.3935 48.1433 14.4706 48.2923 14.5855C48.4485 14.6921 48.5906 14.8192 48.7184 14.9669C48.8456 15.1068 48.9693 15.2509 49.0893 15.3991C49.2093 15.5473 49.3477 15.6786 49.5045 15.793C49.5077 15.8397 49.5219 15.874 49.5469 15.8957C49.5719 15.9175 49.5788 15.9601 49.5676 16.0235C49.7204 16.1929 49.8445 16.3996 49.9399 16.6436C50.0352 16.8875 50.071 17.1748 50.0471 17.5054C49.9632 17.7619 49.8574 17.9846 49.7297 18.1737C49.6014 18.355 49.4308 18.547 49.2178 18.7499C49.044 18.8403 48.873 18.9149 48.7049 18.9737C48.5361 19.0246 48.3885 19.0976 48.262 19.1926C48.197 19.158 48.1374 19.1465 48.0834 19.1581C48.0366 19.1614 47.9932 19.1566 47.9532 19.1437C47.7794 19.2342 47.5922 19.3021 47.3918 19.3474C47.1908 19.385 46.9735 19.3571 46.7398 19.2638C46.5767 19.283 46.4089 19.2909 46.2363 19.2873C46.0711 19.2753 45.9164 19.247 45.7723 19.2022C45.6282 19.1575 45.5022 19.0919 45.3943 19.0055C45.2937 18.9107 45.2227 18.7904 45.1811 18.6445C44.9915 18.5089 44.8618 18.334 44.792 18.1196C44.7216 17.8974 44.7337 17.6772 44.8281 17.4592C44.8737 17.4403 44.908 17.4262 44.9308 17.4168C44.9609 17.399 44.998 17.369 45.042 17.3267C45.4578 17.3368 45.8811 17.3425 46.3119 17.3437C46.75 17.3365 47.2112 17.269 47.6957 17.1412C47.7069 17.0777 47.7312 17.033 47.7685 17.0069C47.8131 16.9724 47.8618 16.9416 47.9148 16.9144C47.9677 16.8872 48.0167 16.8603 48.0618 16.8336C48.107 16.807 48.1396 16.7695 48.1597 16.7211C48.1564 16.6743 48.1425 16.644 48.1181 16.63C48.0931 16.6083 48.0683 16.5904 48.0438 16.5765C48.0188 16.5547 47.9938 16.533 47.9688 16.5112C47.9516 16.4889 47.945 16.4502 47.9489 16.3951C47.8476 16.4022 47.7244 16.3756 47.5792 16.3153C47.4418 16.2544 47.3311 16.1838 47.2472 16.1035C46.8999 16.0652 46.5488 15.9722 46.1939 15.8248C45.8468 15.6767 45.5083 15.5399 45.1784 15.4141C45.1173 15.3244 45.049 15.2431 44.9734 15.17C44.9051 15.0887 44.8367 15.0073 44.7684 14.9259C44.6995 14.8368 44.6384 14.7471 44.5851 14.6568C44.5396 14.566 44.5091 14.4663 44.4937 14.3578C44.4928 14.2325 44.4924 14.1151 44.4926 14.0054C44.4922 13.888 44.4921 13.7744 44.4922 13.6648C44.4919 13.5473 44.4954 13.4296 44.5028 13.3116C44.5097 13.1858 44.5238 13.0517 44.5451 12.9092C44.8481 12.426 45.2381 12.0111 45.7151 11.6644C46.1993 11.3095 46.6993 11.0122 47.2151 10.7725C47.3068 10.8522 47.3991 10.9397 47.4919 11.0351C47.5842 11.1226 47.68 11.2059 47.7796 11.2851C47.8791 11.3643 47.9817 11.4315 48.0873 11.4868C48.2008 11.5415 48.3241 11.5681 48.4571 11.5667C48.5412 11.5373 48.6064 11.5171 48.6526 11.506C48.6988 11.495 48.7414 11.4881 48.7803 11.4853C48.8193 11.4826 48.87 11.4791 48.9323 11.4747C48.9947 11.4703 49.0837 11.4563 49.1996 11.4325C49.3154 11.4088 49.4278 11.3931 49.5369 11.3854C49.646 11.3778 49.7471 11.3668 49.8401 11.3525C50.0338 11.3233 50.173 11.2979 50.2576 11.2763C50.3501 11.2542 50.4116 11.2381 50.4422 11.2282C50.4729 11.2182 50.4882 11.2132 50.4882 11.2132C50.4876 11.2054 50.4993 11.2046 50.5232 11.2107C50.5544 11.2086 50.6095 11.2125 50.6885 11.2227C50.7676 11.2328 50.9014 11.243 51.0901 11.2533ZM55.1084 8.57589C55.2108 8.58439 55.2871 8.61038 55.3371 8.65388C55.3866 8.68957 55.4216 8.74195 55.442 8.811C55.462 8.87226 55.4708 8.94213 55.4685 9.0206C55.4656 9.09129 55.4668 9.1656 55.4723 9.24354C55.4167 9.56852 55.3569 9.9447 55.2928 10.3721C55.2281 10.7917 55.1537 11.2394 55.0695 11.7152C54.9926 12.1826 54.9083 12.6584 54.8169 13.1425C54.7249 13.6188 54.6385 14.0634 54.5577 14.4763C54.4848 14.8887 54.4236 15.2454 54.3741 15.5464C54.3247 15.8475 54.2999 16.0528 54.2997 16.1625C54.195 16.5692 54.1094 16.912 54.0427 17.1907C53.9839 17.469 53.9242 17.7355 53.8637 17.9903C53.8104 18.2368 53.7541 18.4953 53.6947 18.7657C53.6347 19.0284 53.555 19.3433 53.4553 19.7105C53.4463 19.8051 53.4139 19.9014 53.358 19.9993C53.3106 20.1044 53.2623 20.1978 53.2132 20.2796C53.1342 20.2694 53.0651 20.2899 53.006 20.341C52.9547 20.3916 52.9079 20.4497 52.8655 20.5153C52.6451 20.4994 52.4305 20.5105 52.2217 20.5486C52.0129 20.5867 51.8197 20.6237 51.6421 20.6596C51.6109 20.6618 51.5965 20.6785 51.5986 20.7096C51.6091 20.7481 51.603 20.772 51.5802 20.7814C51.3409 20.7198 51.101 20.7053 50.8605 20.7378C50.6206 20.778 50.3778 20.8342 50.1322 20.9062C49.8866 20.9782 49.6335 21.0546 49.3729 21.1355C49.1128 21.2241 48.8506 21.2816 48.5862 21.308C48.4799 21.2449 48.3918 21.161 48.3219 21.0563C48.2524 20.9593 48.1939 20.8498 48.1462 20.7279C48.0912 20.6142 48.0475 20.492 48.0148 20.3611C47.9749 20.2386 47.9353 20.12 47.8959 20.0053C47.8883 19.8962 47.9062 19.8166 47.9497 19.7666C47.9932 19.7165 48.0364 19.6626 48.0794 19.6048C48.2581 19.5845 48.4207 19.5574 48.5671 19.5237C48.7063 19.4983 48.8413 19.4693 48.9722 19.4366C49.1036 19.4118 49.2386 19.3828 49.3773 19.3496C49.5087 19.3247 49.6562 19.3066 49.8198 19.2951C49.8644 19.2607 49.9602 19.2305 50.1072 19.2046C50.2458 19.1714 50.4081 19.1404 50.5941 19.1118C50.78 19.0831 50.978 19.0575 51.1878 19.035C51.3977 19.0125 51.5962 18.9947 51.7832 18.9816C51.8539 18.6478 51.9328 18.3211 52.0201 18.0018C52.1069 17.6746 52.1823 17.3522 52.2462 17.0344C52.313 16.646 52.3859 16.2885 52.4649 15.9619C52.5511 15.6269 52.6303 15.3042 52.7026 14.9937C52.7821 14.6749 52.8502 14.3608 52.9069 14.0514C52.9714 13.7414 53.0153 13.4173 53.0386 13.0789C53.0969 12.7929 53.1532 12.5344 53.2076 12.3035C53.2614 12.0648 53.3115 11.8303 53.3581 11.5999C53.4041 11.3617 53.4451 11.1082 53.4811 10.8394C53.5249 10.5701 53.5658 10.2579 53.6036 9.90284C53.3052 9.89238 53.0239 9.90031 52.7594 9.92663C52.4945 9.94516 52.2848 9.97156 52.1306 10.0058C51.7609 10.0943 51.4766 10.173 51.2778 10.2417C51.0784 10.3026 50.9412 10.3553 50.8659 10.3997C50.7329 10.4012 50.6297 10.381 50.5563 10.3391C50.4745 10.29 50.4075 10.2281 50.3553 10.1535C50.3031 10.0788 50.2582 9.99581 50.2204 9.90447C50.1749 9.81367 50.1253 9.71925 50.0714 9.6212C50.0899 9.54943 50.0909 9.45146 50.0744 9.32731C50.0495 9.19591 50.0037 9.10122 49.937 9.04323C49.9827 9.02437 50.0181 8.97099 50.0433 8.88308C50.0601 8.78793 50.0555 8.72168 50.0294 8.68435C50.1436 8.63721 50.2627 8.60538 50.3869 8.58887C50.5105 8.56456 50.6344 8.54415 50.7585 8.52764C50.8821 8.50333 50.9979 8.47957 51.106 8.45635C51.2212 8.4248 51.3198 8.37875 51.4017 8.3182C51.7436 8.27863 52.0968 8.23435 52.4615 8.18536C52.8339 8.13582 53.1833 8.09181 53.5095 8.05334C53.6291 8.08413 53.7671 8.09797 53.9236 8.09487C54.0794 8.08397 54.2361 8.08476 54.3936 8.09724C54.5511 8.10972 54.6947 8.14667 54.8243 8.20809C54.9539 8.26951 55.0486 8.39211 55.1084 8.57589ZM61.0924 18.0487C61.0257 17.9907 60.9737 17.92 60.9366 17.8364C60.9072 17.7523 60.8399 17.6865 60.7348 17.6391C60.7111 17.5233 60.6784 17.3924 60.6369 17.2465C60.6026 17.0923 60.5644 16.9383 60.5224 16.7846C60.4875 16.6226 60.4569 16.4642 60.4304 16.3094C60.4111 16.1463 60.4086 15.9977 60.4227 15.8636C60.4334 15.7923 60.4521 15.7244 60.4789 15.6599C60.5136 15.5948 60.5445 15.5339 60.5719 15.4772C60.6065 15.4121 60.6294 15.3479 60.6407 15.2844C60.6597 15.2205 60.6592 15.1578 60.6393 15.0966C60.6855 15.0855 60.7111 15.0602 60.7162 15.0207C60.7285 14.9729 60.7664 14.9546 60.8298 14.9658C60.8724 14.7905 60.9197 14.6267 60.9717 14.4742C61.0237 14.3218 61.0798 14.173 61.1401 14.0278C61.2005 13.8826 61.2608 13.7374 61.3211 13.5922C61.3887 13.4387 61.4474 13.2701 61.4972 13.0865C61.356 12.9711 61.2493 12.8454 61.1772 12.7095C61.1123 12.5652 61.0591 12.4202 61.0175 12.2743C60.976 12.1284 60.9423 11.9819 60.9163 11.8349C60.8898 11.6802 60.8478 11.5265 60.7901 11.3739C60.8738 11.227 60.9789 11.1061 61.1054 11.0111C61.2314 10.9084 61.3704 10.8242 61.5224 10.7588C61.6817 10.685 61.8538 10.626 62.0387 10.5817C62.223 10.5297 62.4187 10.4729 62.6259 10.4114C62.9918 10.2684 63.3206 10.1553 63.6124 10.0723C63.9037 9.98141 64.1882 9.90669 64.4661 9.8481C64.7434 9.78172 65.0329 9.72232 65.3347 9.66989C65.6359 9.60967 65.9828 9.53059 66.3753 9.43266C66.3848 9.45549 66.3973 9.46637 66.4129 9.46528C66.4362 9.46364 66.4635 9.46173 66.4947 9.45955C66.5219 9.51247 66.5666 9.53675 66.629 9.53239C66.6274 9.50901 66.6221 9.4898 66.6132 9.47476C66.6116 9.45138 66.6102 9.4319 66.6091 9.41631C66.6247 9.41522 66.6445 9.41775 66.6684 9.42391C66.7001 9.42953 66.724 9.43568 66.7402 9.44239C66.7641 9.44855 66.7836 9.44718 66.7986 9.4383C66.8131 9.42162 66.8151 9.39407 66.8046 9.35565C66.9096 9.51277 67.0399 9.64071 67.1956 9.73947C67.3508 9.83043 67.5207 9.90861 67.7054 9.97401C67.7181 10.0436 67.7216 10.0943 67.716 10.126C67.7182 10.1572 67.7165 10.1886 67.7109 10.2203C67.7047 10.2442 67.703 10.2757 67.7057 10.3147C67.7079 10.3458 67.719 10.392 67.7389 10.4533C67.6289 10.6725 67.4962 10.8462 67.3407 10.9745C67.193 11.1023 67.0317 11.2037 66.8568 11.2786C66.6819 11.3534 66.4943 11.4136 66.2938 11.4589C66.1012 11.5037 65.901 11.5529 65.6933 11.6066C65.4928 11.652 65.2896 11.7132 65.0835 11.7902C64.8774 11.8673 64.6775 11.9753 64.4835 12.1141C64.4196 12.0951 64.3606 12.0914 64.3066 12.103C64.2598 12.1063 64.2097 12.1176 64.1562 12.137C64.1028 12.1564 64.0415 12.1764 63.9725 12.1969C63.9112 12.2168 63.8333 12.2222 63.7386 12.2132C63.6801 12.2721 63.6088 12.3163 63.5247 12.3456C63.4484 12.3745 63.3682 12.4036 63.2841 12.4329C63.3291 12.5159 63.3507 12.6006 63.3489 12.6869C63.3549 12.7726 63.3717 12.8458 63.3995 12.9065C63.729 12.9148 64.0914 12.8895 64.4867 12.8305C64.8814 12.7637 65.2692 12.7092 65.65 12.6669C65.6605 12.7053 65.6585 12.7329 65.644 12.7496C65.6295 12.7662 65.6236 12.7941 65.6263 12.833C65.6997 12.8749 65.7701 12.9287 65.8373 12.9945C65.9046 13.0603 65.9718 13.1261 66.0391 13.1918C66.1136 13.2493 66.1875 13.2989 66.2609 13.3408C66.3338 13.3748 66.4167 13.3847 66.5097 13.3704C66.5541 13.4456 66.5871 13.5255 66.6087 13.6101C66.6303 13.6948 66.6249 13.7852 66.5924 13.8815C66.4437 13.9937 66.299 14.1095 66.1586 14.229C66.0176 14.3407 65.8683 14.4451 65.7106 14.5423C65.5607 14.6389 65.3942 14.721 65.2109 14.7886C65.0277 14.8563 64.8267 14.8938 64.608 14.9013C64.569 14.904 64.5339 14.9065 64.5028 14.9087C64.4794 14.9103 64.4471 14.8969 64.406 14.8684C64.3308 14.9128 64.2266 14.9358 64.0936 14.9373C63.9678 14.9304 63.8634 14.9494 63.7804 14.9944C63.6686 14.9631 63.5386 14.9526 63.3905 14.9629C63.2503 14.9727 63.1242 14.962 63.0124 14.9306C62.8863 15.1431 62.7688 15.3667 62.6599 15.6014C62.5504 15.8283 62.4577 16.0698 62.3816 16.3257C62.7044 16.3501 62.9707 16.3511 63.1806 16.3286C63.3905 16.3061 63.5881 16.2766 63.7735 16.2401C63.9589 16.2036 64.1483 16.1669 64.3415 16.1299C64.5425 16.0924 64.7874 16.0674 65.0763 16.055C65.2646 15.9479 65.4824 15.87 65.7296 15.8214C65.984 15.7644 66.2179 15.6933 66.4312 15.6079C66.5108 15.6258 66.5803 15.6679 66.6398 15.7343C66.6987 15.7928 66.754 15.8555 66.8056 15.9224C66.8646 15.9809 66.9229 16.0316 66.9807 16.0746C67.0386 16.1175 67.1098 16.1282 67.1944 16.1066C67.2361 16.1429 67.2628 16.188 67.2744 16.242C67.2938 16.2955 67.309 16.3453 67.3201 16.3915C67.3389 16.4372 67.3612 16.4748 67.3867 16.5043C67.4117 16.5261 67.4551 16.5309 67.5169 16.5187C67.3901 16.833 67.2389 17.0785 67.0633 17.2553C66.8955 17.4315 66.698 17.5745 66.4707 17.6844C66.2507 17.7859 65.9981 17.8701 65.713 17.9371C65.4352 17.9957 65.1231 18.0684 64.7768 18.1553C64.6921 18.1768 64.6181 18.182 64.5547 18.1708C64.4985 18.1512 64.4392 18.1436 64.3768 18.148C64.1614 18.2022 63.903 18.2594 63.6018 18.3197C63.3084 18.3793 63.0094 18.4159 62.7049 18.4294C62.4004 18.4428 62.1054 18.4243 61.82 18.3738C61.5345 18.3232 61.292 18.2149 61.0924 18.0487ZM69.1253 18.0156C68.8955 17.9769 68.7138 17.8995 68.5804 17.7836C68.4542 17.6592 68.354 17.5135 68.2797 17.3464C68.2126 17.171 68.16 16.9789 68.1219 16.7701C68.0916 16.5608 68.0568 16.3439 68.0177 16.1195C68.0417 16.016 68.0747 15.9276 68.1166 15.8542C68.1662 15.7802 68.1828 15.6812 68.1663 15.557C68.2346 15.3016 68.2956 15.0546 68.3494 14.8159C68.4032 14.5772 68.4331 14.3323 68.439 14.0813C68.4809 14.0079 68.5243 13.9578 68.5695 13.9312C68.6008 13.4826 68.5767 13.0261 68.4972 12.5618C68.4178 12.0975 68.3096 11.6704 68.1727 11.2805C68.1745 11.1943 68.1818 11.1311 68.1947 11.091C68.207 11.0432 68.2043 11.0042 68.1865 10.9741C68.166 10.9051 68.1869 10.8684 68.2493 10.864C68.3116 10.8597 68.374 10.8553 68.4363 10.8509C68.4265 10.7107 68.3897 10.5762 68.3259 10.4475C68.2693 10.3105 68.2114 10.154 68.1521 9.97802C68.2046 9.83337 68.2379 9.69399 68.2521 9.55987C68.2662 9.42574 68.3006 9.30195 68.3553 9.18848C68.6101 9.24897 68.8619 9.32143 69.1106 9.40585C69.3593 9.49027 69.6041 9.57497 69.8449 9.65993C70.0853 9.73711 70.3217 9.81455 70.5543 9.89227C70.7863 9.96219 71.0133 10.0168 71.2353 10.0561C71.5874 10.2743 71.9472 10.4919 72.3148 10.709C72.6896 10.9177 73.0313 11.1562 73.3398 11.4243C73.6556 11.6842 73.9237 11.9905 74.1442 12.3431C74.3646 12.6958 74.5079 13.1204 74.5739 13.617C74.5616 13.6649 74.5526 13.7047 74.547 13.7364C74.5414 13.7681 74.5358 13.7998 74.5302 13.8316C74.5246 13.8633 74.5231 13.8986 74.5258 13.9376C74.5286 13.9765 74.5324 14.0311 74.5373 14.1012C74.291 14.6119 73.9653 15.0497 73.5601 15.4148C73.1549 15.7799 72.708 16.1087 72.2194 16.4013C71.7308 16.694 71.2175 16.9687 70.6794 17.2256C70.1486 17.4742 69.6305 17.7375 69.1253 18.0156ZM69.8074 11.3072C69.7373 11.3121 69.6877 11.3312 69.6587 11.3646C69.7768 11.7087 69.8701 12.0351 69.9386 12.3435C70.0072 12.652 70.0524 12.9621 70.0742 13.2738C70.1038 13.585 70.1105 13.9057 70.0944 14.2357C70.0784 14.5658 70.0486 14.9242 70.0052 15.311C70.1059 15.2961 70.1942 15.2703 70.2699 15.2337C70.3457 15.1971 70.4212 15.1566 70.4964 15.1121C70.5794 15.0672 70.6627 15.0261 70.7462 14.989C70.8376 14.9512 70.9414 14.9244 71.0578 14.9084C71.0846 14.8439 71.1203 14.7944 71.1649 14.76C71.2167 14.7172 71.2607 14.675 71.297 14.6333C71.4864 14.5417 71.6755 14.4462 71.8643 14.3469C72.0532 14.2475 72.2256 14.1376 72.3816 14.017C72.5377 13.8965 72.677 13.7614 72.7997 13.6119C72.9224 13.4623 73.0198 13.2871 73.0919 13.0863C73.0213 12.9738 72.9366 12.8818 72.8376 12.8104C72.7459 12.7307 72.6467 12.6554 72.5399 12.5845C72.4404 12.5053 72.3409 12.4262 72.2413 12.347C72.1491 12.2594 72.0716 12.1591 72.0089 12.046C71.8831 12.0392 71.7718 12.0156 71.675 11.9754C71.5776 11.9274 71.4845 11.883 71.3955 11.8422C71.3059 11.7937 71.2089 11.7496 71.1043 11.7099C71.0075 11.6697 70.8926 11.6503 70.7596 11.6518C70.5493 11.5568 70.361 11.4956 70.1946 11.4681C70.0277 11.4328 69.8986 11.3791 69.8074 11.3072ZM74.1529 17.6758C74.0389 17.6133 73.9469 17.5297 73.8769 17.4249C73.7991 17.3207 73.7364 17.2076 73.6887 17.0857C73.6332 16.9643 73.5892 16.8381 73.5565 16.7073C73.5155 16.5692 73.4751 16.4388 73.4352 16.3163C73.4276 16.2072 73.4455 16.1277 73.489 16.0776C73.5319 16.0198 73.5791 15.9656 73.6303 15.915C73.8168 15.8941 73.9833 15.8668 74.1298 15.8331C74.2762 15.7994 74.4187 15.7659 74.5574 15.7327C74.696 15.6995 74.835 15.6702 74.9741 15.6448C75.1128 15.6117 75.2639 15.5893 75.4276 15.5779C75.5276 15.3281 75.6207 15.0906 75.7067 14.8653C75.7922 14.6322 75.8746 14.4111 75.954 14.2019C75.9871 14.0038 76.0331 13.8204 76.0918 13.6519C76.1577 13.475 76.2206 13.31 76.2803 13.157C76.3396 12.9963 76.3913 12.8399 76.4355 12.688C76.4792 12.5284 76.5028 12.3622 76.5064 12.1897C76.5808 11.9104 76.6452 11.6553 76.6996 11.4244C76.7612 11.1851 76.8003 10.9043 76.8169 10.5821C76.524 10.6496 76.2896 10.7129 76.1136 10.7722C75.9371 10.8237 75.8112 10.8717 75.736 10.9161C75.5796 10.9192 75.4527 10.8968 75.3554 10.8488C75.2658 10.8002 75.191 10.7389 75.131 10.6647C75.071 10.5906 75.018 10.5043 74.972 10.4057C74.9259 10.3071 74.8718 10.2051 74.8096 10.0998C74.8359 10.0275 74.8366 9.92566 74.8117 9.79426C74.7863 9.65507 74.7325 9.55703 74.6502 9.50013C74.7114 9.48018 74.7547 9.42625 74.7798 9.33835C74.8045 9.24265 74.8035 9.17223 74.7768 9.12711C74.9066 9.07887 75.0452 9.04568 75.1928 9.02754C75.3398 9.00159 75.4831 8.97982 75.6229 8.96222C75.7698 8.93628 75.909 8.91088 76.0404 8.88603C76.1713 8.85338 76.2813 8.80262 76.3705 8.73373C76.7746 8.68981 77.1944 8.64479 77.6297 8.59868C78.0729 8.55203 78.4807 8.50394 78.8531 8.4544C78.9967 8.49135 79.1581 8.50356 79.3373 8.49103C79.5244 8.47795 79.7083 8.47683 79.8892 8.48768C80.0779 8.49798 80.2451 8.53719 80.3908 8.60532C80.5443 8.6729 80.6552 8.8022 80.7234 8.99322C80.8414 9.00063 80.9293 9.02581 80.9871 9.06876C81.0527 9.11116 81.0958 9.16688 81.1163 9.23593C81.1362 9.29719 81.1453 9.37096 81.1435 9.45723C81.1489 9.53517 81.1544 9.6131 81.1598 9.69104C81.0417 9.79328 80.8874 9.88238 80.6969 9.95836C80.5137 10.026 80.3104 10.0872 80.0871 10.142C79.8633 10.1889 79.6272 10.2289 79.3789 10.262C79.1379 10.2867 78.9007 10.3111 78.6674 10.3352C78.6465 10.5951 78.5976 10.904 78.5208 11.2618C78.4512 11.6112 78.3775 11.957 78.2997 12.2992C78.2212 12.6337 78.1523 12.9361 78.0929 13.2065C78.0407 13.4686 78.0213 13.6383 78.0345 13.7157C77.9691 13.9004 77.9135 14.057 77.8677 14.1855C77.8296 14.3135 77.7911 14.4337 77.7519 14.5461C77.7206 14.6579 77.6853 14.77 77.6462 14.8824C77.6143 14.9864 77.5719 15.1069 77.5188 15.2437L78.3137 15.1881C78.3353 15.2728 78.3744 15.3288 78.4312 15.3561C78.4879 15.3835 78.5483 15.4067 78.6123 15.4257C78.6762 15.4447 78.733 15.4721 78.7825 15.5078C78.8392 15.5351 78.8703 15.5878 78.8757 15.6657C79.0265 15.6943 79.1241 15.7462 79.1686 15.8214C79.213 15.8966 79.2268 15.9818 79.2099 16.077C79.2003 16.1638 79.1676 16.2562 79.1118 16.354C79.0638 16.4514 79.015 16.537 78.9653 16.611C78.8941 16.6003 78.8292 16.6244 78.7707 16.6833C78.7116 16.7344 78.657 16.7931 78.6068 16.8592C78.3786 16.8439 78.1562 16.8555 77.9396 16.8942C77.723 16.9328 77.5218 16.9664 77.3358 16.9951C77.2974 17.0056 77.2834 17.0301 77.294 17.0685C77.3039 17.0991 77.2978 17.1231 77.2755 17.1403C77.0284 17.0793 76.7769 17.0655 76.5208 17.0991C76.2725 17.1321 76.018 17.1891 75.7574 17.2699C75.504 17.3425 75.2431 17.4195 74.9747 17.5009C74.7068 17.5901 74.4329 17.6484 74.1529 17.6758ZM79.9129 10.5066C79.9008 10.4448 79.8813 10.3913 79.8547 10.3462C79.8353 10.2927 79.8117 10.2356 79.784 10.1749C79.7385 10.0841 79.6963 9.98525 79.6575 9.87832C79.6187 9.77139 79.5941 9.64389 79.5838 9.49581C79.5939 9.41679 79.6096 9.36087 79.6308 9.32806C79.6514 9.28746 79.6726 9.25465 79.6944 9.22964L79.7264 9.01594L79.9018 9.00368C79.9647 9.00711 80.0273 9.00665 80.0897 9.00229C80.1598 8.99739 80.226 8.99275 80.2884 8.98839C80.5845 8.96769 80.8877 8.93474 81.1978 8.88956C81.5079 8.84438 81.8255 8.79476 82.1506 8.7407C82.5059 8.66887 82.8892 8.60682 83.3006 8.55456C83.3336 8.46611 83.3532 8.40992 83.3593 8.38599C83.3733 8.36152 83.3869 8.33315 83.4004 8.30089L83.524 8.22176C83.7027 8.20143 83.8291 8.21609 83.903 8.26574C83.9764 8.30759 84.0343 8.35054 84.0765 8.39458C84.278 8.36482 84.4832 8.3309 84.692 8.2928C84.9002 8.24691 85.1163 8.20048 85.3401 8.1535C85.6491 8.09273 85.962 8.0317 86.2788 7.97039C86.5956 7.90907 86.906 7.86779 87.21 7.84654C87.3425 7.83727 87.4674 7.83245 87.5849 7.83207C87.7023 7.83169 87.8161 7.83548 87.9263 7.84343L88.074 7.93884C88.109 7.99121 88.1515 8.03914 88.2015 8.08263C88.2515 8.12612 88.3094 8.16907 88.375 8.21147C88.4984 8.29682 88.6196 8.40582 88.7385 8.53847C88.8652 8.67058 88.9225 8.87411 88.9104 9.14906L88.8602 9.27005C88.8312 9.3034 88.7944 9.3373 88.7498 9.37175L88.6435 9.53189L88.5149 9.54089C88.437 9.54633 88.3791 9.55822 88.3412 9.57653C88.3028 9.58705 88.2571 9.6059 88.2042 9.6331C88.1741 9.65086 88.1401 9.6689 88.1023 9.68722C88.0638 9.69773 88.0218 9.71242 87.9761 9.73128C87.8898 9.72948 87.8233 9.73021 87.7766 9.73348C87.7298 9.73675 87.6753 9.74057 87.6129 9.74493C87.3791 9.76128 87.1269 9.79458 86.8563 9.84482C86.5857 9.89507 86.3232 9.94867 86.0687 10.0056C85.8833 10.0421 85.7057 10.078 85.5359 10.1134C85.3655 10.1409 85.2107 10.1674 85.0716 10.1928C85.0078 10.4009 84.9502 10.5851 84.8987 10.7453C84.8473 10.9055 84.7919 11.066 84.7327 11.2268C84.6735 11.3876 84.6184 11.552 84.5675 11.72C84.516 11.8802 84.4698 12.0597 84.4289 12.2583C84.3452 12.4051 84.2768 12.547 84.2237 12.6838C84.1701 12.8129 84.1295 12.9606 84.102 13.127C83.9944 13.2676 83.9187 13.4178 83.8751 13.5775C83.8392 13.7366 83.8056 13.8721 83.7743 13.984L83.7398 14.1626C83.689 14.221 83.6569 14.2663 83.6435 14.2985C83.6379 14.3303 83.6209 14.3667 83.5924 14.4078C83.5761 14.5108 83.5518 14.6104 83.5194 14.7066C83.5065 14.7467 83.4939 14.7906 83.4816 14.8385C83.4687 14.8785 83.467 14.91 83.4764 14.9328C83.4668 15.0196 83.4481 15.0875 83.4202 15.1365C83.4235 15.1832 83.4228 15.2303 83.4183 15.2776C83.4138 15.3249 83.4093 15.3722 83.4047 15.4195C83.393 15.4751 83.3848 15.5266 83.3803 15.5739C83.3752 15.6134 83.3819 15.6521 83.4002 15.69C83.4257 15.7195 83.4513 15.7491 83.4768 15.7786C83.5024 15.8082 83.5246 15.8458 83.5435 15.8914C83.5601 15.9059 83.5804 15.9163 83.6044 15.9224C83.6283 15.9286 83.6486 15.9389 83.6653 15.9534C83.7314 16.0036 83.7921 16.0307 83.8472 16.0347L83.9739 16.1668C84.0403 16.4441 84.0127 16.6653 83.8911 16.8304C83.7633 17.0195 83.5358 17.1254 83.2085 17.1483L83.044 17.1481C82.9856 17.0973 82.952 17.0645 82.9431 17.0494C82.8708 17.0231 82.8104 17 82.762 16.9798C82.7142 16.9675 82.6689 16.9354 82.6261 16.8836C82.6094 16.8691 82.5894 16.8627 82.566 16.8643C82.5421 16.8582 82.5218 16.8478 82.5051 16.8333C82.4255 16.8154 82.3613 16.7925 82.3123 16.7646L82.1788 16.7034C82.1812 16.625 82.1812 16.5701 82.1791 16.539C82.1107 16.4576 82.0535 16.3676 82.0075 16.269C81.9692 16.1699 81.9346 16.0666 81.9036 15.9591C81.8742 15.875 81.8454 15.7987 81.8171 15.7302C81.7966 15.6612 81.765 15.6007 81.7222 15.5489C81.6684 15.0044 81.6872 14.545 81.7785 14.1705C81.8692 13.7882 81.9725 13.4169 82.0883 13.0563C82.1531 12.8639 82.2138 12.6677 82.2703 12.468C82.3268 12.2683 82.3753 12.0652 82.4157 11.8587L82.5353 11.7211C82.5866 11.6706 82.6197 11.6408 82.6348 11.6319C82.6277 11.5306 82.6403 11.4318 82.6728 11.3356C82.7047 11.2316 82.7404 11.1272 82.7801 11.0227C82.8069 10.9581 82.8298 10.8939 82.8489 10.8299C82.8757 10.7654 82.8913 10.7095 82.8959 10.6621C82.8413 10.666 82.7909 10.6734 82.7447 10.6845C82.7057 10.6872 82.6632 10.6941 82.6169 10.7051C82.5173 10.7356 82.4207 10.7541 82.3271 10.7607C82.257 10.7656 82.2061 10.7652 82.1743 10.7596C82.1142 10.7951 82.0571 10.8187 82.0031 10.8303C81.9485 10.8341 81.894 10.8379 81.8394 10.8417L81.6991 10.8516L81.5589 10.8614C81.4653 10.8679 81.3921 10.8848 81.3392 10.912C81.2301 10.9196 81.1599 10.9245 81.1288 10.9267C81.0976 10.9289 81.0625 10.9313 81.0236 10.934L80.8833 10.9438L80.743 10.9537C80.6806 10.958 80.6102 10.959 80.5317 10.9567C80.4527 10.9465 80.3687 10.9211 80.2797 10.8803L80.1913 10.7925C80.1386 10.7101 80.0925 10.6663 80.0529 10.6612L79.9219 10.6352L79.9129 10.5066ZM87.5966 16.7358C87.4826 16.6732 87.3906 16.5896 87.3206 16.4849C87.2429 16.3807 87.1801 16.2676 87.1324 16.1456C87.077 16.0242 87.0329 15.898 87.0003 15.7672C86.9593 15.6291 86.9188 15.4988 86.8789 15.3763C86.8713 15.2671 86.8892 15.1876 86.9327 15.1375C86.9757 15.0797 87.0228 15.0255 87.0741 14.9749C87.2606 14.9541 87.427 14.9268 87.5735 14.893C87.7199 14.8593 87.8625 14.8258 88.0011 14.7926C88.1398 14.7595 88.2787 14.7302 88.4179 14.7048C88.5565 14.6716 88.7077 14.6493 88.8713 14.6378C88.9714 14.388 89.0644 14.1505 89.1504 13.9252C89.236 13.6921 89.3184 13.471 89.3977 13.2618C89.4309 13.0637 89.4768 12.8804 89.5355 12.7118C89.6014 12.5349 89.6643 12.3699 89.7241 12.217C89.7833 12.0562 89.835 11.8999 89.8792 11.748C89.9229 11.5883 89.9465 11.4222 89.9501 11.2496C90.0246 10.9703 90.089 10.7152 90.1433 10.4843C90.2049 10.245 90.244 9.96427 90.2606 9.64201C89.9677 9.70948 89.7333 9.77287 89.5573 9.83216C89.3808 9.88366 89.2549 9.93162 89.1797 9.97604C89.0233 9.97915 88.8964 9.95669 88.7991 9.90868C88.7096 9.86012 88.6348 9.79878 88.5748 9.72466C88.5148 9.65054 88.4617 9.56418 88.4157 9.46559C88.3696 9.367 88.3155 9.26506 88.2533 9.15977C88.2796 9.08745 88.2803 8.98559 88.2555 8.85419C88.2301 8.71499 88.1762 8.61695 88.0939 8.56005C88.1552 8.5401 88.1984 8.48618 88.2236 8.39827C88.2482 8.30257 88.2472 8.23215 88.2206 8.18703C88.3503 8.1388 88.489 8.10561 88.6365 8.08746C88.7835 8.06152 88.9268 8.03974 89.0666 8.02214C89.2136 7.9962 89.3528 7.9708 89.4842 7.94595C89.615 7.91331 89.725 7.86254 89.8142 7.79365C90.2184 7.74973 90.6381 7.70471 91.0735 7.65861C91.5166 7.61196 91.9244 7.56386 92.2968 7.51432C92.4404 7.55127 92.6018 7.56348 92.781 7.55095C92.9681 7.53787 93.1521 7.53675 93.3329 7.5476C93.5216 7.5579 93.6888 7.59711 93.8346 7.66524C93.9881 7.73282 94.0989 7.86212 94.1671 8.05314C94.2851 8.06055 94.373 8.08573 94.4308 8.12868C94.4965 8.17108 94.5395 8.22681 94.56 8.29586C94.5799 8.35712 94.589 8.43088 94.5872 8.51715C94.5927 8.59509 94.5981 8.67302 94.6036 8.75096C94.4854 8.8532 94.3311 8.94231 94.1406 9.01828C93.9574 9.08591 93.7541 9.14711 93.5308 9.20189C93.307 9.24886 93.071 9.28887 92.8227 9.32189C92.5816 9.34658 92.3444 9.37099 92.1112 9.39514C92.0902 9.65505 92.0413 9.9639 91.9645 10.3217C91.895 10.6711 91.8213 11.017 91.7434 11.3592C91.665 11.6936 91.596 11.996 91.5366 12.2664C91.4845 12.5285 91.465 12.6983 91.4783 12.7756C91.4129 12.9603 91.3572 13.117 91.3114 13.2455C91.2734 13.3734 91.2348 13.4936 91.1957 13.606C91.1643 13.7178 91.1291 13.8299 91.09 13.9423C91.0581 14.0463 91.0156 14.1668 90.9625 14.3036L91.7574 14.248C91.779 14.3327 91.8182 14.3887 91.8749 14.416C91.9316 14.4434 91.992 14.4666 92.056 14.4856C92.12 14.5046 92.1767 14.532 92.2262 14.5677C92.2829 14.595 92.314 14.6477 92.3195 14.7256C92.4703 14.7542 92.5679 14.8061 92.6123 14.8814C92.6567 14.9566 92.6705 15.0418 92.6537 15.1369C92.6441 15.2237 92.6114 15.3161 92.5556 15.414C92.5075 15.5113 92.4587 15.5969 92.4091 15.6709C92.3378 15.6602 92.2729 15.6843 92.2144 15.7432C92.1553 15.7944 92.1007 15.853 92.0505 15.9192C91.8223 15.9038 91.5999 15.9154 91.3833 15.9541C91.1668 15.9927 90.9655 16.0264 90.7795 16.055C90.7411 16.0656 90.7272 16.09 90.7377 16.1284C90.7477 16.1591 90.7415 16.183 90.7192 16.2002C90.4722 16.1392 90.2206 16.1254 89.9645 16.159C89.7162 16.192 89.4617 16.249 89.2011 16.3299C88.9477 16.4024 88.6869 16.4794 88.4184 16.5608C88.1506 16.65 87.8766 16.7083 87.5966 16.7358ZM96.1473 16.0438C95.8077 16.1146 95.4948 16.1208 95.2088 16.0625C94.9228 16.0042 94.6611 15.9011 94.4236 15.7532C94.194 15.6048 93.9894 15.4233 93.8099 15.2088C93.6382 14.9937 93.4928 14.7611 93.3735 14.511C93.2663 13.9859 93.2522 13.5052 93.3314 13.069C93.41 12.6249 93.5417 12.2124 93.7265 11.8314C93.9113 11.4504 94.125 11.0908 94.3676 10.7528C94.6181 10.4142 94.8576 10.0881 95.0863 9.77447C95.1425 9.79403 95.1854 9.79103 95.2149 9.76547C95.2522 9.73937 95.2812 9.70601 95.3019 9.66541C95.3303 9.62426 95.3588 9.58312 95.3872 9.54197C95.4235 9.50028 95.4644 9.47 95.5101 9.45115C95.5364 9.37883 95.5712 9.31765 95.6147 9.26762C95.666 9.21704 95.7176 9.17036 95.7694 9.12758C95.8285 9.07646 95.8798 9.02589 95.9233 8.97586C95.9745 8.92528 96.0172 8.86356 96.0513 8.79069C96.1281 8.76966 96.1925 8.73775 96.2443 8.69496C96.3039 8.65164 96.3555 8.60496 96.399 8.55493C96.4502 8.50435 96.5018 8.45767 96.5536 8.41489C96.6055 8.37211 96.6695 8.3363 96.7458 8.30747L96.7352 8.1555C96.9012 8.06558 97.0199 7.97113 97.0913 7.87216C97.1627 7.77319 97.2478 7.64585 97.3465 7.49014C97.4317 7.47635 97.4977 7.46782 97.5444 7.46455C97.599 7.46074 97.6803 7.44722 97.7883 7.42401C97.8492 7.28661 97.9086 7.18456 97.9666 7.11786C98.0246 7.05115 98.1093 6.97474 98.2208 6.88863C98.342 6.9428 98.4694 6.97305 98.603 6.97937C98.736 6.9779 98.8609 7.02791 98.9777 7.12939C98.992 7.22236 99.0245 7.29449 99.075 7.34578C99.1251 7.38927 99.179 7.43249 99.2368 7.47543C99.2941 7.51059 99.3516 7.54963 99.4095 7.59258C99.4673 7.63553 99.507 7.69932 99.5286 7.78396C99.5675 7.78123 99.5904 7.7718 99.5971 7.75567C99.6116 7.73899 99.6386 7.73319 99.6781 7.73826C99.698 7.79952 99.7172 7.84908 99.7355 7.88696C99.7538 7.92484 99.7718 7.95882 99.7896 7.9889C99.8152 8.01844 99.8371 8.05215 99.8554 8.09003C99.8815 8.12736 99.9043 8.17276 99.9237 8.22622C99.8912 8.32247 99.8633 8.42624 99.8397 8.53753C99.8156 8.64102 99.7582 8.71552 99.6674 8.76103C99.6717 8.82338 99.6976 8.85681 99.7449 8.86134C99.7916 8.85807 99.8208 8.88344 99.8324 8.93745C99.8451 9.00704 99.8375 9.06631 99.8096 9.11525C100.053 9.46628 100.279 9.83816 100.487 10.2309C100.694 10.6158 100.923 10.9835 101.175 11.334C101.167 11.4442 101.178 11.5531 101.209 11.6605C101.248 11.7597 101.29 11.8585 101.336 11.9571C101.39 12.0552 101.44 12.1535 101.486 12.2521C101.532 12.3507 101.566 12.4501 101.589 12.5503C101.614 12.6817 101.624 12.8259 101.619 12.9828C101.614 13.132 101.593 13.2784 101.556 13.4219C101.519 13.5655 101.466 13.7023 101.396 13.8325C101.327 13.9548 101.243 14.0507 101.146 14.1201C101.033 14.2847 100.886 14.4242 100.706 14.5386C100.525 14.6452 100.362 14.7702 100.215 14.9136C100.11 14.9836 99.9967 15.0385 99.8742 15.0784C99.7511 15.1105 99.6244 15.1468 99.4941 15.1872C99.3972 15.2566 99.2807 15.3274 99.1448 15.3996C99.0084 15.464 98.8677 15.5247 98.7229 15.5818C98.5781 15.6389 98.4328 15.6882 98.2869 15.7298C98.1404 15.7635 98.0082 15.7767 97.8902 15.7693C97.6167 15.8902 97.3489 15.9794 97.0866 16.0369C96.8244 16.0944 96.5113 16.0967 96.1473 16.0438ZM96.0017 11.778C95.9363 11.9627 95.8542 12.1329 95.7555 12.2886C95.664 12.436 95.5728 12.5872 95.4818 12.7424C95.3908 12.8975 95.3124 13.0636 95.2464 13.2405C95.1877 13.4091 95.1624 13.6066 95.1704 13.8332C95.3355 13.9548 95.5244 14.0238 95.737 14.0402C95.9569 14.0484 96.1792 14.0367 96.4042 14.0053C96.6285 13.9662 96.8524 13.9192 97.0757 13.8644C97.2989 13.8096 97.5002 13.776 97.6795 13.7634C97.6746 13.6933 97.7033 13.6561 97.7656 13.6517C98.0908 13.5976 98.3885 13.4868 98.6587 13.3191C98.9283 13.1436 99.2097 12.9673 99.5027 12.7901C99.5352 12.6939 99.5801 12.6085 99.6375 12.534C99.695 12.4595 99.723 12.3558 99.7215 12.2227C99.6776 12.1553 99.6463 12.0988 99.6274 12.0531C99.6163 12.0069 99.6075 11.937 99.601 11.8435C99.3787 11.5771 99.1821 11.2854 99.0112 10.9684C98.8397 10.6437 98.6461 10.34 98.4306 10.0575C98.4177 10.0976 98.3893 10.1387 98.3452 10.1809C98.3012 10.2232 98.25 10.2189 98.1916 10.1682C98.1737 10.2478 98.1425 10.3048 98.0979 10.3392C98.0527 10.3659 97.999 10.3814 97.9367 10.3857C97.8821 10.3895 97.8228 10.3819 97.7589 10.3629C97.7027 10.3433 97.6498 10.3157 97.6003 10.28C97.3428 10.5173 97.0848 10.7468 96.8262 10.9685C96.5754 11.1897 96.3504 11.4443 96.1512 11.7323C96.1139 11.7584 96.0911 11.7678 96.0827 11.7606C96.0744 11.7533 96.0474 11.7591 96.0017 11.778ZM104.274 14.3244C104.2 14.3922 104.159 14.4773 104.151 14.5797C104.142 14.6743 104.129 14.7692 104.112 14.8643C104.095 14.9595 104.058 15.0443 104 15.1188C103.95 15.185 103.851 15.2193 103.702 15.2219C103.674 15.263 103.668 15.287 103.684 15.2937C103.708 15.2998 103.73 15.3335 103.749 15.3948C103.639 15.3868 103.562 15.4001 103.517 15.4345C103.473 15.469 103.416 15.4964 103.347 15.5169C103.164 15.4749 103.005 15.3881 102.87 15.2565C102.743 15.1166 102.627 14.9642 102.521 14.7993C102.424 14.6339 102.333 14.4639 102.251 14.2896C102.176 14.1147 102.099 13.9635 102.019 13.8359C102.017 13.8047 102.032 13.7919 102.064 13.7976C102.087 13.7959 102.11 13.7943 102.134 13.7926C102.089 13.7174 102.056 13.6336 102.034 13.5412C102.003 13.4415 101.959 13.3624 101.9 13.3039C102.092 12.8049 102.299 12.2853 102.519 11.7451C102.739 11.1972 102.959 10.6454 103.179 10.0896C103.406 9.52556 103.629 8.96176 103.848 8.39824C104.074 7.82637 104.289 7.26701 104.494 6.72016C104.717 6.78284 104.934 6.86165 105.145 6.95659C105.362 7.04319 105.562 7.15063 105.743 7.27893C105.924 7.40722 106.08 7.5608 106.21 7.73967C106.347 7.9102 106.443 8.11101 106.499 8.34208C106.486 8.38994 106.468 8.40688 106.443 8.39293C106.419 8.37898 106.4 8.38814 106.387 8.4204C106.429 8.46444 106.451 8.49814 106.452 8.52152C106.461 8.53657 106.463 8.55605 106.456 8.57998C106.45 8.59611 106.447 8.61976 106.45 8.65093C106.452 8.68211 106.474 8.72361 106.517 8.77544C106.478 8.77037 106.451 8.78007 106.437 8.80454C106.422 8.82122 106.395 8.82313 106.355 8.81026C106.402 8.91665 106.419 9.00156 106.408 9.065C106.397 9.12843 106.378 9.18852 106.35 9.24525C106.322 9.29419 106.299 9.35066 106.28 9.41464C106.268 9.47028 106.281 9.54767 106.32 9.64681C106.288 9.64899 106.266 9.65842 106.251 9.67509C106.244 9.68343 106.237 9.69567 106.23 9.7118C106.223 9.72793 106.213 9.74434 106.198 9.76101C106.191 9.76935 106.172 9.77071 106.14 9.7651C106.177 9.96609 106.2 10.1721 106.207 10.383C106.213 10.5862 106.22 10.7972 106.227 11.016C106.234 11.2269 106.25 11.4451 106.273 11.6706C106.297 11.8961 106.344 12.1277 106.416 12.3655C106.737 12.1472 106.988 11.8751 107.169 11.5492C107.358 11.2228 107.497 10.8645 107.587 10.4744C107.685 10.0838 107.75 9.66815 107.782 9.22736C107.822 8.78602 107.861 8.33688 107.899 7.87996C107.979 7.78824 108.038 7.67839 108.076 7.55043C108.122 7.42192 108.156 7.29033 108.178 7.15566C108.207 7.02044 108.233 6.8855 108.255 6.75083C108.284 6.60783 108.326 6.47959 108.381 6.36612C108.522 6.3719 108.642 6.40659 108.741 6.47019C108.846 6.52545 108.945 6.59295 109.037 6.67268C109.128 6.74462 109.223 6.81239 109.321 6.876C109.42 6.9396 109.54 6.97818 109.682 6.99175C109.802 7.13999 109.914 7.28488 110.017 7.42642C110.121 7.56016 110.194 7.71557 110.238 7.89264C110.197 7.97384 110.168 8.06202 110.151 8.15718C110.134 8.25234 110.113 8.34776 110.089 8.44347C110.072 8.53862 110.043 8.6268 110.001 8.70801C109.96 8.78921 109.898 8.86009 109.817 8.92064C109.809 9.15608 109.79 9.37675 109.757 9.58265C109.725 9.78855 109.696 9.99028 109.67 10.1878C109.645 10.3854 109.624 10.5905 109.607 10.8031C109.591 11.0157 109.595 11.2464 109.621 11.4953C109.566 11.7262 109.505 11.9654 109.436 12.213C109.367 12.4528 109.319 12.6754 109.295 12.8808C109.155 13.008 109.048 13.1604 108.974 13.3378C108.9 13.5153 108.823 13.693 108.741 13.871C108.704 13.9049 108.682 13.9143 108.673 13.8993C108.663 13.8764 108.627 13.8633 108.564 13.8599C108.577 13.9295 108.565 13.9773 108.527 14.0034C108.497 14.0212 108.505 14.0755 108.55 14.1663C108.422 14.2379 108.311 14.3279 108.217 14.4363C108.123 14.5447 108.016 14.6461 107.898 14.7406C107.787 14.8345 107.65 14.9027 107.489 14.9453C107.335 14.9796 107.126 14.959 106.862 14.8834C106.46 14.6296 106.095 14.3301 105.765 13.9851C105.436 13.6401 105.164 13.2244 104.95 12.7382C104.874 12.767 104.819 12.8217 104.785 12.9024C104.752 12.9831 104.722 13.0673 104.697 13.1553C104.672 13.2432 104.646 13.3233 104.62 13.3956C104.594 13.4679 104.549 13.5063 104.487 13.5106C104.476 13.5818 104.45 13.6503 104.407 13.7159C104.372 13.7732 104.337 13.8343 104.303 13.8994C104.268 13.9567 104.241 14.0212 104.222 14.093C104.212 14.1642 104.229 14.2414 104.274 14.3244Z" fill="black"/>
</svg>
