<svg width="44" height="52" viewBox="0 0 44 52" fill="none" xmlns="http://www.w3.org/2000/svg">
<path d="M31.2131 9.36986L21.1235 6.53601L20.3706 9.21927L17.7695 8.4937L15.6612 15.9959L13.2928 15.3251L11.8553 20.4178L6.58464 18.9392L5.14717 24.032L7.87151 24.7986L6.43405 29.8913L4.99658 34.9841L9.97978 36.3804L9.29527 38.9268L11.8143 39.6387L11.1024 42.185L21.1783 45.0189L21.8902 42.4725L24.4913 43.1981L25.2032 40.6518L27.5716 41.3226L28.2835 38.7762L31.0078 39.5429L31.7471 36.928L34.2934 37.6399L37.141 27.5366L34.5946 26.8248L36.0184 21.7731L30.7477 20.2946L32.1988 15.1334L29.7757 14.4489L31.2131 9.36986Z" fill="white"/>
<path d="M21.7945 4.16785L21.0826 6.68683L31.1585 9.52068L31.8704 7.0017L24.3135 4.87973L21.7945 4.16785ZM31.1723 9.52068L30.4604 12.0397L32.9793 12.7515L33.6912 10.2326L31.1723 9.52068ZM32.9793 12.7515L32.2675 15.2705L34.7864 15.9824L35.4983 13.4634L32.9793 12.7515ZM34.7864 15.9961L33.3627 21.0477L35.8817 21.7596L37.3054 16.708L34.7864 15.9961ZM35.8817 21.7459L34.4579 26.7976L36.9768 27.5095L38.4006 22.4578L35.8817 21.7459ZM36.9905 27.4958L34.143 37.5854L36.662 38.2973L39.5095 28.2077L36.9905 27.4958ZM34.143 37.5991L31.624 36.8872L30.2002 41.9388L32.7192 42.6507L33.4311 40.1317L34.143 37.5991ZM30.2002 41.9252L25.1623 40.5014L24.4504 43.0341L21.9314 42.3222L21.2195 44.8411L26.2575 46.2649L26.9694 43.7459L29.4884 44.4578L30.2002 41.9252ZM21.2195 44.8548L11.1436 42.021L10.4317 44.54L20.5076 47.3738L21.2195 44.8548ZM11.1436 42.0073L11.8555 39.4883L9.33654 38.7764L8.62465 41.2954L11.1436 42.0073ZM9.33654 38.7764L10.0484 36.2575L5.01046 34.8337L4.29857 37.3527L6.81754 38.0646L9.33654 38.7764ZM4.99676 34.8337L6.42054 29.782L3.90156 29.0702L2.47778 34.1218L4.99676 34.8337ZM3.90156 29.0838L6.74911 18.9942L4.23011 18.2823L1.38257 28.372L3.90156 29.0838ZM6.7354 18.9805L9.25438 19.6924L10.6782 14.6408L8.15919 13.9289L7.4473 16.4479L6.7354 18.9805ZM10.6782 14.6545L13.1971 15.3664L14.6209 10.3147L12.1019 9.60282L11.3901 12.1218L10.6782 14.6545ZM14.6209 10.3147L17.1399 11.0266L17.8518 8.50761L15.3328 7.79572L14.6209 10.3147ZM17.8518 8.49392L20.3708 9.20581L21.0826 6.68683L18.5637 5.97494L17.8518 8.49392Z" fill="#020203"/>
<path d="M27.9412 11.3413L25.8055 18.912L28.3245 19.6239L27.6126 22.1428L32.6506 23.5666L34.7862 15.996L32.2673 15.2841L32.9791 12.7651L30.4602 12.0532L27.9412 11.3413ZM14.6207 10.3146L13.1969 15.3662L10.678 14.6543L9.25418 19.706L14.2922 21.1298L15.004 18.6108L17.523 19.3227L19.6587 11.752L17.1397 11.0402L14.6207 10.3146ZM19.3438 22.5398L15.7981 35.1621L23.355 37.2841L24.0669 34.7651L26.5859 35.477L28.7215 27.9064L26.2025 27.1945L26.9144 24.6755L21.8765 23.2517L19.3438 22.5398ZM26.5859 35.4633L25.1621 40.515L30.2 41.9387L32.3357 34.3681L29.8167 33.6562L29.1048 36.1752L26.5859 35.4633ZM16.1129 24.3469L13.9773 31.9176L16.4963 32.6295L18.6319 25.0588L16.1129 24.3469ZM5.32513 24.0457L3.90137 29.0974L6.42034 29.8093L4.99656 34.8609L10.0345 36.2847L12.1702 28.7141L9.66489 27.9748L10.3768 25.4558L7.85781 24.7439L5.32513 24.0457Z" fill="#66B7B2"/>
<path opacity="0.2" d="M30.4602 12.0532L29.7483 14.5722L32.2673 15.2841L32.9791 12.7651L30.4602 12.0532ZM32.2673 15.2841L30.8435 20.3357L33.3625 21.0476L34.7862 15.996L32.2673 15.2841ZM14.6207 10.3146L13.1969 15.3662L15.7159 16.0781L17.1397 11.0265L14.6207 10.3146ZM13.2106 15.3662L10.6916 14.6543L9.26789 19.706L11.7869 20.4179L12.4988 17.8989L13.2106 15.3662ZM5.32513 24.0321L3.90137 29.0837L6.42034 29.7956L7.8441 24.7439L5.32513 24.0321ZM6.42034 29.7956L4.99656 34.8472L7.51555 35.5591L8.93932 30.5075L6.42034 29.7956ZM28.393 38.6942L27.6811 41.2131L30.2 41.925L30.9119 39.406L28.393 38.6942Z" fill="#020203"/>
<path d="M0 13.9424L2.51897 14.6543L3.92905 9.60263L1.41008 8.89075L0.711891 11.4234L0 13.9424Z" fill="#020203"/>
<path d="M3.92896 9.60278L6.46163 10.3147L7.87171 5.26301L5.35274 4.56482L4.64085 7.0838L3.92896 9.60278Z" fill="#020203"/>
<path d="M8.58682 2.73348L7.87476 5.26367L10.3918 5.97202L11.1038 3.44183L8.58682 2.73348Z" fill="#020203"/>
<path d="M11.8209 0.934151L11.1125 3.45117L13.6296 4.15952L14.3379 1.6425L11.8209 0.934151Z" fill="#020203"/>
<path d="M43.9996 38.5437L41.4807 37.8318L40.0569 42.8834L42.5759 43.5816L43.2878 41.0627L43.9996 38.5437Z" fill="#020203"/>
<path d="M40.0575 42.8834L37.5385 42.1715L36.1147 47.2095L38.6337 47.9213L39.3456 45.4024L40.0575 42.8834Z" fill="#020203"/>
<path d="M33.6029 46.497L32.8909 49.0272L35.4079 49.7356L36.1199 47.2054L33.6029 46.497Z" fill="#020203"/>
<path d="M30.3749 48.3262L29.6665 50.8433L32.1835 51.5516L32.8919 49.0346L30.3749 48.3262Z" fill="#020203"/>
</svg>
