<svg width="12" height="12" viewBox="0 0 12 12" fill="none" xmlns="http://www.w3.org/2000/svg">
<g clip-path="url(#clip0_68_105)">
<path fill-rule="evenodd" clip-rule="evenodd" d="M9.19199 11.3895C9.35299 11.5035 9.56048 11.532 9.74549 11.462C9.93049 11.3915 10.0665 11.2335 10.1075 11.042C10.542 8.99995 11.596 3.83145 11.9915 1.97395C12.0215 1.83395 11.9715 1.68845 11.8615 1.59495C11.7515 1.50145 11.599 1.47445 11.463 1.52495C9.36649 2.30095 2.90999 4.72345 0.270985 5.69995C0.103485 5.76195 -0.0055147 5.92295 -1.46962e-05 6.09945C0.0059853 6.27645 0.124985 6.42995 0.296485 6.48145C1.47999 6.83545 3.03349 7.32795 3.03349 7.32795C3.03349 7.32795 3.75949 9.52045 4.13799 10.6355C4.18549 10.7755 4.29499 10.8855 4.43949 10.9235C4.58349 10.961 4.73748 10.9215 4.84499 10.82C5.45298 10.246 6.39299 9.35845 6.39299 9.35845C6.39299 9.35845 8.17899 10.668 9.19199 11.3895ZM3.68699 7.05095L4.52649 9.81995L4.71299 8.06645C4.71299 8.06645 7.95649 5.14095 9.80549 3.47345C9.85949 3.42445 9.86699 3.34245 9.82199 3.28495C9.77748 3.22745 9.69549 3.21395 9.63399 3.25295C7.49099 4.62145 3.68699 7.05095 3.68699 7.05095Z" fill="#92A573"/>
</g>
<defs>
<clipPath id="clip0_68_105">
<rect width="12" height="12" fill="white"/>
</clipPath>
</defs>
</svg>
