<svg width="731" height="164" viewBox="0 0 731 164" fill="none" xmlns="http://www.w3.org/2000/svg">
<path d="M193.628 60.7411L227.653 82.0284L193.628 103.344C196.095 96.7158 197.545 89.5265 197.545 82.0284C197.545 74.5162 196.095 67.3829 193.628 60.7411ZM81.0879 60.7411C78.6347 67.3829 77.1714 74.5439 77.1714 82.0284C77.1714 89.5265 78.5792 96.6878 81.0879 103.316L47.0778 82.0284L81.0879 60.7411ZM137.371 34.0758C163.715 34.0758 184.9 55.4752 184.9 82.0287C184.9 108.596 163.672 129.953 137.371 129.953C110.999 129.953 89.7839 108.553 89.7839 82.0287C89.7839 55.504 111.04 34.0758 137.371 34.0758ZM137.371 10.7665L131.475 14.4313L108.17 29.0206C106.497 29.9614 104.908 30.9583 103.333 32.0676L23.5635 82.0264L103.333 131.96C104.936 133.055 106.58 134.08 108.281 135.049L137.399 153.233L166.029 135.302C166.098 135.246 166.182 135.176 166.252 135.147C168.036 134.165 169.764 133.055 171.437 131.876L251.195 82.0284L171.412 32.0948C169.823 30.9995 168.192 29.9324 166.478 28.9916L137.371 10.7665Z" fill="#000000"/>
<path d="M262.888 93.3448C259.223 93.3869 255.222 94.3838 251.194 96.7569L149.134 160.605L150.151 161.223C153.023 162.908 156.8 164.088 160.982 164.004C164.647 163.976 168.662 162.993 172.69 160.605L192.748 148.052L274.708 96.7167L273.662 96.0707C270.777 94.4559 267.07 93.3186 262.888 93.3467" fill="#000000"/>
<path d="M113.736 0.00879376C110.07 0.0368322 106.07 1.03385 102.028 3.40687L81.9701 15.9882L-0.0185547 67.3094C5.29213 70.876 14.2685 72.7154 23.524 67.3094L125.584 3.43203L124.567 2.81418C121.695 1.10111 117.96 -0.0643584 113.736 0.00584555" fill="#000000"/>
<path d="M486.442 30.6752H469.103V133.853H486.442V73.4734H501.831V55.7668H486.442V30.6752Z" fill="#000000"/>
<path d="M694.903 55.7697V30.677H677.563V133.855H694.903V73.4752H710.291V55.7686L694.903 55.7697Z" fill="#000000"/>
<path d="M434.096 55.7697H451.171V133.857H434.096V55.7697Z" fill="#000000"/>
<path d="M434.203 30.6752H451.027V48.7327H434.203V30.6752Z" fill="#000000"/>
<path d="M399.091 116.667H369.624V55.7697H352.564V116.667H326.958C323.446 116.667 320.574 113.774 320.574 110.236V55.7693H303.514V117.72C303.514 126.636 310.692 133.854 319.529 133.854H416.166V55.7668H399.091V116.667Z" fill="#000000"/>
<path d="M564.945 55.7697H513.108V133.799H530.169V72.9702H557.517C561.043 72.9702 563.901 75.8347 563.901 79.4014V133.8H580.962V71.9173C580.962 62.9867 573.783 55.7693 564.946 55.7693" fill="#000000"/>
<path d="M620.289 72.1685C628.109 67.9839 635.678 69.4164 642.062 74.7381L609.292 92.2762C608.609 83.9074 612.191 76.5074 620.289 72.1683V72.1685ZM643.023 114.575C633.043 119.925 621.502 117.032 614.282 106.641L667.653 78.0524C666.747 75.8759 665.631 73.7978 664.377 71.8318C664.084 71.3825 663.792 70.9472 663.513 70.526C656.321 60.2333 644.459 53.4933 631.036 53.4933C625.739 53.4933 620.721 54.5465 616.107 56.4421C615.759 56.5965 615.41 56.7089 615.076 56.8914C613.668 57.4952 612.316 58.2113 610.992 58.9977C609.793 59.6997 608.65 60.4721 607.535 61.2865C597.722 68.5599 591.311 80.2566 591.311 93.484C591.311 115.585 609.096 133.489 631.036 133.489C650.941 133.489 667.376 118.717 670.245 99.4518C665.966 99.4378 654.564 99.4097 654.494 99.4097C653.058 105.925 648.946 111.415 643.023 114.575" fill="#000000"/>
<path d="M713.672 116.343H731.012V133.811H713.672V116.343Z" fill="#F8971E"/>
</svg>
