<svg width="247" height="50" viewBox="0 0 247 50" fill="none" xmlns="http://www.w3.org/2000/svg">
<path d="M9.5355 18.5809V16.197H7.15163V18.5809H2.38388V16.197H0V4.29089H4.76775V13.8198H7.15163V11.4359H9.5355V13.8198H11.9194V4.29089H16.6871V16.2036H14.3033V18.5875H9.5355V18.5809Z" fill="#66B7B2"/>
<path d="M26.2094 4.29089V6.67477H19.0577V4.29089H26.2094V4.29089ZM21.4416 18.5809V16.197H19.0577V9.052H26.2027V16.197H28.5866V18.5809H21.4416Z" fill="#66B7B2"/>
<path d="M33.3544 18.5808V16.197H30.9705V9.05197H28.5867V6.67474H30.9705V1.90698H38.1155V6.67474H40.4994V9.05861H38.1155V16.2036H40.4994V18.5875H33.3544V18.5808Z" fill="#66B7B2"/>
<path d="M47.6443 18.5808V16.197H45.2605V9.05197H42.8766V6.67474H45.2605V1.90698H52.4054V6.67474H54.7893V9.05861H52.4054V16.2036H54.7893V18.5875H47.6443V18.5808Z" fill="#66B7B2"/>
<path d="M57.1731 18.5809V16.197H66.702V13.8131H59.557V11.4292H57.1731V4.29089H64.3181V11.4359H66.702V4.29089H71.4697V16.2036H69.0858V18.5875H57.1731V18.5809Z" fill="#66B7B2"/>
<path d="M115.993 16.2036V18.5875H104.081V16.2036H101.697V6.67477H104.081V4.29089H115.993V6.67477H108.842V16.2036H115.993V16.2036Z" fill="black"/>
<path d="M118.371 18.5809V4.29089H130.283V6.67477H132.667V9.05865H127.899V6.67477H125.516V18.5875H118.371V18.5809Z" fill="black"/>
<path d="M149.341 16.2036V18.5875H137.428V16.2036H135.044V6.67477H137.428V4.29089H146.957V6.67477H149.341V11.4359H142.196V16.2036H149.341ZM144.573 6.67477H142.189V9.05865H144.573V6.67477Z" fill="black"/>
<path d="M154.102 18.5809V16.197H151.718V11.4292H154.102V9.04537H158.87V6.67477H154.102V4.29089H166.015V18.5875H154.102V18.5809ZM158.87 11.4359H156.486V16.2036H158.87V11.4359Z" fill="black"/>
<path d="M173.16 18.5808V16.197H170.776V9.05197H168.392V6.67474H170.776V1.90698H177.921V6.67474H180.305V9.05861H177.921V16.2036H180.305V18.5875H173.16V18.5808Z" fill="black"/>
<path d="M185.066 18.5809V16.197H182.682V4.29089H189.827V16.2036H192.211V4.29089H196.979V18.5875H185.066V18.5809Z" fill="black"/>
<path d="M199.363 18.5809V4.29089H211.275V6.67477H213.659V9.05865H208.891V6.67477H206.508V18.5875H199.363V18.5809Z" fill="black"/>
<path d="M230.333 16.2036V18.5875H218.42V16.2036H216.036V6.67477H218.42V4.29089H227.949V6.67477H230.333V11.4359H223.188V16.2036H230.333ZM225.565 6.67477H223.181V9.05865H225.565V6.67477Z" fill="black"/>
<path d="M232.71 18.5809V16.197H239.855V13.8131H235.087V11.4292H232.704V6.67477H235.087V4.29089H244.616V6.67477H239.849V9.05865H244.616V11.4425H247V16.2103H244.616V18.5941H232.71V18.5809Z" fill="black"/>
<path d="M92.0349 4.09168L87.141 2.71713L86.7758 4.01864L85.5141 3.6667L84.4915 7.3056L83.3428 6.98022L82.6455 9.45042L80.089 8.73327L79.3918 11.2035L80.7132 11.5753L80.016 14.0455L79.3187 16.5157L81.7358 17.193L81.4038 18.4281L82.6256 18.7734L82.2803 20.0085L87.1676 21.3831L87.5129 20.148L88.7745 20.4999L89.1198 19.2648L90.2686 19.5902L90.6139 18.3551L91.9353 18.7269L92.2939 17.4586L93.529 17.8039L94.9102 12.9034L93.6751 12.5581L94.3657 10.1078L91.8092 9.39066L92.5131 6.88726L91.3377 6.55524L92.0349 4.09168Z" fill="white"/>
<path d="M87.4665 1.56845L87.1212 2.79027L92.0085 4.16482L92.3538 2.943L88.6883 1.91375L87.4665 1.56845ZM92.0151 4.16482L91.6698 5.38664L92.8917 5.73193L93.237 4.51011L92.0151 4.16482ZM92.8917 5.73193L92.5464 6.95375L93.7682 7.29905L94.1135 6.07723L92.8917 5.73193ZM93.7682 7.30569L93.0776 9.75597L94.2994 10.1013L94.99 7.65098L93.7682 7.30569ZM94.2994 10.0946L93.6088 12.5449L94.8306 12.8902L95.5212 10.4399L94.2994 10.0946ZM94.8373 12.8836L93.4561 17.7775L94.6779 18.1228L96.0591 13.2289L94.8373 12.8836ZM93.4561 17.7841L92.2343 17.4388L91.5437 19.8891L92.7655 20.2344L93.1108 19.0126L93.4561 17.7841ZM91.5437 19.8825L89.1 19.1919L88.7547 20.4203L87.5329 20.075L87.1876 21.2968L89.6313 21.9874L89.9766 20.7656L91.1984 21.1109L91.5437 19.8825ZM87.1876 21.3035L82.3003 19.9289L81.955 21.1508L86.8423 22.5253L87.1876 21.3035ZM82.3003 19.9223L82.6456 18.7005L81.4238 18.3552L81.0785 19.577L82.3003 19.9223ZM81.4238 18.3552L81.7691 17.1334L79.3255 16.4428L78.9802 17.6646L80.202 18.0099L81.4238 18.3552ZM79.3188 16.4428L80.0094 13.9925L78.7876 13.6472L78.097 16.0975L79.3188 16.4428ZM78.7876 13.6538L80.1688 8.75992L78.947 8.41462L77.5658 13.3085L78.7876 13.6538ZM80.1622 8.75328L81.384 9.09857L82.0746 6.6483L80.8528 6.303L80.5075 7.52482L80.1622 8.75328ZM82.0746 6.65493L83.2964 7.00023L83.987 4.54995L82.7652 4.20466L82.4199 5.42648L82.0746 6.65493ZM83.987 4.54995L85.2088 4.89525L85.5541 3.67343L84.3323 3.32813L83.987 4.54995ZM85.5541 3.66679L86.7759 4.01209L87.1212 2.79027L85.8994 2.44497L85.5541 3.66679Z" fill="#020203"/>
<path d="M90.448 5.04789L89.4121 8.71999L90.6339 9.06529L90.2886 10.2871L92.7323 10.9777L93.7682 7.3056L92.5463 6.96031L92.8916 5.73848L91.6698 5.39319L90.448 5.04789ZM83.987 4.54987L83.2964 7.00015L82.0746 6.65485L81.384 9.10513L83.8276 9.79572L84.1729 8.5739L85.3947 8.9192L86.4306 5.2471L85.2088 4.9018L83.987 4.54987ZM86.2779 10.4797L84.558 16.6021L88.2235 17.6313L88.5688 16.4095L89.7906 16.7548L90.8265 13.0827L89.6047 12.7374L89.95 11.5156L87.5063 10.825L86.2779 10.4797ZM89.7906 16.7481L89.1 19.1984L91.5436 19.889L92.5795 16.2169L91.3577 15.8716L91.0124 17.0934L89.7906 16.7481ZM84.7108 11.3562L83.6749 15.0283L84.8967 15.3736L85.9326 11.7015L84.7108 11.3562ZM79.4782 11.2101L78.7876 13.6604L80.0094 14.0057L79.3188 16.456L81.7625 17.1466L82.7983 13.4745L81.5832 13.1159L81.9285 11.8941L80.7067 11.5488L79.4782 11.2101Z" fill="#66B7B2"/>
<path opacity="0.2" d="M91.6698 5.39319L91.3245 6.61501L92.5463 6.96031L92.8916 5.73848L91.6698 5.39319ZM92.5463 6.96031L91.8557 9.41058L93.0776 9.75588L93.7682 7.3056L92.5463 6.96031ZM83.987 4.54987L83.2964 7.00015L84.5182 7.34544L85.2088 4.89516L83.987 4.54987ZM83.303 7.00015L82.0812 6.65485L81.3906 9.10513L82.6124 9.45043L82.9577 8.2286L83.303 7.00015ZM79.4782 11.2035L78.7876 13.6537L80.0094 13.999L80.7 11.5488L79.4782 11.2035ZM80.0094 13.999L79.3188 16.4493L80.5406 16.7946L81.2312 14.3443L80.0094 13.999ZM90.6671 18.3153L90.3218 19.5371L91.5436 19.8824L91.8889 18.6605L90.6671 18.3153Z" fill="#020203"/>
<path d="M76.8953 6.30956L78.1171 6.65486L78.801 4.20458L77.5792 3.85928L77.2406 5.08774L76.8953 6.30956Z" fill="#020203"/>
<path d="M78.8008 4.20459L80.0292 4.54989L80.7132 2.09961L79.4914 1.76096L79.1461 2.98278L78.8008 4.20459Z" fill="#020203"/>
<path d="M81.0601 0.872779L80.7147 2.10004L81.9356 2.44362L82.281 1.21636L81.0601 0.872779Z" fill="#020203"/>
<path d="M82.629 -1.3699e-05L82.2854 1.22086L83.5063 1.56444L83.8499 0.343569L82.629 -1.3699e-05Z" fill="#020203"/>
<path d="M98.237 18.2422L97.0152 17.8969L96.3246 20.3472L97.5464 20.6858L97.8917 19.464L98.237 18.2422Z" fill="#020203"/>
<path d="M96.3248 20.3472L95.1029 20.002L94.4124 22.4456L95.6342 22.7909L95.9795 21.5691L96.3248 20.3472Z" fill="#020203"/>
<path d="M93.1943 22.1L92.8489 23.3272L94.0697 23.6708L94.4151 22.4436L93.1943 22.1Z" fill="#020203"/>
<path d="M91.6284 22.9873L91.2848 24.2081L92.5057 24.5517L92.8492 23.3308L91.6284 22.9873Z" fill="#020203"/>
<path d="M106 39.4191L126.721 37.9702L142.526 36.865L159.032 35.7107L175.188 34.581L196.612 33.0829L216.279 31.7076" stroke="#E9F263" stroke-width="20"/>
<path d="M107.747 43.1287C107.68 43.0707 107.628 42.9999 107.591 42.9164C107.561 42.8323 107.494 42.7665 107.389 42.719C107.365 42.6032 107.333 42.4724 107.291 42.3265C107.257 42.1722 107.219 42.0183 107.177 41.8646C107.142 41.7025 107.111 41.5441 107.085 41.3894C107.065 41.2262 107.063 41.0776 107.077 40.9435C107.088 40.8723 107.106 40.8044 107.133 40.7399C107.168 40.6748 107.199 40.6139 107.226 40.5571C107.261 40.4921 107.284 40.4278 107.295 40.3644C107.314 40.3004 107.313 40.2378 107.293 40.1765C107.34 40.1655 107.365 40.1402 107.37 40.1007C107.383 40.0528 107.421 40.0345 107.484 40.0457C107.527 39.8704 107.574 39.7066 107.626 39.5542C107.678 39.4017 107.734 39.2529 107.794 39.1077C107.855 38.9625 107.915 38.8174 107.975 38.6722C108.043 38.5186 108.102 38.3501 108.151 38.1665C108.01 38.051 107.904 37.9254 107.831 37.7894C107.766 37.6452 107.713 37.5001 107.672 37.3542C107.63 37.2083 107.596 37.0619 107.571 36.9149C107.544 36.7601 107.502 36.6064 107.444 36.4538C107.528 36.307 107.633 36.1861 107.76 36.0911C107.886 35.9883 108.025 35.9042 108.177 35.8387C108.336 35.7649 108.508 35.7059 108.693 35.6617C108.877 35.6096 109.073 35.5528 109.28 35.4914C109.646 35.3483 109.975 35.2353 110.267 35.1522C110.558 35.0613 110.842 34.9866 111.12 34.928C111.398 34.8617 111.687 34.8023 111.989 34.7498C112.29 34.6896 112.637 34.6105 113.03 34.5126C113.039 34.5354 113.051 34.5463 113.067 34.5452C113.09 34.5436 113.118 34.5417 113.149 34.5395C113.176 34.5924 113.221 34.6167 113.283 34.6123C113.282 34.5889 113.276 34.5697 113.267 34.5547C113.266 34.5313 113.264 34.5118 113.263 34.4962C113.279 34.4952 113.299 34.4977 113.323 34.5038C113.354 34.5095 113.378 34.5156 113.394 34.5223C113.418 34.5285 113.438 34.5271 113.453 34.5182C113.467 34.5016 113.469 34.474 113.459 34.4356C113.564 34.5927 113.694 34.7207 113.85 34.8194C114.005 34.9104 114.175 34.9885 114.36 35.0539C114.372 35.1235 114.376 35.1742 114.37 35.2059C114.372 35.2371 114.371 35.2685 114.365 35.3003C114.359 35.3242 114.357 35.3556 114.36 35.3946C114.362 35.4258 114.373 35.472 114.393 35.5332C114.283 35.7524 114.15 35.9261 113.995 36.0545C113.847 36.1823 113.686 36.2836 113.511 36.3585C113.336 36.4334 113.148 36.4935 112.948 36.5388C112.755 36.5836 112.555 36.6329 112.347 36.6866C112.147 36.7319 111.944 36.7931 111.738 36.8702C111.532 36.9472 111.332 37.0552 111.138 37.1941C111.074 37.175 111.015 37.1713 110.961 37.1829C110.914 37.1862 110.864 37.1975 110.81 37.2169C110.757 37.2364 110.696 37.2563 110.627 37.2768C110.565 37.2967 110.487 37.3022 110.393 37.2931C110.334 37.3521 110.263 37.3962 110.179 37.4256C110.103 37.4544 110.022 37.4835 109.938 37.5129C109.983 37.5959 110.005 37.6805 110.003 37.7668C110.009 37.8525 110.026 37.9257 110.054 37.9865C110.383 37.9947 110.746 37.9694 111.141 37.9104C111.536 37.8437 111.923 37.7891 112.304 37.7469C112.315 37.7853 112.313 37.8128 112.298 37.8295C112.284 37.8462 112.278 37.874 112.281 37.913C112.354 37.9548 112.424 38.0086 112.492 38.0744C112.559 38.1402 112.626 38.206 112.693 38.2718C112.768 38.3292 112.842 38.3789 112.915 38.4207C112.988 38.4548 113.071 38.4646 113.164 38.4503C113.208 38.5255 113.241 38.6054 113.263 38.6901C113.284 38.7747 113.279 38.8652 113.247 38.9614C113.098 39.0736 112.953 39.1895 112.813 39.3089C112.672 39.4206 112.522 39.525 112.365 39.6222C112.215 39.7188 112.048 39.801 111.865 39.8686C111.682 39.9362 111.481 39.9738 111.262 39.9812C111.223 39.984 111.188 39.9864 111.157 39.9886C111.134 39.9902 111.101 39.9768 111.06 39.9484C110.985 39.9928 110.881 40.0157 110.748 40.0172C110.622 40.0103 110.518 40.0294 110.435 40.0743C110.323 40.043 110.193 40.0325 110.045 40.0429C109.904 40.0527 109.778 40.0419 109.667 40.0106C109.54 40.223 109.423 40.4466 109.314 40.6813C109.205 40.9083 109.112 41.1497 109.036 41.4056C109.359 41.43 109.625 41.431 109.835 41.4085C110.045 41.386 110.242 41.3565 110.428 41.32C110.613 41.2836 110.802 41.2469 110.996 41.2098C111.197 41.1723 111.442 41.1473 111.73 41.135C111.919 41.0278 112.137 40.9499 112.384 40.9013C112.638 40.8444 112.872 40.7732 113.085 40.6878C113.165 40.7057 113.234 40.7479 113.294 40.8142C113.353 40.8727 113.408 40.9354 113.46 41.0023C113.519 41.0608 113.577 41.1116 113.635 41.1545C113.693 41.1975 113.764 41.2081 113.849 41.1866C113.89 41.2228 113.917 41.2679 113.929 41.3219C113.948 41.3754 113.963 41.4252 113.974 41.4715C113.993 41.5171 114.015 41.5547 114.041 41.5843C114.066 41.606 114.109 41.6108 114.171 41.5987C114.044 41.913 113.893 42.1585 113.717 42.3352C113.55 42.5114 113.352 42.6545 113.125 42.7643C112.905 42.8659 112.652 42.9501 112.367 43.017C112.089 43.0756 111.777 43.1483 111.431 43.2352C111.346 43.2568 111.272 43.262 111.209 43.2507C111.153 43.2312 111.093 43.2236 111.031 43.2279C110.816 43.2821 110.557 43.3394 110.256 43.3996C109.963 43.4593 109.664 43.4958 109.359 43.5093C109.055 43.5228 108.76 43.5042 108.474 43.4537C108.189 43.4032 107.946 43.2948 107.747 43.1287ZM114.421 36.4358C114.409 36.374 114.389 36.3206 114.363 36.2754C114.343 36.222 114.32 36.1649 114.292 36.1042C114.247 36.0134 114.204 35.9145 114.166 35.8076C114.127 35.7007 114.102 35.5732 114.092 35.4251C114.102 35.3461 114.118 35.2901 114.139 35.2573C114.16 35.2167 114.181 35.1839 114.202 35.1589L114.235 34.9452L114.41 34.933C114.473 34.9364 114.535 34.9359 114.598 34.9316C114.668 34.9267 114.734 34.922 114.796 34.9177C115.093 34.897 115.396 34.864 115.706 34.8188C116.016 34.7737 116.334 34.724 116.659 34.67C117.014 34.5981 117.397 34.5361 117.809 34.4838C117.842 34.3954 117.861 34.3392 117.867 34.3153C117.881 34.2908 117.895 34.2624 117.908 34.2302L118.032 34.151C118.211 34.1307 118.337 34.1454 118.411 34.195C118.485 34.2369 118.542 34.2798 118.585 34.3239C118.786 34.2941 118.991 34.2602 119.2 34.2221C119.408 34.1762 119.624 34.1298 119.848 34.0828C120.157 34.022 120.47 33.961 120.787 33.8997C121.104 33.8383 121.414 33.7971 121.718 33.7758C121.851 33.7665 121.975 33.7617 122.093 33.7613C122.21 33.761 122.324 33.7648 122.434 33.7727L122.582 33.8681C122.617 33.9205 122.66 33.9684 122.71 34.0119C122.76 34.0554 122.817 34.0983 122.883 34.1407C123.006 34.2261 123.128 34.3351 123.247 34.4677C123.373 34.5999 123.431 34.8034 123.419 35.0783L123.368 35.1993C123.339 35.2327 123.302 35.2666 123.258 35.301L123.152 35.4612L123.023 35.4702C122.945 35.4756 122.887 35.4875 122.849 35.5058C122.811 35.5163 122.765 35.5352 122.712 35.5624C122.682 35.5801 122.648 35.5982 122.61 35.6165C122.572 35.627 122.53 35.6417 122.484 35.6606C122.398 35.6588 122.331 35.6595 122.285 35.6628C122.238 35.666 122.183 35.6698 122.121 35.6742C121.887 35.6906 121.635 35.7239 121.364 35.7741C121.094 35.8243 120.831 35.8779 120.577 35.9349C120.391 35.9714 120.214 36.0073 120.044 36.0426C119.874 36.0702 119.719 36.0967 119.58 36.1221C119.516 36.3302 119.458 36.5143 119.407 36.6746C119.355 36.8348 119.3 36.9953 119.241 37.1561C119.182 37.3168 119.126 37.4812 119.076 37.6493C119.024 37.8095 118.978 37.9889 118.937 38.1876C118.853 38.3344 118.785 38.4762 118.732 38.6131C118.678 38.7421 118.638 38.8899 118.61 39.0563C118.502 39.1969 118.427 39.3471 118.383 39.5068C118.347 39.6659 118.314 39.8014 118.282 39.9132L118.248 40.0919C118.197 40.1502 118.165 40.1955 118.152 40.2278C118.146 40.2595 118.129 40.296 118.101 40.3371C118.084 40.4401 118.06 40.5397 118.027 40.6359C118.015 40.676 118.002 40.7199 117.99 40.7678C117.977 40.8078 117.975 40.8393 117.985 40.8621C117.975 40.9489 117.956 41.0168 117.928 41.0657C117.932 41.1125 117.931 41.1595 117.926 41.2068C117.922 41.2542 117.917 41.3015 117.913 41.3488C117.901 41.4044 117.893 41.4559 117.888 41.5032C117.883 41.5427 117.89 41.5814 117.908 41.6193C117.934 41.6488 117.959 41.6784 117.985 41.7079C118.01 41.7374 118.033 41.775 118.052 41.8207C118.068 41.8352 118.089 41.8455 118.112 41.8517C118.136 41.8578 118.157 41.8682 118.173 41.8827C118.24 41.9329 118.3 41.96 118.355 41.9639L118.482 42.096C118.548 42.3733 118.521 42.5945 118.399 42.7597C118.271 42.9487 118.044 43.0547 117.717 43.0776L117.552 43.0774C117.494 43.0266 117.46 42.9937 117.451 42.9787C117.379 42.9524 117.318 42.9292 117.27 42.9091C117.222 42.8968 117.177 42.8647 117.134 42.8129C117.117 42.7984 117.097 42.792 117.074 42.7936C117.05 42.7874 117.03 42.7771 117.013 42.7626C116.934 42.7447 116.869 42.7218 116.82 42.6939L116.687 42.6327C116.689 42.5542 116.689 42.4994 116.687 42.4682C116.619 42.3869 116.562 42.2969 116.516 42.1983C116.477 42.0992 116.443 41.9959 116.412 41.8884C116.382 41.8043 116.353 41.728 116.325 41.6595C116.305 41.5904 116.273 41.53 116.23 41.4782C116.177 40.9337 116.195 40.4743 116.287 40.0998C116.377 39.7175 116.481 39.3461 116.596 38.9856C116.661 38.7931 116.722 38.597 116.778 38.3973C116.835 38.1975 116.883 37.9944 116.924 37.788L117.043 37.6504C117.095 37.5998 117.128 37.5701 117.143 37.5612C117.136 37.4599 117.148 37.3611 117.181 37.2649C117.213 37.1608 117.249 37.0565 117.288 36.9519C117.315 36.8874 117.338 36.8232 117.357 36.7592C117.384 36.6946 117.399 36.6387 117.404 36.5914C117.349 36.5952 117.299 36.6027 117.253 36.6137C117.214 36.6165 117.171 36.6234 117.125 36.6344C117.025 36.6649 116.929 36.6834 116.835 36.6899C116.765 36.6948 116.714 36.6945 116.682 36.6889C116.622 36.7244 116.565 36.748 116.511 36.7596C116.457 36.7634 116.402 36.7672 116.347 36.771L116.207 36.7808L116.067 36.7906C115.973 36.7972 115.9 36.814 115.847 36.8412C115.738 36.8489 115.668 36.8538 115.637 36.856C115.606 36.8581 115.571 36.8606 115.532 36.8633L115.391 36.8731L115.251 36.8829C115.189 36.8873 115.118 36.8883 115.04 36.886C114.961 36.8758 114.877 36.8504 114.788 36.8096L114.699 36.7218C114.647 36.6393 114.601 36.5956 114.561 36.5905L114.43 36.5644L114.421 36.4358ZM122.044 42.1289C122.021 42.1383 122.005 42.1316 121.995 42.1088C121.986 42.086 121.98 42.0629 121.979 42.0395C121.985 42.0156 121.995 41.9953 122.01 41.9786C122.032 41.9614 122.059 41.9594 122.092 41.9729C121.981 41.8552 121.907 41.7469 121.869 41.6477C121.839 41.5481 121.779 41.4269 121.691 41.2843C121.713 41.2593 121.726 41.227 121.731 41.1875C121.736 41.1402 121.744 41.0965 121.757 41.0564C121.762 41.0169 121.772 40.9888 121.787 40.9722C121.808 40.9471 121.836 40.9491 121.869 40.9781C121.848 40.8935 121.843 40.8233 121.855 40.7677C121.866 40.7121 121.878 40.6603 121.891 40.6125C121.911 40.5641 121.923 40.5162 121.928 40.4689C121.932 40.4216 121.917 40.3679 121.881 40.3077C122.015 40.0947 122.097 39.8697 122.128 39.6326C122.157 39.3877 122.169 39.1676 122.164 38.9722C122.229 38.8972 122.281 38.7996 122.319 38.6794C122.366 38.5587 122.396 38.4352 122.411 38.3088C122.426 38.1825 122.429 38.0609 122.421 37.944C122.412 37.8193 122.39 37.723 122.353 37.655C122.359 37.6233 122.374 37.6066 122.397 37.605C122.428 37.595 122.463 37.5925 122.502 37.5976C122.535 37.2821 122.546 36.9328 122.535 36.5498C122.531 36.1663 122.545 35.7973 122.575 35.4428C122.612 35.0799 122.688 34.7614 122.802 34.4871C122.915 34.2051 123.113 34.015 123.396 33.9169C123.464 34.1079 123.546 34.2745 123.642 34.4166C123.746 34.5581 123.854 34.6955 123.965 34.8287C124.084 34.9613 124.203 35.094 124.322 35.2266C124.441 35.3593 124.553 35.5081 124.658 35.673C124.663 35.8528 124.658 36.0607 124.643 36.2967C124.636 36.5321 124.618 36.7722 124.588 37.0171C124.566 37.2614 124.539 37.4982 124.508 37.7275C124.485 37.9563 124.46 38.1499 124.431 38.3085C124.442 38.3469 124.471 38.3723 124.519 38.3846C124.566 38.3891 124.577 38.4315 124.551 38.5116C124.774 38.4412 125.004 38.3742 125.242 38.3106C125.488 38.2386 125.726 38.171 125.956 38.1079C126.194 38.0365 126.424 37.9578 126.645 37.8718C126.874 37.7853 127.086 37.6843 127.281 37.5689C127.302 37.1915 127.335 36.8172 127.379 36.446C127.424 36.0748 127.405 35.7041 127.325 35.3338C127.369 35.2916 127.404 35.2421 127.432 35.1854C127.459 35.1286 127.504 35.0903 127.565 35.0703C127.505 34.8944 127.473 34.7087 127.467 34.5133C127.461 34.3101 127.479 34.1209 127.521 33.9456C127.572 33.7698 127.651 33.6155 127.759 33.4826C127.867 33.3419 128.005 33.2461 128.174 33.1952C128.285 33.3362 128.386 33.4897 128.476 33.6557C128.566 33.8217 128.656 33.9916 128.747 34.1654C128.837 34.3314 128.93 34.4893 129.027 34.6392C129.131 34.7885 129.257 34.9128 129.405 35.0121C129.447 35.2833 129.487 35.5625 129.522 35.8497C129.558 36.1292 129.59 36.4207 129.619 36.7241C129.573 37.0797 129.515 37.4283 129.445 37.77C129.382 38.1033 129.345 38.4583 129.332 38.8352C129.274 38.9097 129.23 38.9989 129.198 39.103C129.165 39.1992 129.133 39.2994 129.101 39.4034C129.077 39.4991 129.044 39.5954 129.004 39.6921C128.964 39.7889 128.911 39.871 128.845 39.9382C128.884 40.0451 128.895 40.1501 128.879 40.253C128.87 40.3476 128.905 40.4587 128.984 40.5863C129.017 40.8268 129 41.0316 128.933 41.2007C128.874 41.3615 128.782 41.505 128.658 41.6312C128.541 41.749 128.399 41.849 128.232 41.9311C128.073 42.0049 127.914 42.0748 127.754 42.1408C127.673 42.0995 127.595 42.0579 127.522 42.016C127.456 41.9658 127.375 41.9323 127.28 41.9155L127.331 41.8062C127.164 41.6612 127.016 41.5071 126.887 41.3438C126.766 41.1722 126.701 40.9731 126.693 40.7465C126.692 40.7387 126.697 40.6875 126.706 40.5929C126.714 40.4905 126.722 40.3842 126.73 40.274C126.746 40.1633 126.759 40.0606 126.768 39.966C126.784 39.863 126.792 39.8077 126.791 39.7999C126.575 39.8385 126.352 39.905 126.124 39.9993C125.895 40.0935 125.672 40.1993 125.453 40.3164C125.241 40.4252 125.042 40.5409 124.855 40.6636C124.675 40.778 124.529 40.8744 124.417 40.9527C124.418 40.9761 124.403 41.0437 124.372 41.1555C124.341 41.2674 124.302 41.3875 124.256 41.516C124.21 41.6368 124.155 41.7463 124.091 41.8448C124.036 41.9426 123.972 41.9901 123.902 41.9872C123.92 42.0251 123.938 42.0552 123.955 42.0775C123.972 42.092 123.974 42.1271 123.962 42.1827C123.833 42.2309 123.715 42.29 123.611 42.36C123.514 42.4295 123.412 42.4875 123.306 42.5341C123.2 42.5885 123.08 42.6164 122.947 42.6179C122.823 42.6266 122.667 42.5904 122.481 42.5095C122.478 42.4549 122.451 42.4098 122.402 42.3741C122.351 42.3306 122.298 42.2952 122.241 42.2678C122.192 42.2399 122.148 42.2156 122.107 42.195C122.066 42.1743 122.045 42.1523 122.044 42.1289ZM131.236 40.8635C130.998 40.7079 130.796 40.5066 130.63 40.2598C130.471 40.0124 130.339 39.7476 130.233 39.4652C130.135 39.1823 130.06 38.89 130.008 38.5882C129.962 38.2781 129.934 37.9825 129.922 37.7014C129.977 37.486 130.05 37.2891 130.139 37.1106C130.228 36.9242 130.329 36.7488 130.443 36.5842C130.556 36.4118 130.674 36.2508 130.797 36.1013C130.927 35.9434 131.053 35.7858 131.175 35.6285C131.222 35.6252 131.265 35.6339 131.306 35.6545C131.331 35.5666 131.373 35.4893 131.431 35.4226C131.489 35.3559 131.551 35.2967 131.618 35.2451C131.684 35.1856 131.751 35.13 131.818 35.0784C131.884 35.0189 131.938 34.9525 131.98 34.8791C132.172 34.8187 132.339 34.7404 132.481 34.6444C132.63 34.5477 132.772 34.4439 132.905 34.3327C133.038 34.2216 133.176 34.118 133.318 34.0219C133.46 33.9258 133.627 33.8476 133.819 33.7872C133.883 33.7044 133.964 33.6321 134.062 33.5705C134.167 33.5083 134.269 33.4503 134.367 33.3965C134.473 33.3421 134.571 33.2843 134.66 33.2232C134.758 33.1616 134.834 33.0818 134.89 32.9839C134.941 33.043 135.009 33.0618 135.094 33.0402C135.178 33.0108 135.254 32.982 135.323 32.9537C135.369 32.9426 135.408 32.9477 135.441 32.9689C135.474 32.9901 135.503 33.0155 135.529 33.045C135.562 33.0662 135.586 33.0802 135.602 33.0869C135.626 33.093 135.648 33.068 135.667 33.0118C135.73 33.0153 135.748 33.0414 135.72 33.0904C135.7 33.1388 135.686 33.171 135.68 33.1872C135.757 33.1661 135.82 33.1774 135.87 33.2209C135.927 33.256 136.011 33.2776 136.121 33.2855C136.163 33.3218 136.177 33.3521 136.163 33.3766C136.149 33.4011 136.14 33.4409 136.136 33.4959C136.423 33.5621 136.611 33.6859 136.702 33.8675C136.793 34.0413 136.814 34.2317 136.766 34.4387C136.717 34.6379 136.613 34.8292 136.453 35.0127C136.301 35.1878 136.126 35.3097 135.927 35.3784C135.69 35.4576 135.468 35.5358 135.262 35.6129C135.064 35.6894 134.87 35.7734 134.681 35.865C134.499 35.956 134.326 36.062 134.162 36.1831C134.006 36.2959 133.87 36.4268 133.755 36.5758C133.541 36.6534 133.349 36.753 133.177 36.8747C133.013 36.9958 132.858 37.128 132.711 37.2714C132.573 37.4142 132.438 37.5646 132.308 37.7225C132.178 37.8726 132.047 38.0227 131.917 38.1728C131.926 38.3052 131.91 38.4082 131.868 38.4816C131.826 38.555 131.78 38.6287 131.731 38.7027C131.757 38.8496 131.797 38.9761 131.851 39.0819C131.913 39.1794 131.975 39.2808 132.037 39.3861C132.673 39.5295 133.34 39.6004 134.037 39.5986C134.741 39.5886 135.436 39.5634 136.123 39.5233C136.199 39.6119 136.284 39.6961 136.375 39.7758C136.474 39.8472 136.562 39.9233 136.638 40.0041C136.722 40.0844 136.788 40.1816 136.835 40.2958C136.889 40.4016 136.91 40.5333 136.898 40.6908C136.774 40.8326 136.639 40.9712 136.492 41.1068C136.344 41.2346 136.197 41.3624 136.049 41.4902C135.979 41.5029 135.894 41.5089 135.792 41.5082C135.698 41.507 135.596 41.5102 135.487 41.5178C135.386 41.5249 135.281 41.54 135.173 41.5632C135.072 41.5781 134.976 41.6083 134.886 41.6538C134.394 41.6726 133.887 41.6493 133.365 41.5839C132.843 41.5108 132.359 41.4154 131.912 41.2979C131.819 41.2026 131.723 41.1153 131.624 41.0361C131.524 40.9491 131.394 40.8916 131.236 40.8635ZM138.32 40.3682C138.082 40.2125 137.88 40.0113 137.714 39.7644C137.556 39.5171 137.423 39.2522 137.318 38.9698C137.219 38.6869 137.144 38.3946 137.092 38.0928C137.047 37.7827 137.018 37.4871 137.006 37.206C137.062 36.9907 137.134 36.7937 137.223 36.6152C137.312 36.4289 137.413 36.2534 137.527 36.0888C137.641 35.9164 137.758 35.7555 137.881 35.6059C138.011 35.448 138.137 35.2904 138.259 35.1331C138.306 35.1298 138.35 35.1385 138.39 35.1592C138.415 35.0712 138.457 34.9939 138.515 34.9272C138.573 34.8605 138.635 34.8013 138.702 34.7497C138.769 34.6902 138.835 34.6346 138.902 34.583C138.968 34.5235 139.023 34.4571 139.064 34.3837C139.256 34.3233 139.423 34.2451 139.565 34.149C139.715 34.0523 139.856 33.9485 139.989 33.8373C140.123 33.7262 140.26 33.6226 140.402 33.5265C140.544 33.4305 140.711 33.3522 140.903 33.2918C140.968 33.209 141.049 33.1368 141.146 33.0751C141.251 33.0129 141.353 32.9549 141.451 32.9011C141.557 32.8467 141.655 32.7889 141.745 32.7278C141.842 32.6662 141.919 32.5864 141.974 32.4886C142.026 32.5476 142.093 32.5664 142.178 32.5448C142.262 32.5154 142.338 32.4866 142.407 32.4583C142.453 32.4473 142.493 32.4523 142.526 32.4735C142.558 32.4947 142.588 32.5201 142.613 32.5496C142.646 32.5708 142.67 32.5848 142.687 32.5915C142.71 32.5977 142.732 32.5726 142.752 32.5164C142.815 32.5199 142.832 32.5461 142.804 32.595C142.784 32.6434 142.771 32.6757 142.764 32.6918C142.841 32.6708 142.904 32.682 142.954 32.7255C143.012 32.7606 143.095 32.7822 143.206 32.7901C143.247 32.8264 143.261 32.8567 143.247 32.8812C143.233 32.9057 143.224 32.9455 143.22 33.0006C143.507 33.0667 143.696 33.1905 143.787 33.3721C143.877 33.5459 143.898 33.7363 143.85 33.9433C143.801 34.1425 143.697 34.3338 143.538 34.5173C143.386 34.6924 143.21 34.8143 143.011 34.883C142.774 34.9623 142.552 35.0404 142.346 35.1175C142.148 35.194 141.954 35.278 141.765 35.3696C141.583 35.4606 141.41 35.5667 141.247 35.6878C141.09 35.8005 140.954 35.9314 140.839 36.0804C140.626 36.158 140.433 36.2576 140.261 36.3793C140.097 36.5004 139.942 36.6326 139.796 36.776C139.657 36.9188 139.522 37.0692 139.392 37.2271C139.262 37.3772 139.132 37.5273 139.001 37.6774C139.01 37.8099 138.994 37.9128 138.952 37.9862C138.91 38.0596 138.865 38.1333 138.815 38.2073C138.841 38.3543 138.881 38.4807 138.935 38.5865C138.997 38.684 139.059 38.7854 139.121 38.8907C139.758 39.0341 140.424 39.105 141.121 39.1033C141.825 39.0932 142.521 39.0681 143.207 39.0279C143.284 39.1165 143.368 39.2007 143.46 39.2804C143.559 39.3518 143.646 39.4279 143.722 39.5087C143.806 39.589 143.872 39.6862 143.919 39.8004C143.973 39.9063 143.994 40.0379 143.982 40.1954C143.859 40.3372 143.723 40.4759 143.576 40.6115C143.429 40.7393 143.281 40.8671 143.133 40.9949C143.064 41.0076 142.978 41.0136 142.876 41.0129C142.782 41.0116 142.68 41.0148 142.571 41.0224C142.47 41.0295 142.365 41.0447 142.257 41.0679C142.156 41.0827 142.061 41.1129 141.97 41.1584C141.478 41.1772 140.971 41.1539 140.45 41.0885C139.928 41.0154 139.443 40.9201 138.996 40.8025C138.904 40.7072 138.807 40.6199 138.708 40.5407C138.608 40.4538 138.478 40.3962 138.32 40.3682ZM149.523 40.9827C149.666 41.0119 149.759 41.0602 149.803 41.1276C149.847 41.195 149.864 41.2721 149.855 41.3589C149.845 41.4457 149.812 41.5342 149.756 41.6243C149.708 41.7216 149.663 41.807 149.621 41.8804C149.542 41.8703 149.473 41.8908 149.414 41.9419C149.362 41.9925 149.316 42.0505 149.273 42.1162C149.053 42.1003 148.838 42.1113 148.629 42.1494C148.421 42.1875 148.227 42.2245 148.05 42.2605C148.019 42.2626 148.004 42.2793 148.006 42.3105C148.017 42.3489 148.011 42.3728 147.988 42.3823C147.749 42.3207 147.509 42.3061 147.268 42.3386C147.028 42.3789 146.785 42.435 146.54 42.507C146.294 42.579 146.041 42.6554 145.781 42.7363C145.521 42.825 145.258 42.8825 144.994 42.9088C144.888 42.8457 144.8 42.7618 144.73 42.6571C144.66 42.5601 144.602 42.4507 144.554 42.3287C144.499 42.2151 144.455 42.0928 144.423 41.962C144.383 41.8395 144.343 41.7208 144.304 41.6061C144.298 41.5204 144.312 41.4489 144.347 41.3916C144.375 41.3427 144.407 41.2973 144.444 41.2557C144.521 40.796 144.622 40.3347 144.746 39.8718C144.878 39.4005 144.983 38.9429 145.061 38.4988C145.136 38.1098 145.209 37.7484 145.279 37.4146C145.357 37.0724 145.428 36.7463 145.493 36.4364C145.557 36.1186 145.621 35.8048 145.685 35.4948C145.75 35.1849 145.81 34.8635 145.865 34.5308C145.916 34.2609 145.965 34.003 146.01 33.757C146.064 33.5105 146.109 33.2645 146.147 33.0191C146.192 32.7732 146.233 32.5197 146.27 32.2587C146.313 31.9894 146.352 31.693 146.384 31.3697C146.361 31.2694 146.348 31.196 146.345 31.1492C146.349 31.0941 146.345 31.0395 146.333 30.9855C146.301 30.8547 146.251 30.7603 146.184 30.7023C146.246 30.6823 146.285 30.6287 146.302 30.5413C146.327 30.4534 146.327 30.3908 146.301 30.3534C146.423 30.3058 146.554 30.2731 146.693 30.2555C146.84 30.2296 146.984 30.2078 147.124 30.1902C147.263 30.1648 147.394 30.1399 147.518 30.1156C147.641 30.0835 147.747 30.0369 147.837 29.9758C148.225 29.933 148.63 29.8891 149.049 29.8441C149.469 29.7913 149.857 29.7445 150.214 29.7039C150.35 29.7336 150.507 29.7461 150.687 29.7413C150.866 29.7288 151.042 29.7282 151.215 29.7396C151.388 29.751 151.548 29.7908 151.694 29.8589C151.839 29.9192 151.945 30.041 152.013 30.2242C152.131 30.2316 152.215 30.2571 152.265 30.3006C152.322 30.3357 152.361 30.3878 152.382 30.4569C152.409 30.5176 152.422 30.5872 152.42 30.6657C152.417 30.7364 152.418 30.8107 152.423 30.8886C152.298 30.9992 152.136 31.0888 151.937 31.1576C151.746 31.2257 151.535 31.2836 151.303 31.3311C151.072 31.3786 150.828 31.4192 150.572 31.4527C150.315 31.4863 150.067 31.5154 149.826 31.5401C149.592 31.5565 149.37 31.5759 149.16 31.5984C148.958 31.6204 148.788 31.6441 148.648 31.6695C148.54 31.6927 148.436 31.7156 148.336 31.7383C148.243 31.7526 148.154 31.7706 148.07 31.7922C148.016 32.1483 147.957 32.5284 147.891 32.9324C147.825 33.3286 147.755 33.729 147.681 34.1336C147.615 34.5298 147.548 34.9182 147.481 35.2988C147.413 35.6794 147.352 36.0283 147.296 36.3455C147.239 36.6549 147.195 36.9243 147.164 37.1535C147.133 37.375 147.116 37.5289 147.114 37.6152C147.023 37.9897 146.944 38.3124 146.876 38.5833C146.816 38.846 146.76 39.0967 146.706 39.3354C146.659 39.5657 146.609 39.7964 146.554 40.0273C146.508 40.2577 146.445 40.5284 146.365 40.8394C146.495 40.8067 146.681 40.7703 146.921 40.73C147.122 40.7003 147.386 40.6661 147.712 40.6277C148.046 40.5886 148.471 40.5511 148.985 40.5152C149.006 40.592 149.045 40.6441 149.102 40.6715C149.159 40.7066 149.216 40.734 149.272 40.7536C149.336 40.7726 149.392 40.796 149.441 40.824C149.49 40.8519 149.517 40.9048 149.523 40.9827ZM156.09 32.2533C156.141 32.3124 156.193 32.3871 156.247 32.4773C156.3 32.5676 156.31 32.653 156.276 32.7337C156.426 32.8642 156.548 33.028 156.64 33.2252C156.74 33.4218 156.747 33.6445 156.663 33.8932C156.488 33.968 156.332 34.0299 156.194 34.0786C156.064 34.1191 155.922 34.1681 155.77 34.2258C155.475 34.2621 155.289 34.2869 155.211 34.3001C155.142 34.3128 155.088 34.3244 155.049 34.3349C155.011 34.3454 154.949 34.3654 154.865 34.3948C154.789 34.4158 154.615 34.4553 154.345 34.5134C154.343 34.4822 154.338 34.463 154.329 34.4557C154.329 34.448 154.321 34.4485 154.306 34.4574C154.299 34.4657 154.288 34.4743 154.272 34.4832C154.265 34.4916 154.25 34.4926 154.226 34.4865C154.074 34.5519 153.921 34.6057 153.767 34.6478C153.613 34.6821 153.459 34.7163 153.304 34.7506C153.15 34.7849 152.996 34.827 152.843 34.8768C152.69 34.9189 152.534 34.9846 152.375 35.074C152.394 35.1119 152.419 35.1414 152.452 35.1626C152.484 35.176 152.517 35.1933 152.55 35.2145C152.59 35.2274 152.626 35.2444 152.659 35.2656C152.692 35.2868 152.717 35.3164 152.736 35.3543C152.958 35.3935 153.143 35.4706 153.292 35.5855C153.449 35.6921 153.591 35.8192 153.718 35.9669C153.846 36.1068 153.969 36.2509 154.089 36.3991C154.209 36.5473 154.348 36.6786 154.504 36.793C154.508 36.8397 154.522 36.874 154.547 36.8957C154.572 36.9175 154.579 36.9601 154.568 37.0235C154.72 37.1929 154.844 37.3996 154.94 37.6436C155.035 37.8875 155.071 38.1748 155.047 38.5054C154.963 38.7619 154.857 38.9846 154.73 39.1737C154.601 39.355 154.431 39.547 154.218 39.7499C154.044 39.8403 153.873 39.9149 153.705 39.9737C153.536 40.0246 153.389 40.0976 153.262 40.1926C153.197 40.158 153.137 40.1465 153.083 40.1581C153.037 40.1614 152.993 40.1566 152.953 40.1437C152.779 40.2342 152.592 40.3021 152.392 40.3474C152.191 40.385 151.973 40.3571 151.74 40.2638C151.577 40.283 151.409 40.2909 151.236 40.2873C151.071 40.2753 150.916 40.247 150.772 40.2022C150.628 40.1575 150.502 40.0919 150.394 40.0055C150.294 39.9107 150.223 39.7904 150.181 39.6445C149.992 39.5089 149.862 39.334 149.792 39.1196C149.722 38.8974 149.734 38.6772 149.828 38.4592C149.874 38.4403 149.908 38.4262 149.931 38.4168C149.961 38.399 149.998 38.369 150.042 38.3267C150.458 38.3368 150.881 38.3425 151.312 38.3437C151.75 38.3365 152.211 38.269 152.696 38.1412C152.707 38.0777 152.731 38.033 152.769 38.0069C152.813 37.9724 152.862 37.9416 152.915 37.9144C152.968 37.8872 153.017 37.8603 153.062 37.8336C153.107 37.807 153.14 37.7695 153.16 37.7211C153.156 37.6743 153.143 37.644 153.118 37.63C153.093 37.6083 153.068 37.5904 153.044 37.5765C153.019 37.5547 152.994 37.533 152.969 37.5112C152.952 37.4889 152.945 37.4502 152.949 37.3951C152.848 37.4022 152.724 37.3756 152.579 37.3153C152.442 37.2544 152.331 37.1838 152.247 37.1035C151.9 37.0652 151.549 36.9722 151.194 36.8248C150.847 36.6767 150.508 36.5399 150.178 36.4141C150.117 36.3244 150.049 36.2431 149.973 36.17C149.905 36.0887 149.837 36.0073 149.768 35.9259C149.699 35.8368 149.638 35.7471 149.585 35.6568C149.54 35.566 149.509 35.4663 149.494 35.3578C149.493 35.2325 149.492 35.1151 149.493 35.0054C149.492 34.888 149.492 34.7744 149.492 34.6648C149.492 34.5473 149.495 34.4296 149.503 34.3116C149.51 34.1858 149.524 34.0517 149.545 33.9092C149.848 33.426 150.238 33.0111 150.715 32.6644C151.199 32.3095 151.699 32.0122 152.215 31.7725C152.307 31.8522 152.399 31.9397 152.492 32.0351C152.584 32.1226 152.68 32.2059 152.78 32.2851C152.879 32.3643 152.982 32.4315 153.087 32.4868C153.201 32.5415 153.324 32.5681 153.457 32.5667C153.541 32.5373 153.606 32.5171 153.653 32.506C153.699 32.495 153.741 32.4881 153.78 32.4853C153.819 32.4826 153.87 32.4791 153.932 32.4747C153.995 32.4703 154.084 32.4563 154.2 32.4325C154.315 32.4088 154.428 32.3931 154.537 32.3854C154.646 32.3778 154.747 32.3668 154.84 32.3525C155.034 32.3233 155.173 32.2979 155.258 32.2763C155.35 32.2542 155.412 32.2381 155.442 32.2282C155.473 32.2182 155.488 32.2132 155.488 32.2132C155.488 32.2054 155.499 32.2046 155.523 32.2107C155.554 32.2086 155.61 32.2125 155.689 32.2227C155.768 32.2328 155.901 32.243 156.09 32.2533ZM160.108 29.5759C160.211 29.5844 160.287 29.6104 160.337 29.6539C160.387 29.6896 160.422 29.7419 160.442 29.811C160.462 29.8723 160.471 29.9421 160.468 30.0206C160.466 30.0913 160.467 30.1656 160.472 30.2435C160.417 30.5685 160.357 30.9447 160.293 31.3721C160.228 31.7917 160.154 32.2394 160.07 32.7152C159.993 33.1826 159.908 33.6584 159.817 34.1425C159.725 34.6188 159.639 35.0634 159.558 35.4763C159.485 35.8887 159.424 36.2454 159.374 36.5464C159.325 36.8475 159.3 37.0528 159.3 37.1625C159.195 37.5692 159.109 37.912 159.043 38.1907C158.984 38.469 158.924 38.7355 158.864 38.9903C158.81 39.2368 158.754 39.4953 158.695 39.7657C158.635 40.0284 158.555 40.3433 158.455 40.7105C158.446 40.8051 158.414 40.9014 158.358 40.9993C158.311 41.1044 158.262 41.1978 158.213 41.2796C158.134 41.2694 158.065 41.2899 158.006 41.341C157.955 41.3916 157.908 41.4497 157.866 41.5153C157.645 41.4994 157.431 41.5105 157.222 41.5486C157.013 41.5867 156.82 41.6237 156.642 41.6596C156.611 41.6618 156.596 41.6785 156.599 41.7096C156.609 41.7481 156.603 41.772 156.58 41.7814C156.341 41.7198 156.101 41.7053 155.861 41.7378C155.621 41.778 155.378 41.8342 155.132 41.9062C154.887 41.9782 154.634 42.0546 154.373 42.1355C154.113 42.2241 153.851 42.2816 153.586 42.308C153.48 42.2449 153.392 42.161 153.322 42.0563C153.252 41.9593 153.194 41.8498 153.146 41.7279C153.091 41.6142 153.047 41.492 153.015 41.3611C152.975 41.2386 152.935 41.12 152.896 41.0053C152.888 40.8962 152.906 40.8166 152.95 40.7666C152.993 40.7165 153.036 40.6626 153.079 40.6048C153.258 40.5845 153.421 40.5574 153.567 40.5237C153.706 40.4983 153.841 40.4693 153.972 40.4366C154.104 40.4118 154.239 40.3828 154.377 40.3496C154.509 40.3247 154.656 40.3066 154.82 40.2951C154.864 40.2607 154.96 40.2305 155.107 40.2046C155.246 40.1714 155.408 40.1404 155.594 40.1118C155.78 40.0831 155.978 40.0575 156.188 40.035C156.398 40.0125 156.596 39.9947 156.783 39.9816C156.854 39.6478 156.933 39.3211 157.02 39.0018C157.107 38.6746 157.182 38.3522 157.246 38.0344C157.313 37.646 157.386 37.2885 157.465 36.9619C157.551 36.6269 157.63 36.3042 157.703 35.9937C157.782 35.6749 157.85 35.3608 157.907 35.0514C157.971 34.7414 158.015 34.4173 158.039 34.0789C158.097 33.7929 158.153 33.5344 158.208 33.3035C158.261 33.0648 158.312 32.8303 158.358 32.5999C158.404 32.3617 158.445 32.1082 158.481 31.8394C158.525 31.5701 158.566 31.2579 158.604 30.9028C158.305 30.8924 158.024 30.9003 157.759 30.9266C157.494 30.9452 157.285 30.9716 157.131 31.0058C156.761 31.0943 156.477 31.173 156.278 31.2417C156.078 31.3026 155.941 31.3553 155.866 31.3997C155.733 31.4012 155.63 31.381 155.556 31.3391C155.475 31.29 155.408 31.2281 155.355 31.1535C155.303 31.0788 155.258 30.9958 155.22 30.9045C155.175 30.8137 155.125 30.7192 155.071 30.6212C155.09 30.5494 155.091 30.4515 155.074 30.3273C155.05 30.1959 155.004 30.1012 154.937 30.0432C154.983 30.0244 155.018 29.971 155.043 29.8831C155.06 29.7879 155.056 29.7217 155.029 29.6844C155.144 29.6372 155.263 29.6054 155.387 29.5889C155.511 29.5646 155.634 29.5442 155.759 29.5276C155.882 29.5033 155.998 29.4796 156.106 29.4564C156.221 29.4248 156.32 29.3787 156.402 29.3182C156.744 29.2786 157.097 29.2344 157.461 29.1854C157.834 29.1358 158.183 29.0918 158.509 29.0533C158.629 29.0841 158.767 29.098 158.924 29.0949C159.079 29.084 159.236 29.0848 159.394 29.0972C159.551 29.1097 159.695 29.1467 159.824 29.2081C159.954 29.2695 160.049 29.3921 160.108 29.5759ZM166.092 39.0487C166.026 38.9907 165.974 38.92 165.937 38.8364C165.907 38.7523 165.84 38.6865 165.735 38.6391C165.711 38.5233 165.678 38.3924 165.637 38.2465C165.603 38.0923 165.564 37.9383 165.522 37.7846C165.488 37.6226 165.457 37.4642 165.43 37.3094C165.411 37.1463 165.409 36.9977 165.423 36.8636C165.433 36.7923 165.452 36.7244 165.479 36.6599C165.514 36.5948 165.545 36.5339 165.572 36.4772C165.607 36.4121 165.629 36.3479 165.641 36.2844C165.66 36.2205 165.659 36.1578 165.639 36.0966C165.685 36.0855 165.711 36.0602 165.716 36.0207C165.729 35.9729 165.766 35.9546 165.83 35.9658C165.872 35.7905 165.92 35.6267 165.972 35.4742C166.024 35.3218 166.08 35.173 166.14 35.0278C166.2 34.8826 166.261 34.7374 166.321 34.5922C166.389 34.4387 166.447 34.2701 166.497 34.0865C166.356 33.9711 166.249 33.8454 166.177 33.7095C166.112 33.5652 166.059 33.4202 166.018 33.2743C165.976 33.1284 165.942 32.9819 165.916 32.8349C165.89 32.6802 165.848 32.5265 165.79 32.3739C165.874 32.227 165.979 32.1061 166.105 32.0111C166.231 31.9084 166.37 31.8242 166.522 31.7588C166.682 31.685 166.854 31.626 167.039 31.5817C167.223 31.5297 167.419 31.4729 167.626 31.4114C167.992 31.2684 168.321 31.1553 168.612 31.0723C168.904 30.9814 169.188 30.9067 169.466 30.8481C169.743 30.7817 170.033 30.7223 170.335 30.6699C170.636 30.6097 170.983 30.5306 171.375 30.4327C171.385 30.4555 171.397 30.4664 171.413 30.4653C171.436 30.4636 171.464 30.4617 171.495 30.4596C171.522 30.5125 171.567 30.5368 171.629 30.5324C171.627 30.509 171.622 30.4898 171.613 30.4748C171.612 30.4514 171.61 30.4319 171.609 30.4163C171.625 30.4152 171.644 30.4178 171.668 30.4239C171.7 30.4295 171.724 30.4357 171.74 30.4424C171.764 30.4485 171.784 30.4472 171.799 30.4383C171.813 30.4216 171.815 30.3941 171.805 30.3557C171.91 30.5128 172.04 30.6407 172.196 30.7395C172.351 30.8304 172.521 30.9086 172.705 30.974C172.718 31.0436 172.722 31.0943 172.716 31.126C172.718 31.1572 172.716 31.1886 172.711 31.2203C172.705 31.2442 172.703 31.2757 172.706 31.3147C172.708 31.3458 172.719 31.392 172.739 31.4533C172.629 31.6725 172.496 31.8462 172.341 31.9745C172.193 32.1023 172.032 32.2037 171.857 32.2786C171.682 32.3534 171.494 32.4136 171.294 32.4589C171.101 32.5037 170.901 32.5529 170.693 32.6066C170.493 32.652 170.29 32.7132 170.084 32.7902C169.877 32.8673 169.677 32.9753 169.484 33.1141C169.42 33.0951 169.361 33.0914 169.307 33.103C169.26 33.1063 169.21 33.1176 169.156 33.137C169.103 33.1564 169.042 33.1764 168.972 33.1969C168.911 33.2168 168.833 33.2222 168.739 33.2132C168.68 33.2721 168.609 33.3163 168.525 33.3456C168.448 33.3745 168.368 33.4036 168.284 33.4329C168.329 33.5159 168.351 33.6006 168.349 33.6869C168.355 33.7726 168.372 33.8458 168.399 33.9065C168.729 33.9148 169.091 33.8895 169.487 33.8305C169.881 33.7637 170.269 33.7092 170.65 33.6669C170.66 33.7053 170.658 33.7329 170.644 33.7496C170.629 33.7662 170.624 33.7941 170.626 33.833C170.7 33.8749 170.77 33.9287 170.837 33.9945C170.905 34.0603 170.972 34.1261 171.039 34.1918C171.114 34.2493 171.188 34.2989 171.261 34.3408C171.334 34.3748 171.417 34.3847 171.51 34.3704C171.554 34.4456 171.587 34.5255 171.609 34.6101C171.63 34.6948 171.625 34.7852 171.592 34.8815C171.444 34.9937 171.299 35.1095 171.159 35.229C171.018 35.3407 170.868 35.4451 170.711 35.5423C170.561 35.6389 170.394 35.721 170.211 35.7886C170.028 35.8563 169.827 35.8938 169.608 35.9013C169.569 35.904 169.534 35.9065 169.503 35.9087C169.479 35.9103 169.447 35.8969 169.406 35.8684C169.331 35.9128 169.227 35.9358 169.094 35.9373C168.968 35.9304 168.863 35.9494 168.78 35.9944C168.669 35.9631 168.539 35.9526 168.391 35.9629C168.25 35.9727 168.124 35.962 168.012 35.9306C167.886 36.1431 167.769 36.3667 167.66 36.6014C167.55 36.8283 167.458 37.0698 167.382 37.3257C167.704 37.3501 167.971 37.3511 168.181 37.3286C168.39 37.3061 168.588 37.2766 168.774 37.2401C168.959 37.2036 169.148 37.1669 169.341 37.1299C169.542 37.0924 169.787 37.0674 170.076 37.055C170.265 36.9479 170.482 36.87 170.73 36.8214C170.984 36.7644 171.218 36.6933 171.431 36.6079C171.511 36.6258 171.58 36.6679 171.64 36.7343C171.699 36.7928 171.754 36.8555 171.806 36.9224C171.865 36.9809 171.923 37.0316 171.981 37.0746C172.039 37.1175 172.11 37.1282 172.194 37.1066C172.236 37.1429 172.263 37.188 172.274 37.242C172.294 37.2955 172.309 37.3453 172.32 37.3915C172.339 37.4372 172.361 37.4748 172.387 37.5043C172.412 37.5261 172.455 37.5309 172.517 37.5187C172.39 37.833 172.239 38.0785 172.063 38.2553C171.896 38.4315 171.698 38.5745 171.471 38.6844C171.251 38.7859 170.998 38.8701 170.713 38.9371C170.435 38.9957 170.123 39.0684 169.777 39.1553C169.692 39.1768 169.618 39.182 169.555 39.1708C169.498 39.1512 169.439 39.1436 169.377 39.148C169.161 39.2022 168.903 39.2594 168.602 39.3197C168.308 39.3793 168.009 39.4159 167.705 39.4294C167.4 39.4428 167.105 39.4243 166.82 39.3738C166.534 39.3232 166.292 39.2149 166.092 39.0487ZM174.125 39.0156C173.895 38.9769 173.714 38.8995 173.58 38.7836C173.454 38.6592 173.354 38.5135 173.28 38.3464C173.213 38.171 173.16 37.9789 173.122 37.7701C173.092 37.5608 173.057 37.3439 173.018 37.1195C173.042 37.016 173.075 36.9276 173.117 36.8542C173.166 36.7802 173.183 36.6812 173.166 36.557C173.235 36.3016 173.296 36.0546 173.349 35.8159C173.403 35.5772 173.433 35.3323 173.439 35.0813C173.481 35.0079 173.524 34.9578 173.569 34.9312C173.601 34.4826 173.577 34.0261 173.497 33.5618C173.418 33.0975 173.31 32.6704 173.173 32.2805C173.174 32.1943 173.182 32.1311 173.195 32.091C173.207 32.0432 173.204 32.0042 173.186 31.9741C173.166 31.9051 173.187 31.8684 173.249 31.864C173.312 31.8597 173.374 31.8553 173.436 31.8509C173.427 31.7107 173.39 31.5762 173.326 31.4475C173.269 31.3105 173.211 31.154 173.152 30.978C173.205 30.8334 173.238 30.694 173.252 30.5599C173.266 30.4257 173.301 30.3019 173.355 30.1885C173.61 30.249 173.862 30.3214 174.111 30.4059C174.359 30.4903 174.604 30.575 174.845 30.6599C175.085 30.7371 175.322 30.8146 175.554 30.8923C175.786 30.9622 176.013 31.0168 176.235 31.0561C176.587 31.2743 176.947 31.4919 177.315 31.709C177.69 31.9177 178.031 32.1562 178.34 32.4243C178.656 32.6842 178.924 32.9905 179.144 33.3431C179.365 33.6958 179.508 34.1204 179.574 34.617C179.562 34.6649 179.553 34.7047 179.547 34.7364C179.541 34.7681 179.536 34.7998 179.53 34.8316C179.525 34.8633 179.523 34.8986 179.526 34.9376C179.529 34.9765 179.532 35.0311 179.537 35.1012C179.291 35.6119 178.965 36.0497 178.56 36.4148C178.155 36.7799 177.708 37.1087 177.219 37.4013C176.731 37.694 176.217 37.9687 175.679 38.2256C175.149 38.4742 174.631 38.7375 174.125 39.0156ZM174.807 32.3072C174.737 32.3121 174.688 32.3312 174.659 32.3646C174.777 32.7087 174.87 33.0351 174.939 33.3435C175.007 33.652 175.052 33.9621 175.074 34.2738C175.104 34.585 175.111 34.9057 175.094 35.2357C175.078 35.5658 175.049 35.9242 175.005 36.311C175.106 36.2961 175.194 36.2703 175.27 36.2337C175.346 36.1971 175.421 36.1566 175.496 36.1121C175.579 36.0672 175.663 36.0261 175.746 35.989C175.838 35.9512 175.941 35.9244 176.058 35.9084C176.085 35.8439 176.12 35.7944 176.165 35.76C176.217 35.7172 176.261 35.675 176.297 35.6333C176.486 35.5417 176.675 35.4462 176.864 35.3469C177.053 35.2475 177.226 35.1376 177.382 35.017C177.538 34.8965 177.677 34.7614 177.8 34.6119C177.922 34.4623 178.02 34.2871 178.092 34.0863C178.021 33.9738 177.937 33.8818 177.838 33.8104C177.746 33.7307 177.647 33.6554 177.54 33.5845C177.44 33.5053 177.341 33.4262 177.241 33.347C177.149 33.2594 177.072 33.1591 177.009 33.046C176.883 33.0392 176.772 33.0156 176.675 32.9754C176.578 32.9274 176.484 32.883 176.395 32.8422C176.306 32.7937 176.209 32.7496 176.104 32.7099C176.008 32.6697 175.893 32.6503 175.76 32.6518C175.549 32.5568 175.361 32.4956 175.195 32.4681C175.028 32.4328 174.899 32.3791 174.807 32.3072ZM179.153 38.6758C179.039 38.6133 178.947 38.5297 178.877 38.4249C178.799 38.3207 178.736 38.2076 178.689 38.0857C178.633 37.9643 178.589 37.8381 178.557 37.7073C178.516 37.5692 178.475 37.4388 178.435 37.3163C178.428 37.2072 178.446 37.1277 178.489 37.0776C178.532 37.0198 178.579 36.9656 178.63 36.915C178.817 36.8941 178.983 36.8668 179.13 36.8331C179.276 36.7994 179.419 36.7659 179.557 36.7327C179.696 36.6995 179.835 36.6702 179.974 36.6448C180.113 36.6117 180.264 36.5893 180.428 36.5779C180.528 36.3281 180.621 36.0906 180.707 35.8653C180.792 35.6322 180.875 35.4111 180.954 35.2019C180.987 35.0038 181.033 34.8204 181.092 34.6519C181.158 34.475 181.221 34.31 181.28 34.157C181.34 33.9963 181.391 33.8399 181.436 33.688C181.479 33.5284 181.503 33.3622 181.506 33.1897C181.581 32.9104 181.645 32.6553 181.7 32.4244C181.761 32.1851 181.8 31.9043 181.817 31.5821C181.524 31.6496 181.29 31.7129 181.114 31.7722C180.937 31.8237 180.811 31.8717 180.736 31.9161C180.58 31.9192 180.453 31.8968 180.355 31.8488C180.266 31.8002 180.191 31.7389 180.131 31.6647C180.071 31.5906 180.018 31.5043 179.972 31.4057C179.926 31.3071 179.872 31.2051 179.81 31.0998C179.836 31.0275 179.837 30.9257 179.812 30.7943C179.786 30.6551 179.732 30.557 179.65 30.5001C179.711 30.4802 179.755 30.4263 179.78 30.3383C179.804 30.2426 179.803 30.1722 179.777 30.1271C179.907 30.0789 180.045 30.0457 180.193 30.0275C180.34 30.0016 180.483 29.9798 180.623 29.9622C180.77 29.9363 180.909 29.9109 181.04 29.886C181.171 29.8534 181.281 29.8026 181.37 29.7337C181.775 29.6898 182.194 29.6448 182.63 29.5987C183.073 29.552 183.481 29.5039 183.853 29.4544C183.997 29.4914 184.158 29.5036 184.337 29.491C184.524 29.4779 184.708 29.4768 184.889 29.4877C185.078 29.498 185.245 29.5372 185.391 29.6053C185.544 29.6729 185.655 29.8022 185.723 29.9932C185.841 30.0006 185.929 30.0258 185.987 30.0688C186.053 30.1112 186.096 30.1669 186.116 30.2359C186.136 30.2972 186.145 30.371 186.143 30.4572C186.149 30.5352 186.154 30.6131 186.16 30.691C186.042 30.7933 185.887 30.8824 185.697 30.9584C185.514 31.026 185.31 31.0872 185.087 31.142C184.863 31.1889 184.627 31.2289 184.379 31.262C184.138 31.2867 183.901 31.3111 183.667 31.3352C183.646 31.5951 183.598 31.904 183.521 32.2618C183.451 32.6112 183.378 32.957 183.3 33.2992C183.221 33.6337 183.152 33.9361 183.093 34.2065C183.041 34.4686 183.021 34.6383 183.035 34.7157C182.969 34.9004 182.914 35.057 182.868 35.1855C182.83 35.3135 182.791 35.4337 182.752 35.5461C182.721 35.6579 182.685 35.77 182.646 35.8824C182.614 35.9864 182.572 36.1069 182.519 36.2437L183.314 36.1881C183.335 36.2728 183.374 36.3288 183.431 36.3561C183.488 36.3835 183.548 36.4067 183.612 36.4257C183.676 36.4447 183.733 36.4721 183.782 36.5078C183.839 36.5351 183.87 36.5878 183.876 36.6657C184.027 36.6943 184.124 36.7462 184.169 36.8214C184.213 36.8966 184.227 36.9818 184.21 37.077C184.2 37.1638 184.168 37.2562 184.112 37.354C184.064 37.4514 184.015 37.537 183.965 37.611C183.894 37.6003 183.829 37.6244 183.771 37.6833C183.712 37.7344 183.657 37.7931 183.607 37.8592C183.379 37.8439 183.156 37.8555 182.94 37.8942C182.723 37.9328 182.522 37.9664 182.336 37.9951C182.297 38.0056 182.283 38.0301 182.294 38.0685C182.304 38.0991 182.298 38.1231 182.275 38.1403C182.028 38.0793 181.777 38.0655 181.521 38.0991C181.272 38.1321 181.018 38.1891 180.757 38.2699C180.504 38.3425 180.243 38.4195 179.975 38.5009C179.707 38.5901 179.433 38.6484 179.153 38.6758ZM184.913 31.5066C184.901 31.4448 184.881 31.3913 184.855 31.3462C184.835 31.2927 184.812 31.2356 184.784 31.1749C184.738 31.0841 184.696 30.9852 184.658 30.8783C184.619 30.7714 184.594 30.6439 184.584 30.4958C184.594 30.4168 184.61 30.3609 184.631 30.3281C184.651 30.2875 184.673 30.2547 184.694 30.2296L184.726 30.0159L184.902 30.0037C184.965 30.0071 185.027 30.0067 185.09 30.0023C185.16 29.9974 185.226 29.9928 185.288 29.9884C185.585 29.9677 185.888 29.9347 186.198 29.8896C186.508 29.8444 186.825 29.7948 187.151 29.7407C187.506 29.6689 187.889 29.6068 188.301 29.5546C188.334 29.4661 188.353 29.4099 188.359 29.386C188.373 29.3615 188.387 29.3332 188.4 29.3009L188.524 29.2218C188.703 29.2014 188.829 29.2161 188.903 29.2657C188.976 29.3076 189.034 29.3505 189.077 29.3946C189.278 29.3648 189.483 29.3309 189.692 29.2928C189.9 29.2469 190.116 29.2005 190.34 29.1535C190.649 29.0927 190.962 29.0317 191.279 28.9704C191.596 28.9091 191.906 28.8678 192.21 28.8465C192.342 28.8373 192.467 28.8324 192.585 28.8321C192.702 28.8317 192.816 28.8355 192.926 28.8434L193.074 28.9388C193.109 28.9912 193.151 29.0391 193.202 29.0826C193.252 29.1261 193.309 29.1691 193.375 29.2115C193.498 29.2968 193.62 29.4058 193.739 29.5385C193.865 29.6706 193.923 29.8741 193.91 30.1491L193.86 30.27C193.831 30.3034 193.794 30.3373 193.75 30.3717L193.644 30.5319L193.515 30.5409C193.437 30.5463 193.379 30.5582 193.341 30.5765C193.303 30.587 193.257 30.6059 193.204 30.6331C193.174 30.6509 193.14 30.6689 193.102 30.6872C193.064 30.6977 193.022 30.7124 192.976 30.7313C192.89 30.7295 192.823 30.7302 192.777 30.7335C192.73 30.7368 192.675 30.7406 192.613 30.7449C192.379 30.7613 192.127 30.7946 191.856 30.8448C191.586 30.8951 191.323 30.9487 191.069 31.0056C190.883 31.0421 190.706 31.078 190.536 31.1134C190.366 31.1409 190.211 31.1674 190.072 31.1928C190.008 31.4009 189.95 31.5851 189.899 31.7453C189.847 31.9055 189.792 32.066 189.733 32.2268C189.673 32.3876 189.618 32.552 189.567 32.72C189.516 32.8802 189.47 33.0597 189.429 33.2583C189.345 33.4051 189.277 33.547 189.224 33.6838C189.17 33.8129 189.13 33.9606 189.102 34.127C188.994 34.2676 188.919 34.4178 188.875 34.5775C188.839 34.7366 188.806 34.8721 188.774 34.984L188.74 35.1626C188.689 35.221 188.657 35.2663 188.644 35.2985C188.638 35.3303 188.621 35.3667 188.592 35.4078C188.576 35.5108 188.552 35.6104 188.519 35.7066C188.506 35.7467 188.494 35.7906 188.482 35.8385C188.469 35.8785 188.467 35.91 188.476 35.9328C188.467 36.0196 188.448 36.0875 188.42 36.1365C188.423 36.1832 188.423 36.2303 188.418 36.2776C188.414 36.3249 188.409 36.3722 188.405 36.4195C188.393 36.4751 188.385 36.5266 188.38 36.5739C188.375 36.6134 188.382 36.6521 188.4 36.69C188.426 36.7195 188.451 36.7491 188.477 36.7786C188.502 36.8082 188.525 36.8458 188.543 36.8914C188.56 36.9059 188.58 36.9163 188.604 36.9224C188.628 36.9286 188.649 36.9389 188.665 36.9534C188.731 37.0036 188.792 37.0307 188.847 37.0347L188.974 37.1668C189.04 37.4441 189.013 37.6653 188.891 37.8304C188.763 38.0195 188.536 38.1254 188.208 38.1483L188.044 38.1481C187.986 38.0973 187.952 38.0645 187.943 38.0494C187.871 38.0231 187.81 38 187.762 37.9798C187.714 37.9675 187.669 37.9354 187.626 37.8836C187.609 37.8691 187.589 37.8627 187.566 37.8643C187.542 37.8582 187.522 37.8478 187.505 37.8333C187.426 37.8154 187.361 37.7925 187.312 37.7646L187.179 37.7034C187.181 37.625 187.181 37.5701 187.179 37.539C187.111 37.4576 187.054 37.3676 187.007 37.269C186.969 37.1699 186.935 37.0666 186.904 36.9591C186.874 36.875 186.845 36.7987 186.817 36.7302C186.797 36.6612 186.765 36.6007 186.722 36.5489C186.668 36.0044 186.687 35.545 186.779 35.1705C186.869 34.7882 186.972 34.4169 187.088 34.0563C187.153 33.8639 187.214 33.6677 187.27 33.468C187.327 33.2683 187.375 33.0652 187.416 32.8587L187.535 32.7211C187.587 32.6706 187.62 32.6408 187.635 32.6319C187.628 32.5306 187.64 32.4318 187.673 32.3356C187.705 32.2316 187.74 32.1272 187.78 32.0227C187.807 31.9581 187.83 31.8939 187.849 31.8299C187.876 31.7654 187.891 31.7095 187.896 31.6621C187.841 31.666 187.791 31.6734 187.745 31.6845C187.706 31.6872 187.663 31.6941 187.617 31.7051C187.517 31.7356 187.421 31.7541 187.327 31.7607C187.257 31.7656 187.206 31.7652 187.174 31.7596C187.114 31.7951 187.057 31.8187 187.003 31.8303C186.949 31.8341 186.894 31.8379 186.839 31.8417L186.699 31.8516L186.559 31.8614C186.465 31.8679 186.392 31.8848 186.339 31.912C186.23 31.9196 186.16 31.9245 186.129 31.9267C186.098 31.9289 186.063 31.9313 186.024 31.934L185.883 31.9438L185.743 31.9537C185.681 31.958 185.61 31.959 185.532 31.9567C185.453 31.9465 185.369 31.9211 185.28 31.8803L185.191 31.7925C185.139 31.7101 185.092 31.6663 185.053 31.6612L184.922 31.6352L184.913 31.5066ZM192.597 37.7358C192.483 37.6732 192.391 37.5896 192.321 37.4849C192.243 37.3807 192.18 37.2676 192.132 37.1456C192.077 37.0242 192.033 36.898 192 36.7672C191.959 36.6291 191.919 36.4988 191.879 36.3763C191.871 36.2671 191.889 36.1876 191.933 36.1375C191.976 36.0797 192.023 36.0255 192.074 35.9749C192.261 35.9541 192.427 35.9268 192.573 35.893C192.72 35.8593 192.862 35.8258 193.001 35.7926C193.14 35.7595 193.279 35.7302 193.418 35.7048C193.557 35.6716 193.708 35.6493 193.871 35.6378C193.971 35.388 194.064 35.1505 194.15 34.9252C194.236 34.6921 194.318 34.471 194.398 34.2618C194.431 34.0637 194.477 33.8804 194.535 33.7118C194.601 33.5349 194.664 33.3699 194.724 33.217C194.783 33.0562 194.835 32.8999 194.879 32.748C194.923 32.5883 194.947 32.4222 194.95 32.2496C195.025 31.9703 195.089 31.7152 195.143 31.4843C195.205 31.245 195.244 30.9643 195.261 30.642C194.968 30.7095 194.733 30.7729 194.557 30.8322C194.381 30.8837 194.255 30.9316 194.18 30.976C194.023 30.9791 193.896 30.9567 193.799 30.9087C193.71 30.8601 193.635 30.7988 193.575 30.7247C193.515 30.6505 193.462 30.5642 193.416 30.4656C193.37 30.367 193.316 30.2651 193.253 30.1598C193.28 30.0874 193.28 29.9856 193.255 29.8542C193.23 29.715 193.176 29.6169 193.094 29.5601C193.155 29.5401 193.198 29.4862 193.224 29.3983C193.248 29.3026 193.247 29.2322 193.221 29.187C193.35 29.1388 193.489 29.1056 193.636 29.0875C193.783 29.0615 193.927 29.0397 194.067 29.0221C194.214 28.9962 194.353 28.9708 194.484 28.946C194.615 28.9133 194.725 28.8625 194.814 28.7937C195.218 28.7497 195.638 28.7047 196.073 28.6586C196.517 28.612 196.924 28.5639 197.297 28.5143C197.44 28.5513 197.602 28.5635 197.781 28.5509C197.968 28.5379 198.152 28.5368 198.333 28.5476C198.522 28.5579 198.689 28.5971 198.835 28.6652C198.988 28.7328 199.099 28.8621 199.167 29.0531C199.285 29.0606 199.373 29.0857 199.431 29.1287C199.496 29.1711 199.54 29.2268 199.56 29.2959C199.58 29.3571 199.589 29.4309 199.587 29.5172C199.593 29.5951 199.598 29.673 199.604 29.751C199.485 29.8532 199.331 29.9423 199.141 30.0183C198.957 30.0859 198.754 30.1471 198.531 30.2019C198.307 30.2489 198.071 30.2889 197.823 30.3219C197.582 30.3466 197.344 30.371 197.111 30.3951C197.09 30.655 197.041 30.9639 196.965 31.3217C196.895 31.6711 196.821 32.017 196.743 32.3592C196.665 32.6936 196.596 32.996 196.537 33.2664C196.484 33.5285 196.465 33.6983 196.478 33.7756C196.413 33.9603 196.357 34.117 196.311 34.2455C196.273 34.3734 196.235 34.4936 196.196 34.606C196.164 34.7178 196.129 34.8299 196.09 34.9423C196.058 35.0463 196.016 35.1668 195.963 35.3036L196.757 35.248C196.779 35.3327 196.818 35.3887 196.875 35.416C196.932 35.4434 196.992 35.4666 197.056 35.4856C197.12 35.5046 197.177 35.532 197.226 35.5677C197.283 35.595 197.314 35.6477 197.319 35.7256C197.47 35.7542 197.568 35.8061 197.612 35.8814C197.657 35.9566 197.67 36.0418 197.654 36.1369C197.644 36.2237 197.611 36.3161 197.556 36.414C197.508 36.5113 197.459 36.5969 197.409 36.6709C197.338 36.6602 197.273 36.6843 197.214 36.7432C197.155 36.7944 197.101 36.853 197.051 36.9192C196.822 36.9038 196.6 36.9154 196.383 36.9541C196.167 36.9927 195.965 37.0264 195.78 37.055C195.741 37.0656 195.727 37.09 195.738 37.1284C195.748 37.1591 195.741 37.183 195.719 37.2002C195.472 37.1392 195.221 37.1254 194.964 37.159C194.716 37.192 194.462 37.249 194.201 37.3299C193.948 37.4024 193.687 37.4794 193.418 37.5608C193.151 37.65 192.877 37.7083 192.597 37.7358ZM201.147 37.0438C200.808 37.1146 200.495 37.1208 200.209 37.0625C199.923 37.0042 199.661 36.9011 199.424 36.7532C199.194 36.6048 198.989 36.4233 198.81 36.2088C198.638 35.9937 198.493 35.7611 198.373 35.511C198.266 34.9859 198.252 34.5052 198.331 34.069C198.41 33.6249 198.542 33.2124 198.726 32.8314C198.911 32.4504 199.125 32.0908 199.368 31.7528C199.618 31.4142 199.858 31.0881 200.086 30.7745C200.142 30.794 200.185 30.791 200.215 30.7655C200.252 30.7394 200.281 30.706 200.302 30.6654C200.33 30.6243 200.359 30.5831 200.387 30.542C200.423 30.5003 200.464 30.47 200.51 30.4511C200.536 30.3788 200.571 30.3176 200.615 30.2676C200.666 30.217 200.718 30.1704 200.769 30.1276C200.828 30.0765 200.88 30.0259 200.923 29.9759C200.975 29.9253 201.017 29.8636 201.051 29.7907C201.128 29.7697 201.192 29.7377 201.244 29.695C201.304 29.6516 201.355 29.605 201.399 29.5549C201.45 29.5044 201.502 29.4577 201.554 29.4149C201.605 29.3721 201.67 29.3363 201.746 29.3075L201.735 29.1555C201.901 29.0656 202.02 28.9711 202.091 28.8722C202.163 28.7732 202.248 28.6458 202.347 28.4901C202.432 28.4764 202.498 28.4678 202.544 28.4646C202.599 28.4607 202.68 28.4472 202.788 28.424C202.849 28.2866 202.909 28.1846 202.967 28.1179C203.025 28.0511 203.109 27.9747 203.221 27.8886C203.342 27.9428 203.469 27.9731 203.603 27.9794C203.736 27.9779 203.861 28.0279 203.978 28.1294C203.992 28.2224 204.024 28.2945 204.075 28.3458C204.125 28.3893 204.179 28.4325 204.237 28.4754C204.294 28.5106 204.352 28.5496 204.409 28.5926C204.467 28.6355 204.507 28.6993 204.529 28.784C204.568 28.7812 204.59 28.7718 204.597 28.7557C204.612 28.739 204.639 28.7332 204.678 28.7383C204.698 28.7995 204.717 28.8491 204.735 28.887C204.754 28.9248 204.772 28.9588 204.79 28.9889C204.815 29.0184 204.837 29.0522 204.855 29.09C204.882 29.1274 204.904 29.1728 204.924 29.2262C204.891 29.3225 204.863 29.4262 204.84 29.5375C204.816 29.641 204.758 29.7155 204.667 29.761C204.672 29.8234 204.698 29.8568 204.745 29.8613C204.792 29.8581 204.821 29.8834 204.832 29.9374C204.845 30.007 204.838 30.0663 204.81 30.1153C205.053 30.4663 205.279 30.8382 205.487 31.2309C205.694 31.6158 205.923 31.9835 206.175 32.334C206.167 32.4442 206.178 32.5531 206.209 32.6605C206.248 32.7597 206.29 32.8585 206.336 32.9571C206.39 33.0552 206.44 33.1535 206.486 33.2521C206.532 33.3507 206.566 33.4501 206.589 33.5503C206.614 33.6817 206.624 33.8259 206.619 33.9828C206.614 34.132 206.593 34.2784 206.556 34.4219C206.519 34.5655 206.466 34.7023 206.396 34.8325C206.327 34.9548 206.243 35.0507 206.146 35.1201C206.033 35.2847 205.886 35.4242 205.706 35.5386C205.525 35.6452 205.362 35.7702 205.215 35.9136C205.11 35.9836 204.997 36.0385 204.874 36.0784C204.751 36.1105 204.624 36.1468 204.494 36.1872C204.397 36.2566 204.281 36.3274 204.145 36.3996C204.008 36.464 203.868 36.5247 203.723 36.5818C203.578 36.6389 203.433 36.6882 203.287 36.7298C203.14 36.7635 203.008 36.7767 202.89 36.7693C202.617 36.8902 202.349 36.9794 202.087 37.0369C201.824 37.0944 201.511 37.0967 201.147 37.0438ZM201.002 32.778C200.936 32.9627 200.854 33.1329 200.755 33.2886C200.664 33.436 200.573 33.5872 200.482 33.7424C200.391 33.8975 200.312 34.0636 200.246 34.2405C200.188 34.4091 200.162 34.6066 200.17 34.8332C200.336 34.9548 200.524 35.0238 200.737 35.0402C200.957 35.0484 201.179 35.0367 201.404 35.0053C201.629 34.9662 201.852 34.9192 202.076 34.8644C202.299 34.8096 202.5 34.776 202.679 34.7634C202.675 34.6933 202.703 34.6561 202.766 34.6517C203.091 34.5976 203.388 34.4868 203.659 34.3191C203.928 34.1436 204.21 33.9673 204.503 33.7901C204.535 33.6939 204.58 33.6085 204.638 33.534C204.695 33.4595 204.723 33.3558 204.721 33.2227C204.678 33.1553 204.646 33.0988 204.627 33.0531C204.616 33.0069 204.608 32.937 204.601 32.8435C204.379 32.5771 204.182 32.2854 204.011 31.9684C203.84 31.6437 203.646 31.34 203.431 31.0575C203.418 31.0976 203.389 31.1387 203.345 31.1809C203.301 31.2232 203.25 31.2189 203.192 31.1682C203.174 31.2478 203.142 31.3048 203.098 31.3392C203.053 31.3659 202.999 31.3814 202.937 31.3857C202.882 31.3895 202.823 31.3819 202.759 31.3629C202.703 31.3433 202.65 31.3157 202.6 31.28C202.343 31.5173 202.085 31.7468 201.826 31.9685C201.575 32.1897 201.35 32.4443 201.151 32.7323C201.114 32.7584 201.091 32.7678 201.083 32.7606C201.074 32.7533 201.047 32.7591 201.002 32.778ZM209.274 35.3244C209.2 35.3922 209.159 35.4773 209.151 35.5797C209.142 35.6743 209.129 35.7692 209.112 35.8643C209.095 35.9595 209.058 36.0443 209 36.1188C208.95 36.185 208.851 36.2193 208.702 36.2219C208.674 36.263 208.668 36.287 208.684 36.2937C208.708 36.2998 208.73 36.3335 208.749 36.3948C208.639 36.3868 208.562 36.4001 208.517 36.4345C208.473 36.469 208.416 36.4964 208.347 36.5169C208.164 36.4749 208.005 36.3881 207.87 36.2565C207.743 36.1166 207.627 35.9642 207.521 35.7993C207.424 35.6339 207.333 35.4639 207.251 35.2896C207.176 35.1147 207.099 34.9635 207.019 34.8359C207.017 34.8047 207.032 34.7919 207.064 34.7976C207.087 34.7959 207.11 34.7943 207.134 34.7926C207.089 34.7174 207.056 34.6336 207.034 34.5412C207.003 34.4415 206.959 34.3624 206.9 34.3039C207.092 33.8049 207.299 33.2853 207.519 32.7451C207.739 32.1972 207.959 31.6454 208.179 31.0896C208.406 30.5256 208.629 29.9618 208.848 29.3982C209.074 28.8264 209.289 28.267 209.494 27.7202C209.717 27.7828 209.934 27.8616 210.145 27.9566C210.362 28.0432 210.562 28.1506 210.743 28.2789C210.924 28.4072 211.08 28.5608 211.21 28.7397C211.347 28.9102 211.443 29.111 211.499 29.3421C211.486 29.3899 211.468 29.4069 211.443 29.3929C211.419 29.379 211.4 29.3881 211.387 29.4204C211.429 29.4644 211.451 29.4981 211.452 29.5215C211.461 29.5366 211.463 29.5561 211.456 29.58C211.45 29.5961 211.447 29.6198 211.45 29.6509C211.452 29.6821 211.474 29.7236 211.517 29.7754C211.478 29.7704 211.451 29.7801 211.437 29.8045C211.422 29.8212 211.395 29.8231 211.355 29.8103C211.402 29.9166 211.419 30.0016 211.408 30.065C211.397 30.1284 211.378 30.1885 211.35 30.2453C211.322 30.2942 211.299 30.3507 211.28 30.4146C211.268 30.4703 211.281 30.5477 211.32 30.6468C211.288 30.649 211.266 30.6584 211.251 30.6751C211.244 30.6834 211.237 30.6957 211.23 30.7118C211.223 30.7279 211.213 30.7443 211.198 30.761C211.191 30.7694 211.172 30.7707 211.14 30.7651C211.177 30.9661 211.2 31.1721 211.207 31.383C211.213 31.5862 211.22 31.7972 211.227 32.016C211.234 32.2269 211.25 32.4451 211.273 32.6706C211.297 32.8961 211.344 33.1277 211.416 33.3655C211.737 33.1472 211.988 32.8751 212.169 32.5492C212.358 32.2228 212.497 31.8645 212.587 31.4744C212.685 31.0838 212.75 30.6681 212.782 30.2274C212.822 29.786 212.861 29.3369 212.899 28.88C212.979 28.7882 213.038 28.6784 213.076 28.5504C213.122 28.4219 213.156 28.2903 213.178 28.1557C213.207 28.0204 213.233 27.8855 213.255 27.7508C213.284 27.6078 213.326 27.4796 213.381 27.3661C213.522 27.3719 213.642 27.4066 213.741 27.4702C213.846 27.5255 213.945 27.5929 214.037 27.6727C214.128 27.7446 214.223 27.8124 214.321 27.876C214.42 27.9396 214.54 27.9782 214.682 27.9918C214.802 28.14 214.914 28.2849 215.017 28.4264C215.121 28.5602 215.194 28.7156 215.238 28.8926C215.197 28.9738 215.168 29.062 215.151 29.1572C215.134 29.2523 215.113 29.3478 215.089 29.4435C215.072 29.5386 215.043 29.6268 215.001 29.708C214.96 29.7892 214.898 29.8601 214.817 29.9206C214.809 30.1561 214.79 30.3767 214.757 30.5826C214.725 30.7885 214.696 30.9903 214.67 31.1878C214.645 31.3854 214.624 31.5905 214.607 31.8031C214.591 32.0157 214.595 32.2464 214.621 32.4953C214.566 32.7262 214.505 32.9654 214.436 33.213C214.367 33.4528 214.319 33.6754 214.295 33.8808C214.155 34.008 214.048 34.1604 213.974 34.3378C213.9 34.5153 213.823 34.693 213.741 34.871C213.704 34.9049 213.682 34.9143 213.673 34.8993C213.663 34.8764 213.627 34.8633 213.564 34.8599C213.577 34.9295 213.565 34.9773 213.527 35.0034C213.497 35.0212 213.505 35.0755 213.55 35.1663C213.422 35.2379 213.311 35.3279 213.217 35.4363C213.123 35.5447 213.016 35.6461 212.898 35.7406C212.787 35.8345 212.65 35.9027 212.489 35.9453C212.335 35.9796 212.126 35.959 211.862 35.8834C211.46 35.6296 211.095 35.3301 210.765 34.9851C210.436 34.6401 210.164 34.2244 209.95 33.7382C209.874 33.767 209.819 33.8217 209.785 33.9024C209.752 33.9831 209.722 34.0673 209.697 34.1553C209.672 34.2432 209.646 34.3233 209.62 34.3956C209.594 34.4679 209.549 34.5063 209.487 34.5106C209.476 34.5818 209.45 34.6503 209.407 34.7159C209.372 34.7732 209.337 34.8343 209.303 34.8994C209.268 34.9567 209.241 35.0212 209.222 35.093C209.212 35.1642 209.229 35.2414 209.274 35.3244Z" fill="black"/>
</svg>
