<svg width="247" height="25" viewBox="0 0 247 25" fill="none" xmlns="http://www.w3.org/2000/svg">
<path d="M9.5355 18.5809V16.197H7.15163V18.5809H2.38388V16.197H0V4.29089H4.76775V13.8198H7.15163V11.4359H9.5355V13.8198H11.9194V4.29089H16.6871V16.2036H14.3033V18.5875H9.5355V18.5809Z" fill="#66B7B2"/>
<path d="M26.2094 4.29089V6.67477H19.0577V4.29089H26.2094ZM21.4416 18.5809V16.197H19.0577V9.052H26.2027V16.197H28.5866V18.5809H21.4416Z" fill="#66B7B2"/>
<path d="M33.3544 18.5808V16.197H30.9705V9.05197H28.5867V6.67474H30.9705V1.90698H38.1155V6.67474H40.4994V9.05861H38.1155V16.2036H40.4994V18.5875H33.3544V18.5808Z" fill="#66B7B2"/>
<path d="M47.6443 18.5808V16.197H45.2605V9.05197H42.8766V6.67474H45.2605V1.90698H52.4054V6.67474H54.7893V9.05861H52.4054V16.2036H54.7893V18.5875H47.6443V18.5808Z" fill="#66B7B2"/>
<path d="M57.1731 18.5809V16.197H66.702V13.8131H59.557V11.4292H57.1731V4.29089H64.3181V11.4359H66.702V4.29089H71.4697V16.2036H69.0858V18.5875H57.1731V18.5809Z" fill="#66B7B2"/>
<path d="M115.993 16.2036V18.5875H104.081V16.2036H101.697V6.67477H104.081V4.29089H115.993V6.67477H108.842V16.2036H115.993Z" fill="black"/>
<path d="M118.371 18.5809V4.29089H130.283V6.67477H132.667V9.05865H127.899V6.67477H125.516V18.5875H118.371V18.5809Z" fill="black"/>
<path d="M149.341 16.2036V18.5875H137.428V16.2036H135.044V6.67477H137.428V4.29089H146.957V6.67477H149.341V11.4359H142.196V16.2036H149.341ZM144.573 6.67477H142.189V9.05865H144.573V6.67477Z" fill="black"/>
<path d="M154.102 18.5809V16.197H151.718V11.4292H154.102V9.04537H158.87V6.67477H154.102V4.29089H166.015V18.5875H154.102V18.5809ZM158.87 11.4359H156.486V16.2036H158.87V11.4359Z" fill="black"/>
<path d="M173.16 18.5808V16.197H170.776V9.05197H168.392V6.67474H170.776V1.90698H177.921V6.67474H180.305V9.05861H177.921V16.2036H180.305V18.5875H173.16V18.5808Z" fill="black"/>
<path d="M185.066 18.5809V16.197H182.682V4.29089H189.827V16.2036H192.211V4.29089H196.979V18.5875H185.066V18.5809Z" fill="black"/>
<path d="M199.363 18.5809V4.29089H211.275V6.67477H213.659V9.05865H208.891V6.67477H206.508V18.5875H199.363V18.5809Z" fill="black"/>
<path d="M230.333 16.2036V18.5875H218.42V16.2036H216.036V6.67477H218.42V4.29089H227.949V6.67477H230.333V11.4359H223.188V16.2036H230.333ZM225.565 6.67477H223.181V9.05865H225.565V6.67477Z" fill="black"/>
<path d="M232.71 18.5809V16.197H239.855V13.8131H235.087V11.4292H232.704V6.67477H235.087V4.29089H244.616V6.67477H239.849V9.05865H244.616V11.4425H247V16.2103H244.616V18.5941H232.71V18.5809Z" fill="black"/>
<path d="M92.0349 4.09168L87.141 2.71713L86.7758 4.01864L85.5141 3.6667L84.4915 7.30559L83.3428 6.98022L82.6455 9.45042L80.089 8.73327L79.3918 11.2035L80.7132 11.5753L80.016 14.0455L79.3187 16.5157L81.7358 17.193L81.4038 18.4281L82.6256 18.7734L82.2803 20.0085L87.1676 21.3831L87.5129 20.148L88.7745 20.4999L89.1198 19.2648L90.2686 19.5902L90.6139 18.3551L91.9353 18.7269L92.2939 17.4586L93.529 17.8039L94.9102 12.9034L93.6751 12.5581L94.3657 10.1078L91.8092 9.39066L92.5131 6.88726L91.3377 6.55524L92.0349 4.09168Z" fill="white"/>
<path d="M87.4665 1.56845L87.1212 2.79027L92.0085 4.16482L92.3538 2.943L88.6883 1.91375L87.4665 1.56845ZM92.0151 4.16482L91.6698 5.38664L92.8917 5.73193L93.237 4.51011L92.0151 4.16482ZM92.8917 5.73193L92.5464 6.95375L93.7682 7.29905L94.1135 6.07723L92.8917 5.73193ZM93.7682 7.30569L93.0776 9.75597L94.2994 10.1013L94.99 7.65098L93.7682 7.30569ZM94.2994 10.0946L93.6088 12.5449L94.8306 12.8902L95.5212 10.4399L94.2994 10.0946ZM94.8373 12.8836L93.4561 17.7775L94.6779 18.1228L96.0591 13.2289L94.8373 12.8836ZM93.4561 17.7841L92.2343 17.4388L91.5437 19.8891L92.7655 20.2344L93.1108 19.0126L93.4561 17.7841ZM91.5437 19.8825L89.1 19.1919L88.7547 20.4203L87.5329 20.075L87.1876 21.2968L89.6313 21.9874L89.9766 20.7656L91.1984 21.1109L91.5437 19.8825ZM87.1876 21.3035L82.3003 19.9289L81.955 21.1508L86.8423 22.5253L87.1876 21.3035ZM82.3003 19.9223L82.6456 18.7005L81.4238 18.3552L81.0785 19.577L82.3003 19.9223ZM81.4238 18.3552L81.7691 17.1334L79.3255 16.4428L78.9802 17.6646L80.202 18.0099L81.4238 18.3552ZM79.3188 16.4428L80.0094 13.9925L78.7876 13.6472L78.097 16.0975L79.3188 16.4428ZM78.7876 13.6538L80.1688 8.75992L78.947 8.41462L77.5658 13.3085L78.7876 13.6538ZM80.1622 8.75328L81.384 9.09857L82.0746 6.6483L80.8528 6.303L80.5075 7.52482L80.1622 8.75328ZM82.0746 6.65493L83.2964 7.00023L83.987 4.54995L82.7652 4.20466L82.4199 5.42648L82.0746 6.65493ZM83.987 4.54995L85.2088 4.89525L85.5541 3.67343L84.3323 3.32813L83.987 4.54995ZM85.5541 3.66679L86.7759 4.01209L87.1212 2.79027L85.8994 2.44497L85.5541 3.66679Z" fill="#020203"/>
<path d="M90.448 5.04789L89.4121 8.71999L90.6339 9.06529L90.2886 10.2871L92.7323 10.9777L93.7682 7.3056L92.5463 6.96031L92.8916 5.73848L91.6698 5.39319L90.448 5.04789ZM83.987 4.54987L83.2964 7.00015L82.0746 6.65485L81.384 9.10513L83.8276 9.79572L84.1729 8.5739L85.3947 8.9192L86.4306 5.2471L85.2088 4.9018L83.987 4.54987ZM86.2779 10.4797L84.558 16.6021L88.2235 17.6313L88.5688 16.4095L89.7906 16.7548L90.8265 13.0827L89.6047 12.7374L89.95 11.5156L87.5063 10.825L86.2779 10.4797ZM89.7906 16.7481L89.1 19.1984L91.5436 19.889L92.5795 16.2169L91.3577 15.8716L91.0124 17.0934L89.7906 16.7481ZM84.7108 11.3562L83.6749 15.0283L84.8967 15.3736L85.9326 11.7015L84.7108 11.3562ZM79.4782 11.2101L78.7876 13.6604L80.0094 14.0057L79.3188 16.456L81.7625 17.1466L82.7983 13.4745L81.5832 13.1159L81.9285 11.8941L80.7067 11.5488L79.4782 11.2101Z" fill="#66B7B2"/>
<path opacity="0.2" d="M91.6698 5.39319L91.3245 6.61501L92.5463 6.96031L92.8916 5.73848L91.6698 5.39319ZM92.5463 6.96031L91.8557 9.41058L93.0776 9.75588L93.7682 7.3056L92.5463 6.96031ZM83.987 4.54987L83.2964 7.00015L84.5182 7.34544L85.2088 4.89516L83.987 4.54987ZM83.303 7.00015L82.0812 6.65485L81.3906 9.10513L82.6124 9.45043L82.9577 8.2286L83.303 7.00015ZM79.4782 11.2035L78.7876 13.6537L80.0094 13.999L80.7 11.5488L79.4782 11.2035ZM80.0094 13.999L79.3188 16.4493L80.5406 16.7946L81.2312 14.3443L80.0094 13.999ZM90.6671 18.3153L90.3218 19.5371L91.5436 19.8824L91.8889 18.6605L90.6671 18.3153Z" fill="#020203"/>
<path d="M76.8953 6.30956L78.1171 6.65486L78.801 4.20458L77.5792 3.85928L77.2406 5.08774L76.8953 6.30956Z" fill="#020203"/>
<path d="M78.8008 4.20459L80.0292 4.54989L80.7132 2.09961L79.4914 1.76096L79.1461 2.98278L78.8008 4.20459Z" fill="#020203"/>
<path d="M81.0601 0.872779L80.7147 2.10004L81.9356 2.44362L82.281 1.21636L81.0601 0.872779Z" fill="#020203"/>
<path d="M82.629 -1.3699e-05L82.2854 1.22086L83.5063 1.56444L83.8499 0.343569L82.629 -1.3699e-05Z" fill="#020203"/>
<path d="M98.237 18.2422L97.0152 17.8969L96.3246 20.3472L97.5464 20.6858L97.8917 19.464L98.237 18.2422Z" fill="#020203"/>
<path d="M96.3248 20.3472L95.1029 20.002L94.4124 22.4456L95.6342 22.7909L95.9795 21.5691L96.3248 20.3472Z" fill="#020203"/>
<path d="M93.1943 22.1L92.8489 23.3272L94.0697 23.6708L94.4151 22.4436L93.1943 22.1Z" fill="#020203"/>
<path d="M91.6284 22.9873L91.2848 24.2081L92.5057 24.5517L92.8492 23.3308L91.6284 22.9873Z" fill="#020203"/>
</svg>
